<svg width="161" height="139" viewBox="0 0 161 139" fill="none" xmlns="http://www.w3.org/2000/svg">
<path opacity="0.37" d="M31.9729 108.666C32.2436 109.335 32.5428 110.005 32.8705 110.646C37.7432 120.206 47.631 126.233 58.1742 127.316C66.6087 128.171 74.8153 125.421 81.8678 120.933C88.9061 116.459 94.5481 110.162 102.37 106.885C113.398 102.283 125.693 98.6498 134.342 88.9045C144.172 77.8342 147.962 61.0505 143.332 46.8885C138.83 33.0683 123.884 28.5946 112.272 22.5109C91.3994 11.5545 62.4912 4.27405 40.7636 17.1396C14.7334 32.5412 19.4636 67.5047 27.7129 91.7682C29.5936 97.2963 29.8215 103.252 31.9729 108.666Z" fill="#FD8503"/>
<path d="M45.2517 43.1557L45.209 42.885H44.9383C39.6667 42.885 37.957 41.1896 37.9427 41.1753L37.7148 40.9189L37.4868 41.1753C37.4726 41.1896 35.7771 42.885 30.4913 42.885H30.2206L30.1778 43.1557C30.1636 43.2412 29.0523 51.7328 37.5723 56.0925L37.7148 56.1638L37.8572 56.0925C46.4058 51.7328 45.2517 43.2412 45.2517 43.1557ZM43.9694 48.4131C42.9151 51.4621 40.8065 53.8272 37.7005 55.4514C34.5946 53.8272 32.4859 51.4621 31.4316 48.4131C30.6622 46.1762 30.705 44.2243 30.762 43.5262C35.1502 43.4692 37.1021 42.3009 37.7005 41.8165C38.2989 42.2866 40.2508 43.4692 44.6391 43.5262C44.6961 44.2386 44.7388 46.1762 43.9694 48.4131ZM53.615 32.2421L53.3158 31.4585C53.0451 31.43 52.7887 31.3588 52.5322 31.2733L51.9196 31.8432L50.1529 30.5752L50.4948 29.8058C50.3238 29.5921 50.1814 29.3641 50.0674 29.1219L49.2268 29.0934L48.8706 26.942L49.6542 26.6428C49.6827 26.3721 49.7539 26.1157 49.8394 25.8592L49.2695 25.2466L50.5376 23.4656L51.3069 23.8076C51.5206 23.6366 51.7486 23.4941 51.9908 23.3801L52.0193 22.5395L54.1707 22.1833L54.4699 22.967C54.7406 22.9955 54.997 23.0667 55.2535 23.1522L55.8661 22.5823L57.6328 23.8503L57.2909 24.6197C57.4619 24.8334 57.6043 25.0614 57.7183 25.3036L58.5589 25.3321L58.9151 27.4834L58.1315 27.7826C58.0888 28.0533 58.0318 28.3098 57.9463 28.5663L58.5162 29.1789L57.2482 30.9598L56.4788 30.6179C56.2651 30.7889 56.0371 30.9313 55.7949 31.0453L55.7664 31.8859L53.615 32.2421ZM52.3897 30.5894L52.5607 30.6606C52.8742 30.7889 53.2161 30.8601 53.558 30.8886L53.7433 30.9029L53.9997 31.5725L55.1823 31.373L55.2108 30.6606L55.3817 30.5894C55.6952 30.4469 55.9801 30.2617 56.2508 30.048L56.3933 29.934L57.0487 30.2332L57.7468 29.2644L57.2482 28.7372L57.3194 28.5663C57.4476 28.2528 57.5189 27.9109 57.5474 27.5689L57.5616 27.3837L58.2312 27.1272L58.0318 25.9447L57.3194 25.9162L57.2482 25.7452C57.1057 25.4318 56.9205 25.1468 56.7068 24.8761L56.5928 24.7337L56.892 24.0783L55.9231 23.3801L55.396 23.8646L55.225 23.7933C54.9116 23.6651 54.5696 23.5939 54.2277 23.5654L54.0425 23.5511L53.786 22.8815L52.6035 23.0809L52.575 23.7933L52.404 23.8646C52.0905 24.007 51.8056 24.1923 51.5349 24.406L51.3924 24.5199L50.737 24.2207L50.0389 25.1896L50.5376 25.7167L50.4663 25.8877C50.3381 26.2012 50.2669 26.5431 50.2384 26.885L50.2241 27.0703L49.5545 27.3267L49.7539 28.5093L50.4663 28.5378L50.5376 28.7087C50.68 29.0222 50.8653 29.3071 51.079 29.5778L51.1929 29.7203L50.8938 30.3757L51.8626 31.0738L52.3897 30.5894ZM53.8715 29.5921C53.3871 29.5921 52.9027 29.4354 52.5037 29.1504C51.4352 28.3953 51.1929 26.9135 51.9481 25.845C52.7032 24.7764 54.1849 24.5342 55.2535 25.2893C55.7664 25.6598 56.1084 26.2012 56.2223 26.8281C56.3221 27.4549 56.1796 28.0818 55.8234 28.5947C55.453 29.1077 54.9116 29.4496 54.2847 29.5636C54.1279 29.5778 53.9997 29.5921 53.8715 29.5921ZM53.8715 25.446C53.3158 25.446 52.7744 25.7025 52.4325 26.1869C52.1618 26.5716 52.0478 27.0418 52.1333 27.5119C52.2188 27.9821 52.461 28.381 52.8457 28.6517C53.2303 28.9224 53.7005 29.0364 54.1707 28.9509C54.6409 28.8655 55.0398 28.6232 55.3105 28.2386C55.5812 27.8539 55.6952 27.3837 55.6097 26.9135C55.5242 26.4434 55.282 26.0444 54.8973 25.7737C54.5839 25.56 54.2277 25.446 53.8715 25.446ZM121.918 55.4656L121.248 53.7132C120.536 53.6277 119.823 53.471 119.154 53.2288L117.786 54.511L114.082 51.8752L114.851 50.1655C114.409 49.6099 114.025 48.9972 113.711 48.3419L111.845 48.2849L111.09 43.7969L112.842 43.1273C112.928 42.4149 113.084 41.7025 113.327 41.0329L112.044 39.6651L114.68 35.9607L116.39 36.7301C116.945 36.2884 117.558 35.9037 118.213 35.5903L118.27 33.7239L122.758 32.9687L123.428 34.7212C124.14 34.8067 124.853 34.9634 125.522 35.2056L126.89 33.9233L130.595 36.5591L129.825 38.2688C130.267 38.8245 130.652 39.4371 130.965 40.0925L132.831 40.1495L133.587 44.6375L131.834 45.3071C131.749 46.0195 131.592 46.7319 131.35 47.4015L132.632 48.7693L129.996 52.4736L128.286 51.7043C127.731 52.1459 127.118 52.5306 126.463 52.8441L126.406 54.7105L121.918 55.4656ZM118.954 52.3169L119.182 52.4024C119.937 52.6874 120.735 52.8726 121.547 52.9438L121.804 52.9723L122.416 54.568L125.608 54.0266L125.665 52.3169L125.893 52.2172C126.634 51.8895 127.332 51.4478 127.959 50.9207L128.144 50.7639L129.711 51.4621L131.592 48.8263L130.424 47.5725L130.509 47.3445C130.794 46.5894 130.979 45.7915 131.05 44.9794L131.065 44.723L132.66 44.1103L132.119 40.9189L130.409 40.8619L130.31 40.6339C129.982 39.8931 129.54 39.1949 129.013 38.568L128.856 38.3828L129.554 36.8156L126.919 34.9349L125.665 36.1032L125.437 36.0177C124.682 35.7328 123.884 35.5476 123.072 35.4763L122.815 35.4621L122.203 33.8663L119.011 34.4077L118.954 36.1175L118.726 36.2172C117.985 36.5449 117.287 36.9866 116.66 37.5137L116.475 37.6704L114.908 36.9723L113.056 39.6081L114.224 40.8619L114.139 41.0898C113.854 41.845 113.668 42.6428 113.597 43.4549L113.583 43.7114L111.987 44.324L112.529 47.5155L114.238 47.5725L114.338 47.8004C114.666 48.5413 115.107 49.2394 115.635 49.8663L115.791 50.0516L115.093 51.6188L117.729 53.4995L118.954 52.3169ZM122.317 49.3819C121.277 49.3819 120.237 49.0685 119.325 48.4273C117.002 46.7746 116.461 43.5404 118.114 41.2181C119.766 38.8957 123.001 38.3543 125.323 40.007C127.645 41.6597 128.187 44.8939 126.534 47.2163C125.522 48.6268 123.927 49.3819 122.317 49.3819ZM122.331 39.8503C120.963 39.8503 119.61 40.4915 118.769 41.6882C118.085 42.6428 117.829 43.7969 118.014 44.9509C118.213 46.105 118.84 47.1023 119.795 47.7862C121.761 49.1825 124.497 48.7265 125.893 46.7604C126.562 45.8058 126.833 44.6517 126.648 43.4977C126.449 42.3436 125.822 41.3463 124.867 40.6624C124.083 40.1068 123.2 39.8503 122.331 39.8503ZM52.5465 87.5226C51.8626 85.5992 51.079 83.4336 51.9481 81.2109C53.1164 78.219 50.6373 76.6802 48.4574 75.2982C46.5767 74.1299 44.81 73.0186 45.4084 71.1807C46.0638 69.186 46.0211 67.6473 45.2802 66.6357C44.6533 65.7809 43.542 65.3249 42.0603 65.3392C40.8777 65.3534 39.8234 63.9002 38.6978 62.3757C37.3728 60.5805 36.0193 58.7283 34.3096 59.1415C34.0104 59.2127 33.7682 59.3837 33.6257 59.6544C33.0273 60.78 33.9677 63.4585 34.9792 66.308C36.062 69.3855 37.3016 72.8619 36.4895 74.3436C35.6061 75.9678 37.2019 77.4496 38.8973 79.0311C40.6925 80.698 42.7299 82.593 42.1885 84.9723C41.6756 87.1949 41.5616 88.0213 41.875 88.5057C42.1173 88.8904 42.6159 88.9759 43.371 89.1183C43.884 89.2181 44.5393 89.332 45.3372 89.5885C48.7709 90.6571 49.7682 92.8797 49.7824 92.9082L49.8252 93.0079L49.9249 92.9937C51.5776 92.7372 52.5465 92.267 53.0024 91.5119C53.0309 91.4692 53.0451 91.4264 53.0736 91.3837C53.558 90.3721 53.0879 89.0471 52.5465 87.5226Z" fill="#FD8503"/>
<path d="M43.7699 83.2769C44.3398 84.1602 44.753 84.9296 44.7103 86.0124C44.6818 87.024 44.5251 88.0213 44.4396 89.0187C44.4253 89.2324 44.4111 89.4318 44.3968 89.6313C44.1119 89.3891 43.8412 89.1469 43.5562 88.9047C43.428 88.8904 43.2998 88.8904 43.1573 88.8904C43.5562 89.2181 43.9694 89.5743 44.3683 89.9305C44.3256 90.6286 44.3113 91.3268 44.3113 92.0249C44.3113 92.4381 44.2971 92.8797 44.3256 93.2929C43.9552 93.065 43.5705 92.837 43.2143 92.609C42.103 91.9252 41.0629 91.284 40.265 90.9421C39.6524 90.6856 38.9685 90.4577 38.3131 90.2439C36.6034 89.6883 34.851 89.1184 34.2668 87.9073C33.9676 87.2805 33.9961 86.5253 34.3523 85.6135C35.2499 83.2626 34.4093 82.8637 32.9988 82.1798C31.973 81.6812 30.5767 81.0115 29.1804 79.3161C28.5678 78.5752 28.0264 77.9341 27.542 77.3784C26.103 75.6829 25.3051 74.7569 25.4048 74.2155C25.4333 74.0872 25.5046 73.9732 25.647 73.8593C25.7183 73.8023 25.8038 73.7453 25.9178 73.6883C26.4592 73.3891 27.0006 73.6171 27.6132 73.8735C28.4396 74.2154 29.4511 74.6571 30.8617 73.9305C31.973 73.3606 33.2125 72.8334 33.9534 73.2609C34.4663 73.5458 34.7655 74.2867 34.8652 75.4977C34.8937 75.8824 35.0219 76.1531 35.2357 76.3098C35.5491 76.5378 36.0335 76.5093 36.5892 76.3953C36.9739 76.9225 37.4725 77.1789 38.0709 77.3927C38.9115 77.6919 39.5384 77.9626 40.1511 78.6464C41.4618 80.1282 42.7299 81.6384 43.7699 83.2769Z" fill="#2A94F4"/>
<path d="M39.225 85.6276C38.3701 85.0577 37.6292 83.6757 36.9169 82.3364C35.948 80.5127 34.9364 78.632 33.5544 78.6748C31.3318 78.7317 29.3514 76.1102 29.3229 76.0959L29.1377 76.2384C29.2232 76.3524 31.2178 78.974 33.5544 78.917C34.794 78.8885 35.7771 80.6979 36.7031 82.4646C37.4298 83.8181 38.1849 85.2286 39.0825 85.8413C39.6239 86.1975 40.6212 86.9241 41.8038 87.8502V87.551C40.7637 86.6819 39.8376 86.0265 39.225 85.6276Z" fill="white"/>
<path d="M114.31 103.28C114.31 103.28 115.592 100.089 113.255 95.5582C110.904 91.0274 109.009 91.7256 114.666 88.2349C120.322 84.7443 114.694 73.7737 119.51 72.3774C124.326 70.9811 128.5 53.2144 132.162 55.4798C135.823 57.7452 130.936 66.4504 133.558 69.072C136.165 71.6935 136.521 75.0132 131.122 77.706C125.722 80.3988 134.954 90.6855 127.631 93.82C120.308 96.9544 122.416 109.25 114.31 103.28Z" fill="#FD8503"/>
<path d="M116.546 106.657C116.532 106.614 115.748 102.539 118.242 97.2679C120.778 91.8966 121.989 86.0266 121.49 81.5529C121.219 79.1308 122.772 78.1904 124.268 77.2786C125.75 76.381 127.275 75.4407 127.189 73.0613C127.118 70.9099 128.03 65.8663 128.058 65.6526L128.386 65.7096C128.372 65.7666 127.446 70.9384 127.517 73.0471C127.602 75.6259 125.992 76.609 124.439 77.5493C122.958 78.4469 121.576 79.3017 121.818 81.5101C122.331 86.0266 121.105 91.9678 118.541 97.3961C116.104 102.568 116.86 106.543 116.874 106.586L116.546 106.657Z" fill="white"/>
<path d="M135.994 80.1852C138.032 79.2164 140.197 79.658 139.072 81.6954C137.946 83.7328 136.265 83.8896 136.579 85.4995C136.892 87.1095 137.718 88.862 135.068 89.8878C132.418 90.8994 131.179 90.7284 129.569 93.7061C127.945 96.6839 127.389 98.8922 124.611 98.1799C121.832 97.4532 124.14 93.7916 125.579 92.2529C125.579 92.2529 127.531 90.6002 127.503 87.6224C127.474 84.6447 126.249 82.65 130.096 82.8495C133.943 83.0205 134.612 80.8406 135.994 80.1852Z" fill="#0E538C"/>
<path d="M124.169 100.26C124.283 99.8751 126.961 90.657 129.155 89.6596C131.392 88.6338 132.603 85.9553 133.13 84.4593C133.814 82.5074 136.735 82.1227 136.849 82.1084L136.892 82.4361C136.863 82.4361 134.056 82.8066 133.444 84.559C132.788 86.4539 131.535 88.933 129.298 89.9588C127.246 90.8992 124.525 100.26 124.496 100.36L124.169 100.26ZM53.6006 92.8368C49.2123 91.7398 49.1553 89.3747 49.0983 87.0951C49.0556 85.2287 49.0129 83.462 46.6335 82.3791C43.4848 80.9401 43.4136 78.2759 43.3423 75.925C43.2853 74.1726 43.2426 72.5198 41.9318 71.6222C38.7831 69.4709 36.1188 64.2563 36.0903 64.1993L36.3325 64.071C36.361 64.128 38.9826 69.2714 42.0886 71.3943C43.5133 72.3631 43.5703 74.0871 43.613 75.9108C43.6843 78.2901 43.7555 80.7692 46.7475 82.1227C49.2693 83.2767 49.3263 85.2144 49.3691 87.0808C49.426 89.3604 49.483 91.5261 53.6718 92.5661L53.6006 92.8368Z" fill="white"/>
<path d="M47.688 90.7283H119.766V38.6963C119.766 37.9554 119.168 37.3428 118.413 37.3428H49.0415C48.3006 37.3428 47.688 37.9412 47.688 38.6963V90.7283Z" fill="#F7F7F7"/>
<path d="M117.083 81.0276L50.234 81.0276V39.9519L117.083 39.9519V81.0276Z" fill="#0B4870" stroke="white" stroke-width="0.5" stroke-miterlimit="10"/>
<path d="M119.766 83.0203H47.7164L39.8232 112.498H127.645L119.766 83.0203Z" fill="#F2F2F2"/>
<path d="M50.4379 88.1923H54.8689C55.0542 88.1923 55.1966 88.3348 55.1539 88.4915L54.7265 90.4149C54.698 90.5289 54.584 90.6144 54.4415 90.6144H49.9393C49.7541 90.6144 49.6116 90.4719 49.6543 90.301L50.153 88.3775C50.1815 88.2778 50.2955 88.1923 50.4379 88.1923ZM56.8921 88.1923H60.2403L59.7986 90.6286H56.3792L56.8921 88.1923ZM61.9072 88.1923H65.2554L64.9135 90.6286H61.494L61.9072 88.1923ZM66.9366 88.1923H70.2848L70.0283 90.6286H66.6089L66.9366 88.1923ZM71.9517 88.1923H75.2999L75.1432 90.6286H71.7238L71.9517 88.1923ZM76.9669 88.1923H80.3151L80.2581 90.6286H76.8387L76.9669 88.1923ZM117.145 88.1923H112.116L112.657 90.6286H117.772L117.145 88.1923ZM110.449 88.1923H107.1L107.542 90.6286H110.962L110.449 88.1923ZM105.433 88.1923H102.085L102.427 90.6286H105.847L105.433 88.1923ZM100.404 88.1923H97.0559L97.3124 90.6286H100.732L100.404 88.1923ZM95.389 88.1923H92.0408L92.1975 90.6286H95.6169L95.389 88.1923ZM90.3738 88.1923H87.0257L87.0826 90.6286H90.5021L90.3738 88.1923ZM81.9963 88.1923H85.3444L85.3872 90.6286H81.9963V88.1923ZM48.9704 92.4381H55.9517L55.5528 94.9457H48.429L48.9704 92.4381ZM118.228 92.4381H109.594L110.078 94.9457H118.897L118.228 92.4381ZM107.856 92.4381H104.408L104.792 94.9457H108.326L107.856 92.4381ZM102.669 92.4381H99.2216L99.5065 94.9457H103.04L102.669 92.4381ZM97.4834 92.4381H94.0355L94.2349 94.9457H97.7541L97.4834 92.4381ZM92.2972 92.4381H88.8493L88.9491 94.9457H92.4682L92.2972 92.4381ZM47.9161 96.8976H55.0684L54.5412 99.3909H47.2607L47.9161 96.8976ZM56.8493 96.8976H60.4255L60.0123 99.3909H56.3649L56.8493 96.8976ZM62.2207 96.8976H89.0203L89.12 99.3909H61.8217L62.2207 96.8976ZM90.8155 96.8976H94.3916L94.5911 99.3909H90.9437L90.8155 96.8976ZM96.1726 96.8976H99.7487L100.048 99.3909H96.4005L96.1726 96.8976ZM101.544 96.8976H105.12L105.505 99.3909H101.872L101.544 96.8976ZM106.901 96.8976H110.477L110.962 99.3909H107.328L106.901 96.8976ZM112.258 96.8976H119.41L120.066 99.3909H112.785L112.258 96.8976ZM87.1254 92.4381H83.6917V94.9457H87.1824L87.1254 92.4381ZM81.9393 92.4381H78.4771L78.3774 94.9457H81.9108L81.9393 92.4381ZM76.7532 92.4381H73.291L73.0916 94.9457H76.6249L76.7532 92.4381ZM71.5671 92.4381H68.1049L67.8057 94.9457H71.3391L71.5671 92.4381ZM66.381 92.4381H62.9188L62.5199 94.9457H66.0533L66.381 92.4381ZM61.1948 92.4381H57.7327L57.2483 94.9457H60.7674L61.1948 92.4381ZM50.5947 86.6678L51.1646 84.5022H52.7888L52.2616 86.6678H50.5947ZM54.413 84.5022H57.6615L57.2198 86.6678H53.9001L54.413 84.5022ZM59.2999 84.5022H62.5484L62.1779 86.6678H58.8725L59.2999 84.5022ZM64.1726 84.5022H67.421L67.1361 86.6678H63.8306L64.1726 84.5022ZM69.0452 84.5022H72.2937L72.0942 86.6678H68.7888L69.0452 84.5022ZM73.9179 84.5022H77.1663L77.0524 86.6678H73.7469L73.9179 84.5022ZM78.7906 84.5022H82.039L82.0105 86.6678H78.7051L78.7906 84.5022ZM83.6632 84.5022H86.9117L86.9687 86.6678H83.6632V84.5022ZM88.5359 84.5022H91.7843L91.9268 86.6678H88.6214L88.5359 84.5022ZM93.4086 84.5022H96.6712L96.885 86.6678H93.5795L93.4086 84.5022ZM98.2955 84.5022H101.544L101.857 86.6678H98.5519L98.2955 84.5022ZM103.168 84.5022H106.417L106.816 86.6678H103.51L103.168 84.5022ZM108.041 84.5022H111.289L111.774 86.6678H108.468L108.041 84.5022ZM112.913 84.5022H116.162L116.732 86.6678H113.426L112.913 84.5022Z" fill="#0B4870" stroke="white" stroke-width="0.5" stroke-miterlimit="10"/>
<path d="M125.351 114.792H42.1171C40.8491 114.792 39.8232 113.767 39.8232 112.499H127.645C127.645 113.767 126.619 114.792 125.351 114.792ZM93.9497 102.967C93.8642 102.454 93.4083 102.069 92.8954 102.069H74.5873C74.0601 102.069 73.6184 102.454 73.5329 102.967L72.3931 109.877C72.2792 110.532 72.7921 111.131 73.4475 111.131H94.0209C94.6906 111.131 95.1892 110.532 95.0752 109.877L93.9497 102.967Z" fill="#D3D3D3"/>
<path d="M54.7407 43.4407H62.1922V44.21H54.7407V43.4407ZM64.2866 49.1824H69.6579V49.9518H64.2866V49.1824ZM70.4985 49.1824H74.0604V49.9518H70.4985V49.1824ZM54.8262 63.6295H58.3881V64.3988H54.8262V63.6295ZM74.7728 49.1824H83.3925V49.9518H74.7728V49.1824ZM54.8262 60.7372H60.3685V61.5066H54.8262V60.7372ZM62.5484 66.4932H65.9251V67.2626H62.5484V66.4932ZM54.8262 66.4932H61.5226V67.2626H54.8262V66.4932ZM54.8262 69.3712H58.5163V70.1406H54.8262V69.3712ZM63.6454 43.4407H68.9313V44.21H63.6454V43.4407ZM63.6454 52.0604H68.9313V52.8298H63.6454V52.0604ZM60.9954 54.9242H63.2608V55.6936H60.9954V54.9242ZM58.7443 57.8449H63.8164V58.6143H58.7443V57.8449ZM64.5858 57.8449H71.5956V58.6143H64.5858V57.8449ZM54.8262 54.9527H60.112V55.7221H54.8262V54.9527ZM54.8262 57.8449H57.9607V58.6143H54.8262V57.8449ZM64.3293 54.9527H67.2928V55.7221H64.3293V54.9527ZM54.9259 72.235H57.8894V73.0043H54.9259V72.235ZM54.812 49.1824H60.0978V49.9518H54.812V49.1824ZM59.4852 63.6295H64.771V64.3988H59.4852V63.6295ZM59.5564 69.3712H64.8422V70.1406H59.5564V69.3712ZM68.9455 69.3712H74.2314V70.1406H68.9455V69.3712ZM54.812 52.0604H62.3489V52.8298H54.812V52.0604ZM90.1316 43.4407H95.4175V44.21H90.1316V43.4407ZM71.2964 72.235H76.5822V73.0043H71.2964V72.235ZM97.056 43.4407H100.589V44.21H97.056V43.4407ZM109.038 46.3187H112.572V47.088H109.038V46.3187ZM70.356 43.4407H77.0951V44.21H70.356V43.4407ZM96.6 46.3187H103.339V47.088H96.6V46.3187ZM88.3364 49.1824H95.0755V49.9518H88.3364V49.1824ZM79.5742 52.0604H86.3133V52.8298H79.5742V52.0604ZM95.9161 49.1824H100.703V49.9518H95.9161V49.1824ZM82.0675 43.4407H88.8066V44.21H82.0675V43.4407ZM74.3881 52.0604H78.3347V52.8298H74.3881V52.0604ZM71.2964 63.6722H75.2429V64.4416H71.2964V63.6722ZM78.3347 43.4407H80.7995V44.21H78.3347V43.4407ZM70.356 52.0604H72.8209V52.8298H70.356V52.0604ZM104.963 46.3187H107.428V47.088H104.963V46.3187ZM54.7407 46.3187H58.6018V47.088H54.7407V46.3187ZM65.0417 60.7514H68.0907V61.5208H65.0417V60.7514ZM59.5564 46.3187H60.7959V47.088H59.5564V46.3187ZM85.1165 46.3187H95.4175V47.088H85.1165V46.3187ZM75.2429 69.3712H85.5439V70.1406H75.2429V69.3712ZM61.7078 46.3187H62.9758V47.088H61.7078V46.3187ZM80.7995 46.3187H84.1619V47.088H80.7995V46.3187ZM84.1762 49.1824H87.5386V49.9518H84.1762V49.1824ZM66.8511 72.235H70.2136V73.0043H66.8511V72.235ZM72.7496 46.3187H79.9161V47.088H72.7496V46.3187ZM66.0675 63.6722H70.2563V64.4416H66.0675V63.6722ZM65.8111 69.3712H67.9055V70.1406H65.8111V69.3712ZM69.259 46.3187H71.7238V47.088H69.259V46.3187ZM60.9669 49.1824H63.4317V49.9518H60.9669V49.1824ZM61.4513 60.7514H63.9161V61.5208H61.4513V60.7514ZM64.0301 46.3187H68.3329V47.088H64.0301V46.3187Z" fill="#F7F7F7"/>
<path d="M100.105 52.089C100.105 52.089 101.359 54.2119 101.886 54.5539C102.598 55.024 102.157 55.4942 101.815 55.5084C101.473 55.5084 99.7345 55.6367 99.3498 55.195C98.9651 54.7533 98.7799 53.4568 98.4237 53.1149C98.0675 52.7729 97.6971 51.4194 98.5947 51.0917C99.3783 50.7925 100.105 52.089 100.105 52.089Z" fill="#FD8503"/>
<path d="M99.5488 51.1629C99.5488 51.1629 100.988 53.6563 101.23 54.0125C101.472 54.3829 100.76 54.3829 100.318 54.2119C99.8765 54.041 98.7652 52.26 98.6085 51.9323C98.4233 51.5476 98.58 51.106 98.58 51.106L99.5488 51.1629Z" fill="#FFE3CA"/>
<path d="M98.096 52.488L98.438 55.0383L98.6089 55.0525L98.5519 53.2146L98.096 52.488ZM87.6668 52.089C87.6668 52.089 88.9206 54.2119 89.4477 54.5539C90.1601 55.024 89.7185 55.4942 89.3765 55.5085C89.0346 55.5085 87.2964 55.6367 86.9117 55.195C86.527 54.7533 86.3418 53.4568 85.9856 53.1149C85.6294 52.7729 85.2447 51.3767 86.1566 51.0917C86.9544 50.8353 87.6668 52.089 87.6668 52.089Z" fill="#FD8503"/>
<path d="M87.1962 51.1629C87.1962 51.1629 88.5497 53.642 88.8062 54.0125C89.0484 54.3829 88.336 54.3829 87.8944 54.2119C87.4527 54.041 86.3414 52.26 86.1847 51.9323C85.9994 51.5476 86.1562 51.106 86.1562 51.106L87.1962 51.1629Z" fill="#FFE3CA"/>
<path d="M85.6719 52.4878L85.9996 55.0381L86.1848 55.0524L86.1278 53.2144L85.6719 52.4878Z" fill="#FD8503"/>
<path d="M82.1099 32.7551L93.4509 37.9269C93.4509 37.9269 94.7189 38.3401 94.8614 39.7506C95.3031 44.1388 98.58 51.0917 98.58 51.0917C99.6344 51.6046 99.5489 51.1629 99.5489 51.1629C98.8792 49.0258 98.0814 40.2493 97.7822 36.7301C97.7252 35.9892 97.6824 35.4763 97.6682 35.3054C97.6682 35.1914 97.54 35.0489 97.3262 34.8779C95.7733 33.6099 89.3619 31.0026 89.3619 31.0026C84.5889 30.8744 82.1099 32.7551 82.1099 32.7551Z" fill="#FFE3CA"/>
<path d="M79.973 34.9776C80.3292 38.0408 84.7032 37.6989 84.7032 37.6989H90.0033C90.0033 37.6989 88.6071 40.8049 88.0656 43.4122C87.4957 46.1904 86.1422 51.0916 86.1422 51.0916C86.1422 51.0916 86.2277 51.2626 87.1965 51.1628C87.1965 51.1628 91.3568 42.8708 92.9526 40.7764C93.2945 40.3347 94.2776 37.8841 94.4486 36.4309C94.5055 35.9464 94.477 35.5618 94.2918 35.405C94.1066 35.2483 93.6792 34.9634 93.1235 34.6072C91.4566 33.5529 88.5786 31.9429 86.9686 31.5867C84.8172 31.1023 81.412 30.1904 81.412 30.1904C81.412 30.1904 79.6169 31.9144 79.973 34.9776Z" fill="#FFE3CA"/>
<path d="M83.5776 11.3552C83.5776 11.3552 82.7797 9.84495 83.1644 8.24923C83.5491 6.63925 85.0451 5.04353 87.2249 5.7844C89.4048 6.52527 91.1715 8.20648 89.8607 10.1726C88.55 12.1246 91.0433 13.0222 90.4022 13.9482C89.761 14.8743 90.0032 15.8574 90.2739 16.0711C90.5446 16.2848 91.4137 17.0542 91.314 17.9803C91.2143 18.8921 87.0825 15.316 87.0825 15.316C87.0825 15.316 84.8456 10.771 83.5776 11.3552Z" fill="#0E538C"/>
<path d="M90.2313 30.6179C90.2313 30.6179 89.9036 32.2136 81.4263 30.2047C81.4263 30.2047 84.2615 29.2643 90.2313 30.6179Z" fill="#EB4747"/>
<path d="M81.3265 30.6465C81.1983 30.9029 81.07 31.1451 80.9276 31.4016C84.0193 31.4871 87.1252 31.5868 90.217 31.6723C89.7325 30.0338 89.8893 27.8112 89.9748 26.13C90.0745 24.0641 91.2143 22.6393 91.1003 20.5592C91.713 20.6589 91.8127 20.6732 92.4253 20.7729C91.485 18.0944 91.1716 16.7693 88.2508 15.7435C87.2962 15.4016 86.6836 15.3446 85.6577 15.4301C82.2811 15.715 81.2695 15.7435 79.6025 18.8067C82.1956 19.2199 81.7682 20.146 82.5518 22.7391C82.9365 23.9928 83.3354 25.4034 83.1359 26.7284C82.9365 28.0249 81.3265 29.4639 81.3265 30.6465Z" fill="white"/>
<path d="M86.7122 16.3846C85.3302 16.1281 85.6294 15.3587 85.6294 15.3587C85.6294 15.3587 85.6864 14.9313 85.7149 14.3757C85.7149 14.2332 85.7291 14.0907 85.7291 13.934C85.7291 13.706 85.7149 13.4781 85.6864 13.2501C85.5724 12.324 88.1939 12.8797 88.1939 12.8797C88.1939 12.8797 88.0372 14.7604 88.4076 15.316C88.7638 15.8859 88.0942 16.6553 86.7122 16.3846Z" fill="#FFE3CA"/>
<path d="M84.0764 15.3587C84.0764 15.3587 86.8689 18.5787 87.8947 19.3196C87.8947 19.3196 89.0773 18.251 88.3506 15.43C88.3506 15.43 87.0114 14.7461 84.0764 15.3587ZM84.1619 7.60807C84.1619 7.60807 82.7086 10.4006 84.1476 13.0364C85.5866 15.6722 88.4076 11.8823 88.5786 11.4407C88.7638 10.999 89.7326 8.47717 87.8092 7.72205C85.8858 6.95268 84.575 6.85295 84.1619 7.60807Z" fill="#FFE3CA"/>
<path d="M86.9544 13.3213C86.9544 13.3213 86.6979 13.8769 85.7148 14.3756C85.7148 14.2331 85.7291 14.0907 85.7291 13.9339C85.7291 13.9339 86.3987 13.8627 86.9544 13.3213Z" fill="#FCD2B1"/>
<path d="M72.322 28.1387C72.322 28.1387 71.6381 28.4379 71.3104 28.3097C70.9827 28.1672 70.4841 28.1387 70.3273 28.1387C70.1136 28.1387 69.444 27.8965 69.4582 28.1672C69.4725 28.4237 70.541 28.6089 70.7548 28.6944C70.9685 28.7799 70.0994 29.25 70.0139 29.4638C69.9284 29.6775 70.9257 31.0737 71.4814 30.6748C72.037 30.2759 72.3362 29.478 72.4502 29.421C72.5642 29.364 72.8634 29.1503 72.8634 29.1503L72.322 28.1387Z" fill="#FFE3CA"/>
<path d="M70.1278 29.3357C70.1278 29.3357 68.5178 30.675 68.4893 30.8602C68.4608 31.0454 68.5463 31.1309 68.703 31.0027C68.8598 30.8887 70.2988 29.7489 70.2988 29.7489C70.2988 29.7489 68.6888 31.658 68.6318 31.8005C68.6033 31.886 68.76 32.057 68.8455 32C68.931 31.943 70.6549 30.1478 70.6549 30.1478C70.6549 30.1478 69.1447 31.9287 69.1447 32.0712C69.1305 32.1852 69.3157 32.3134 69.4439 32.1852C69.5721 32.057 71.0681 30.4897 71.0681 30.4897C71.0681 30.4897 70.0565 31.8575 70.1278 31.9857C70.1705 32.057 70.2988 32.2137 70.541 31.8575C70.7832 31.5013 71.4671 30.7035 71.4671 30.7035L70.1278 29.3357Z" fill="#FFE3CA"/>
<path d="M89.4477 37.6846H84.7032C84.7032 37.6846 80.3292 38.0408 79.973 34.9634C79.6169 31.9001 81.412 30.1904 81.412 30.1904C81.412 30.1904 83.7201 30.8031 85.7433 31.2875C86.7549 31.0738 87.9659 30.9313 89.3907 30.974C89.3907 30.974 97.9392 33.7951 97.6827 35.2911C97.6827 35.3053 94.1066 33.3961 89.4477 37.6846Z" fill="#0E538C"/>
<path d="M86.356 32.3847L95.4174 32.2422L90.8439 34.5645L86.356 32.3847Z" fill="#F2F2F2"/>
<path d="M89.1769 31.2162C89.1769 31.2162 87.1395 31.9998 84.6462 31.2874L84.5322 30.3613L89.6756 30.6463L89.1769 31.2162Z" fill="white"/>
<path d="M90.8439 34.5644L86.356 32.8262V32.3845L91.2001 34.1227L90.8439 34.5644Z" fill="#D3D3D3"/>
<path d="M89.1338 31.6578C89.1053 31.9855 89.4473 32.2277 89.7607 32.0995L90.2879 31.8716C90.4446 31.8003 90.5443 31.6436 90.5159 31.4726C90.3021 30.1049 89.832 24.7763 90.5159 23.8502C90.7723 23.5082 90.929 23.209 91.0145 22.9526C91.4704 24.1209 92.0261 25.6311 92.2541 26.4432L96.5283 32.1423L97.9673 32.5127C96.1721 28.1957 94.7331 25.9161 94.7331 25.9161C94.4482 25.161 93.6503 22.8814 92.9379 20.8582C92.482 19.5759 92.0831 18.3934 91.8551 17.7665C91.7411 17.4388 91.5274 17.1681 91.2282 16.9971C90.5586 16.5982 89.4615 15.9713 88.4642 15.4869H88.45C88.4215 15.4726 88.393 15.4584 88.3502 15.4441C90.2594 18.3079 89.5185 26.4432 89.1338 31.6578C89.1338 31.6436 89.1338 31.6436 89.1338 31.6578ZM82.0671 15.6721C81.4544 15.7718 79.9442 17.2393 79.1463 18.7211C78.2345 20.4165 77.2941 22.3399 76.596 22.9668C75.3137 24.1351 71.7091 28.2527 71.5381 28.1529C71.4669 28.1102 72.5212 29.3782 72.6637 29.4352C72.7349 29.4637 78.5764 24.3916 79.1463 23.6222C79.6735 22.8956 81.0982 19.8181 81.5257 19.8894C81.5541 19.9606 82.0813 21.0862 82.5657 22.7246C82.58 22.7531 82.58 22.7816 82.5942 22.8101C82.9362 23.9499 82.9077 25.2037 82.7224 26.6C82.58 27.6543 81.7964 29.3782 81.3262 30.2188C81.2692 30.3186 81.2834 30.518 81.3404 30.6605C81.3832 30.746 81.4259 30.8172 81.4972 30.8457L83.2211 31.4869L83.62 31.6293C83.905 31.7433 84.2184 31.6863 84.4464 31.5154C84.6316 31.3871 84.7741 31.1734 84.8026 30.917C85.1873 27.982 85.6717 24.9757 86.0564 23.8502C87.7518 18.892 85.401 15.1592 85.401 15.1592C85.401 15.1592 82.6085 15.4726 82.0671 15.6721Z" fill="#FD8503"/>
<path d="M90.8438 34.5644L93.5365 27.2126L102.213 27.3551L99.6487 34.137L90.8438 34.5644Z" fill="#FD8503"/>
<path d="M96.3147 30.4611C96.044 30.9882 96.1295 31.5724 96.4999 31.7434C96.8704 31.9286 97.369 31.6436 97.6397 31.1165C97.9104 30.5893 97.8249 30.0052 97.4545 29.8342C97.0841 29.649 96.5712 29.9339 96.3147 30.4611Z" fill="#F2F0F0"/>
<path d="M91.0435 16.5697C90.4023 15.6009 89.9464 14.8315 89.8894 13.4495C89.8467 12.5376 89.6472 11.2981 89.0203 10.6855C89.6757 8.97576 88.9063 8.46285 88.5929 7.90719C88.2082 7.20906 85.3587 5.52785 84.2332 7.29455C83.1076 9.047 83.5065 10.8849 83.5065 10.8849C83.6205 9.9161 84.6178 8.60532 84.6178 8.60532C84.7746 9.6169 86.8689 11.2696 87.7808 11.9392C87.7665 11.9535 87.7523 11.982 87.7523 11.9962C87.2394 12.7371 87.8805 13.478 87.9945 14.2616C88.1085 15.0452 85.8431 17.1539 88.3649 18.2082C90.8868 19.2767 91.6846 17.5243 91.0435 16.5697ZM45.1806 99.5617C45.1806 99.5617 45.1236 100.16 42.3311 100.16C39.5386 100.16 35.478 99.4335 35.478 99.4335L41.9607 98.8066C41.9607 98.8066 44.454 98.6783 45.1806 99.5617Z" fill="#0E538C"/>
<path d="M38.0707 99.7755C36.4893 99.7755 35.8196 100.588 35.1927 100.844C34.5658 101.101 33.9389 101.485 33.9389 101.471C34.2951 100.773 34.7938 100.759 35.0503 100.531C35.3067 100.303 35.2355 100.417 34.6798 100.374C34.3664 100.345 33.7965 100.93 33.3975 101.257C33.0413 101.528 32.8276 101.556 32.8276 101.556C32.8276 101.556 33.2408 100.972 33.7537 100.502C34.3806 99.9323 35.1642 99.4621 35.3495 99.3766C35.6914 99.2341 36.7457 99.2056 37.4866 99.3054C38.3414 99.4194 39.2105 99.7755 38.0707 99.7755Z" fill="#0E538C"/>
<path d="M35.4495 99.405C35.4495 99.405 34.2385 99.7184 34.0247 99.8894C33.8823 100.003 33.2554 100.673 33.2554 100.673C33.2554 100.673 33.7113 100.602 33.9677 100.345C34.2385 100.075 35.4495 99.405 35.4495 99.405ZM42.8867 98.3364C42.8867 98.3364 45.9357 98.5359 45.722 100.417C45.608 101.485 44.9099 101.856 43.9838 101.77C42.2741 101.628 40.3364 101.371 40.3364 101.371L39.4673 98.4504L42.8867 98.3364Z" fill="#0E538C"/>
<path d="M43.5275 98.593L46.5195 88.9474C46.5195 88.9474 46.9611 87.5369 47.6878 87.7933C48.7278 88.178 48.2149 89.3321 48.1294 90.016C47.9442 91.4122 48.0724 92.0249 47.1036 95.3873C46.5052 97.4674 45.9923 99.861 45.4794 101.229C45.1232 102.169 44.5106 100.816 43.5845 100.445C41.8463 99.747 43.5275 98.593 43.5275 98.593ZM43.7554 83.7043C44.3396 85.3855 46.149 86.2546 47.816 85.642C49.4687 85.0293 50.3521 83.1629 49.7679 81.4817C49.1838 79.8005 47.3743 78.9314 45.7074 79.544C44.0546 80.1567 43.1713 82.0231 43.7554 83.7043Z" fill="#0E538C"/>
<path d="M40.4786 83.861C41.3904 85.2287 43.2141 85.5707 44.5391 84.6303L44.3539 83.0204C45.6789 82.0658 46.0066 80.1851 45.0948 78.8173L44.4679 77.8913C43.5561 76.5235 41.7324 76.1815 40.4074 77.1219L39.809 77.5493C38.4839 78.5039 38.1562 80.3846 39.0681 81.7523L40.4786 83.861Z" fill="#0E538C"/>
<path d="M39.2821 79.373C39.4388 79.601 39.6098 79.8147 39.8093 80.0284C41.12 81.4532 42.8725 81.9946 43.9838 81.4105C44.4967 82.1086 45.0808 82.6642 45.608 83.0917C46.2207 83.5903 47.7879 83.7898 47.7879 83.7898C48.6997 84.7871 45.2803 90.6144 45.0381 90.5859C44.5394 90.5431 43.8983 87.3232 44.3685 86.1549C44.5822 85.6277 44.9241 85.0008 44.8244 84.7159C44.4682 83.7328 43.9695 83.9038 43.9695 83.9038C43.9695 83.9038 43.3142 84.6731 42.8012 84.6446C42.2741 84.6019 41.3622 83.7755 41.3195 83.7613C41.1628 83.6331 41.0203 83.4763 40.8921 83.2911L39.5243 81.2395C39.1681 80.6696 39.0826 79.9857 39.2821 79.373Z" fill="#FFE3CA"/>
<path d="M49.7398 103.922C49.7398 103.922 48.6285 105.261 48.2865 105.403C47.8306 105.603 46.4343 105.175 46.4343 105.175C46.4343 105.175 46.0639 99.0347 45.6365 96.6411C45.2091 94.2475 44.5822 93.6206 44.5537 92.8655C44.5109 91.6545 43.4994 91.1701 43.6703 90.2297C43.8413 89.2894 44.1405 85.927 44.2402 86.3686C45.1093 90.187 46.1779 87.0098 46.4201 86.5111C46.5483 86.2404 49.7398 103.922 49.7398 103.922Z" fill="#F2F0F0"/>
<path d="M44.6816 85.2287C44.6816 85.2287 43.3281 86.7104 43.4278 87.2946C43.5133 87.8787 42.8437 89.7024 43.5133 92.2385C44.2684 95.1307 44.6673 97.0969 44.8098 98.9918C44.9523 100.887 44.3112 102.625 44.5676 104.947C44.7671 106.771 45.1803 106.871 45.1803 106.871C45.1803 106.871 45.9924 107.07 46.5623 106.358C47.1322 105.66 46.2773 99.4477 45.9924 97.909C45.7074 96.356 44.7956 92.7371 44.5534 91.6686C44.2542 90.3578 44.3112 89.0185 44.3254 88.6338C44.3966 87.2803 44.5676 86.4397 44.7101 85.9268C44.7243 85.8556 44.7956 85.0577 44.6816 85.2287ZM47.0467 86.9669C47.7876 89.104 50.0957 90.2011 52.2043 89.4175C54.3129 88.6338 55.4242 86.2688 54.6834 84.1316C53.9425 81.9945 51.6344 80.8974 49.5258 81.681C47.4171 82.4504 46.3058 84.8298 47.0467 86.9669Z" fill="#0E538C"/>
<path d="M39.7946 123.697L40.5498 129.724L37.2728 131.277L35.4634 131.676L38.6833 129.182L37.629 123.74L39.7946 123.697Z" fill="#FCBAA2"/>
<path d="M40.7635 130.636L40.0511 130.821L39.5667 130.379L36.9452 131.69L34.6228 132.246C34.6228 132.246 34.5943 132.06 34.6656 131.961C34.9505 131.576 36.589 130.735 36.589 130.735C36.589 130.735 36.6175 131.291 36.8454 131.305C37.0734 131.319 39.0823 130.265 39.5525 129.98C40.3503 129.482 40.5071 129.154 40.564 129.197C40.735 129.282 40.7635 130.636 40.7635 130.636Z" fill="#0E538C"/>
<path d="M31.8874 115.32L29.2801 120.449L25.6897 120.278L23.8945 119.751L27.8696 119.081L30.0352 114.693L31.8874 115.32Z" fill="#FCBAA2"/>
<path d="M29.0662 121.36L28.3538 121.19L28.1259 120.563L24.8917 120.52L22.9683 120.064C22.9683 120.064 23.1962 119.808 23.3387 119.736C23.7661 119.551 25.2906 119.466 25.2906 119.466C25.2906 119.466 25.1339 119.907 25.3334 120.021C25.5328 120.149 27.7554 120.221 28.2968 120.178C29.2372 120.107 29.5079 119.907 29.5364 119.964C29.6361 120.164 29.0662 121.36 29.0662 121.36Z" fill="#0E538C"/>
<path d="M50.9079 99.9749L48.9702 100.844L48.9845 103.508L35.6345 101.328C35.6345 101.328 34.3665 100.915 33.5544 103.01C32.4003 105.973 29.4653 115.191 29.4653 115.191L31.3175 117.2L37.1448 106.785C37.1448 106.785 49.0842 112.584 53.0165 111.33C54.5268 110.846 55.6808 108.082 55.4671 105.289C55.2961 103.095 54.8687 101.086 54.8687 101.086L50.9079 99.9749Z" fill="#FD8503"/>
<path d="M49.2125 111.273L39.6524 110.561L40.4788 125.834L37.6578 125.934L35.5776 108.039C35.5776 108.039 36.1333 105.375 37.957 105.774C39.7949 106.187 44.2117 109.692 49.2125 111.273Z" fill="#FD8503"/>
<path d="M55.6522 115.106C55.6522 115.106 50.6371 109.478 49.3405 106.301C47.7875 102.497 47.9158 97.7239 47.6308 96.1424C47.1037 93.2359 46.4625 87.5939 46.3485 86.8958C46.2203 86.1976 46.662 85.414 46.662 85.414C46.662 85.414 46.3343 83.3054 47.2746 83.5333C48.6282 83.861 49.9674 84.6019 50.4376 84.8299C51.3209 85.2288 53.1304 95.8575 53.2301 96.3704C53.6006 98.2226 54.9541 99.9038 55.9229 101.628C58.2025 105.717 58.7867 110.547 58.7867 110.547C58.7867 110.547 58.5017 114.08 55.6522 115.106Z" fill="#2A94F4"/>
<path d="M50.4807 100.388C50.4807 100.388 50.4379 101.072 47.2465 100.915C44.055 100.744 39.3818 99.6757 39.3818 99.6757L46.7763 99.3337C46.7763 99.3337 49.6116 99.348 50.4807 100.388Z" fill="#FFE3CA"/>
<path d="M41.8894 100.046C40.3649 100.018 39.7095 100.801 39.1112 101.043C38.5128 101.286 37.9001 101.642 37.9001 101.642C38.2421 100.972 38.7265 100.958 38.9829 100.744C39.2251 100.531 39.1681 100.645 38.6267 100.588C38.3133 100.559 37.7719 101.115 37.3872 101.428C37.0453 101.699 36.8315 101.713 36.8315 101.713C36.8315 101.713 37.2305 101.143 37.7291 100.687C38.3418 100.146 39.0827 99.69 39.2679 99.6187C39.5956 99.4905 40.6071 99.4762 41.3338 99.5902C42.1459 99.7042 42.9865 100.075 41.8894 100.046Z" fill="#FFE3CA"/>
<path d="M39.3391 99.6331C39.3391 99.6331 38.1708 99.918 37.9713 100.075C37.8289 100.189 37.2305 100.83 37.2305 100.83C37.2305 100.83 37.6579 100.759 37.9144 100.516C38.1708 100.288 39.3391 99.6331 39.3391 99.6331Z" fill="#FFE3CA"/>
<path d="M47.9302 99.633L52.6604 97.1396C52.6604 97.1396 52.6746 100.16 52.7031 101.314C52.7316 102.468 53.216 104.092 52.3042 104.335C51.3923 104.577 50.9222 104.449 51.8625 105.004C52.8028 105.546 52.5891 106.116 52.2329 106.586C51.8767 107.056 53.4297 111.843 53.0593 112.114C51.5918 110.262 50.0103 107.968 49.3264 106.301C48.4573 104.135 48.1154 101.656 47.9302 99.633Z" fill="#0E538C"/>
<path d="M49.4547 98.4219L49.2695 88.7906C49.2695 88.7906 49.2837 85.7843 49.3407 84.901C49.3977 83.9891 50.9507 85.0577 50.9507 85.0577C50.9507 85.0577 53.1306 88.0069 53.1733 95.1165C53.2018 99.8752 52.9453 102.354 50.7512 102.155C48.7138 101.97 46.3915 101.656 46.3915 101.656L45.3799 99.0203L49.4547 98.4219Z" fill="#2A94F4"/>
<path d="M48.97 103.508L32.6851 101.471L32.7278 101.129L49.0128 103.166L48.97 103.508Z" fill="#D3D3D3"/>
<path d="M41.8321 102.254C41.8036 102.525 41.5899 102.725 41.362 102.696L33.0129 101.656C32.7849 101.628 32.5 101.414 32.3005 100.702L29.0806 92.3667C29.1233 92.0248 29.394 91.8538 29.622 91.9393L38.1563 93.2785C38.3842 93.364 38.5409 93.5635 38.6264 93.9339L41.8321 102.254Z" fill="#D3D3D3"/>
<path d="M40.7777 102.483L40.8632 102.497L49.0128 103.523C48.6993 103.651 48.2007 103.694 47.645 103.622L40.8204 102.767L40.735 102.753L33.9104 101.898C33.3547 101.827 32.8846 101.656 32.5996 101.471L40.7777 102.483Z" fill="#D3D3D3"/>
<path d="M49.4547 98.422L49.2695 88.7907C49.2695 88.7907 49.412 87.9786 49.6969 87.252C49.7681 88.3063 50.2526 95.9002 50.3096 96.8975C50.3808 97.9804 51.2641 98.0943 51.4494 98.4505C51.6488 98.7925 51.4779 98.8637 50.8225 98.7355C50.1813 98.593 50.4093 98.707 50.5518 99.0489C50.6942 99.4051 50.338 99.3054 49.0843 98.8495C48.1724 98.5218 46.42 98.8495 45.5366 99.0489L49.4547 98.422Z" fill="#0E538C"/>
<path d="M105.761 74.7853C104.194 75.1985 101.302 76.6517 100.689 79.145C99.7772 82.8921 101.601 88.3774 98.7229 93.763C97.7968 95.4727 114.637 97.7808 114.637 97.7808L117.886 78.8601C117.886 78.8601 113.825 74.7568 112.999 74.4718C111.275 73.9019 108.896 73.9589 105.761 74.7853Z" fill="#CCE9FF"/>
<path d="M117.9 78.8744C118.484 80.3846 119.966 89.3749 118.313 91.4977C118.128 91.7399 119.168 92.1246 118.983 93.2359C118.954 93.4212 118.641 94.3188 118.641 94.3188L117.302 94.6749L114.381 91.2983C114.381 91.2983 115.563 89.4603 117.116 82.4933C117.572 80.4416 117.772 78.5325 117.9 78.8744Z" fill="#2A94F4"/>
<path d="M106.844 89.617C106.844 89.617 108.254 93.3356 111.659 94.3329C112.243 94.5039 112.614 95.1593 112.329 95.373C111.959 95.6437 111.474 95.7007 110.619 95.7007C108.838 95.7007 106.416 95.1308 104.749 93.4496C102.27 90.9705 101.487 89.8307 101.743 88.5911C101.971 87.3231 106.844 89.617 106.844 89.617Z" fill="#FCD2B1"/>
<path d="M101.173 77.8913C100.447 79.1166 100.033 81.0828 100.048 83.9038C100.048 86.0836 101.871 89.6598 102.142 90.7568C102.185 90.9421 102.299 91.7257 102.299 91.7257L104.308 93.7773L108.34 90.9421L107.115 88.9901L106.744 89.0329C106.744 89.0329 106.516 87.9501 106.573 87.5369C106.63 87.1237 105.462 81.4959 104.878 77.8913C104.55 75.7969 101.886 76.6803 101.173 77.8913Z" fill="#2A94F4"/>
<path d="M104.792 88.9474L105.975 88.577L106.459 88.4487C106.487 88.7907 106.772 89.0186 106.772 89.0186L105.846 89.1326L104.778 89.4746L103.524 90.3721L104.792 88.9474Z" fill="#0E538C"/>
<path d="M111.403 94.3188L113.455 93.7346C113.455 93.7346 114.039 94.5467 113.925 94.7462C113.811 94.9457 113.925 96.1424 113.925 96.1424L112.928 97.0258L112.116 96.7408C112.116 96.7408 112.059 96.3704 112.329 96.3419C112.614 96.2992 112.144 96.0997 112.002 96.0142C111.859 95.9145 110.677 95.2876 111.403 94.3188Z" fill="#FCD2B1"/>
<path d="M108.24 74.6C108.012 75.2696 108.354 76.0248 109.009 76.2527L110.178 76.6802C110.833 76.9224 111.545 76.5519 111.773 75.8823L112.813 72.8048C113.041 72.1352 112.7 71.3801 112.044 71.1379L110.876 70.7104C110.22 70.4682 109.508 70.8387 109.28 71.5083L108.24 74.6Z" fill="#FF957E"/>
<path d="M113.341 77.3071C113.227 77.7488 112.771 78.0195 112.343 77.8913L108.824 76.8797C108.397 76.7515 108.14 76.2956 108.254 75.8396L109.693 70.4398C109.807 69.9981 110.263 69.7274 110.69 69.8557L114.21 70.853C114.637 70.9812 114.893 71.4371 114.78 71.8931L113.341 77.3071Z" fill="#FCD2B1"/>
<path d="M115.164 71.3516C115.193 71.3231 114.837 70.9242 115.022 70.1405C115.264 69.0862 114.48 68.6588 113.896 68.6446C113.554 68.6303 112.4 69.186 111.788 69.3712C111.175 69.5564 111.232 69.3142 110.121 69.1147C109.38 68.9723 109.209 69.3854 108.952 69.9553C108.696 70.5395 108.667 72.7621 108.667 72.7621C108.767 72.9046 108.924 73.0186 109.024 72.9046C109.123 72.7906 109.522 71.0097 109.85 70.4825C110.163 69.9553 111.446 70.7959 112.144 71.2091C112.828 71.6223 113.44 71.6935 114.537 71.4656C114.666 71.608 114.78 71.7648 114.78 71.836C114.78 71.9785 114.466 72.9901 114.466 72.9901C114.466 72.9901 115.079 72.6054 115.25 72.3062C115.335 72.2064 115.364 71.722 115.164 71.3516Z" fill="#FD8503"/>
<path d="M109.365 74.7141C109.323 74.8566 109.18 74.9563 109.038 74.9136L108.283 74.6999C108.14 74.6571 108.055 74.5004 108.097 74.3579L108.482 72.9189C108.525 72.7764 108.667 72.6767 108.81 72.7195L109.565 72.9332C109.707 72.9759 109.793 73.1326 109.75 73.2751L109.365 74.7141Z" fill="#FCD2B1"/>
<path d="M108.895 73.3462C108.895 73.3462 108.325 75.4691 108.14 76.1815C107.969 76.8226 107.841 78.3043 111.332 79.3017C113.398 79.8858 113.74 78.2901 113.882 77.7772C113.982 77.3783 113.868 76.0817 113.711 75.7968C113.711 75.7825 113.483 76.6801 113.483 76.6801C113.483 76.6801 113.284 75.697 112.301 75.4263C110.719 74.9704 110.092 75.8395 109.408 75.6116C108.867 75.4263 108.71 74.4005 108.895 73.3462Z" fill="#FD8503"/>
<path d="M111.275 76.609L112.358 76.9225C112.5 76.9652 112.657 76.8797 112.685 76.723L112.728 76.5663L111.118 76.1104L111.075 76.2671C111.047 76.4238 111.132 76.5663 111.275 76.609Z" fill="#FCD2B1"/>
<path d="M128.443 98.1941C127.945 99.6331 119.168 104.919 116.219 104.605L107.343 105.047C99.8056 104.093 96.2295 91.9537 96.2295 91.9537C96.5287 88.9047 103.966 93.3214 106.616 94.6892C110.805 96.8548 113.469 96.9688 113.469 96.9688C116.276 97.268 119.524 95.0169 123.072 94.9456C126.961 94.8459 129.241 95.9287 128.443 98.1941Z" fill="#0B4870"/>
<path d="M109.152 96.7408C109.152 96.7265 109.152 96.7265 109.152 96.7408V96.3418L124.411 96.0569V96.4558L124.368 96.5271C124.183 96.869 123.827 96.926 123.428 96.9402L110.149 97.1967C109.75 97.2109 109.394 97.1539 109.195 96.8262L109.152 96.7408Z" fill="#D3D3D3"/>
<path d="M112.828 96.7265L112.785 96.7977C112.728 96.8832 112.657 96.9544 112.571 96.9972L110.249 97.0399C109.864 97.0542 109.522 97.0114 109.323 96.7407L109.28 96.6837L109.266 96.6695V96.4843L112.799 96.413L112.828 96.7265ZM114.893 96.584L122.516 96.4415V96.1708L114.879 96.3275L114.893 96.584ZM112.913 96.2563L114.751 88.4486C114.794 88.2492 114.993 88.0782 115.193 88.064L125.907 87.8645C126.106 87.8645 126.22 88.0212 126.177 88.2349L124.34 96.0426L112.913 96.2563Z" fill="#D3D3D3"/>
<path d="M106.003 107.056C107.057 107.241 107.87 105.973 107.87 105.973L110.605 103.75L110.021 102.24L104.692 104.719C104.692 104.719 104.935 106.871 106.003 107.056Z" fill="#FCD2B1"/>
<path d="M107.855 105.888C107.855 105.888 107.855 106.016 107.656 106.6C107.456 107.184 107.2 107.384 106.943 107.469C105.917 107.783 105.191 107.626 102.74 108.11C100.29 108.595 99.5488 108.224 98.8364 107.056C98.1241 105.888 98.8649 104.961 100.062 104.876C101.786 104.748 102.755 104.947 103.652 104.805C104.592 104.662 104.649 104.434 105.205 104.078C105.718 103.75 106.202 105.717 105.718 106.173C105.276 106.571 107.499 106.628 107.855 105.888Z" fill="#FD8503"/>
<path d="M107.342 107.013C106.331 107.327 105.59 107.17 103.139 107.654C100.689 108.139 99.9479 107.768 99.2355 106.6C98.9078 106.059 98.8936 105.574 99.0788 105.204C98.5374 105.589 98.3522 106.258 98.8366 107.056C99.549 108.224 100.29 108.595 102.74 108.11C105.191 107.626 105.932 107.783 106.943 107.469C107.143 107.412 107.342 107.27 107.513 106.942C107.456 106.971 107.399 106.999 107.342 107.013Z" fill="white"/>
<path d="M107.855 105.93V105.902C107.855 105.916 107.841 105.93 107.827 105.945C107.841 105.93 107.855 105.93 107.855 105.93Z" fill="#E9D6B8"/>
<path d="M102.57 106.8C102.498 106.828 102.427 106.671 102.399 106.458C102.356 106.016 102.256 105.588 102.114 105.147C102.043 104.933 102.043 104.748 102.128 104.719C102.214 104.691 102.356 104.848 102.413 105.061C102.555 105.489 102.641 105.93 102.684 106.358C102.712 106.572 102.641 106.771 102.57 106.8ZM103.325 106.657C103.239 106.671 103.168 106.529 103.14 106.329C103.097 105.916 102.997 105.503 102.855 105.104C102.783 104.905 102.783 104.734 102.883 104.719C102.969 104.705 103.111 104.862 103.182 105.061C103.311 105.46 103.41 105.873 103.453 106.272C103.467 106.472 103.41 106.643 103.325 106.657ZM104.123 106.629C104.037 106.643 103.952 106.486 103.923 106.272C103.852 105.845 103.752 105.432 103.596 105.004C103.524 104.791 103.524 104.62 103.61 104.62C103.71 104.62 103.852 104.776 103.923 104.99C104.08 105.403 104.18 105.831 104.237 106.244C104.265 106.443 104.208 106.614 104.123 106.629Z" fill="white"/>
<path d="M106.188 103.423C106.188 103.423 124.953 95.4299 126.021 95.4157C129.64 95.3872 128.814 99.177 126.976 100.972C124.81 103.081 108.34 106.942 108.34 106.942L106.188 103.423Z" fill="#0E538C"/>
<path d="M113.626 104.819L108.497 99.7754L110.691 97.5386L116.276 103.637L113.626 104.819Z" fill="#FCD2B1"/>
<path d="M114.68 100.858C114.68 100.858 101.644 88.4772 100.774 88.1067C97.7967 86.8529 95.9588 90.2581 96.0586 91.4406C96.201 92.9651 109.437 105.36 109.437 105.36L114.68 100.858Z" fill="#0E538C"/>
<path d="M122.402 105.204C122.702 105.489 122.759 106.358 122.759 106.358C122.759 106.358 118.413 108.068 116.889 108.096C116.49 108.11 115.777 107.939 115.093 107.74C114.979 107.711 114.709 107.398 114.595 107.369C114.381 107.313 114.338 107.512 114.167 107.455C113.711 107.298 113.369 107.17 113.355 107.142C112.429 105.118 112.742 104.121 112.742 104.121C112.742 104.121 114.737 104.719 114.395 104.249C113.669 103.252 115.763 102.24 116.219 102.768C118.1 104.89 121.519 104.363 122.402 105.204Z" fill="#FD8503"/>
<path d="M122.644 105.631C121.305 106.187 118.498 107.312 117.943 107.355C115.649 107.526 114.053 106.685 112.984 106.187C113.084 106.472 113.198 106.799 113.355 107.141C113.369 107.17 113.697 107.298 114.167 107.455C114.352 107.512 114.395 107.298 114.594 107.369C114.708 107.398 114.965 107.711 115.093 107.74C115.777 107.939 116.489 108.096 116.888 108.096C118.413 108.068 122.758 106.358 122.758 106.358C122.758 106.358 122.758 105.959 122.644 105.631ZM119.581 104.32C119.624 104.406 119.453 104.491 119.211 104.548C118.712 104.648 118.227 104.805 117.743 105.004C117.501 105.104 117.287 105.133 117.259 105.047C117.23 104.962 117.387 104.805 117.629 104.705C118.099 104.506 118.598 104.363 119.082 104.263C119.31 104.192 119.538 104.235 119.581 104.32ZM118.598 103.964C118.641 104.05 118.47 104.164 118.227 104.235C117.743 104.377 117.273 104.577 116.803 104.819C116.575 104.933 116.361 104.976 116.333 104.89C116.304 104.805 116.461 104.62 116.689 104.506C117.145 104.278 117.615 104.078 118.099 103.95C118.341 103.85 118.569 103.879 118.598 103.964ZM117.658 103.651C117.686 103.736 117.529 103.864 117.301 103.95C116.831 104.135 116.375 104.363 115.934 104.634C115.72 104.776 115.52 104.819 115.492 104.719C115.463 104.634 115.606 104.434 115.834 104.292C116.276 104.021 116.731 103.793 117.187 103.622C117.415 103.551 117.629 103.565 117.658 103.651Z" fill="white"/>
</svg>
