<svg width="161" height="134" viewBox="0 0 161 134" fill="none" xmlns="http://www.w3.org/2000/svg">
<g clip-path="url(#clip0_52_3222)">
<path opacity="0.37" d="M23.901 58.0898C22.9105 41.0963 32.9429 25.7305 46.3514 20.7335C54.9638 17.5239 66.0401 18.5398 73.9193 23.2239C85.8311 30.3056 81.4965 40.4573 92.5729 46.8097C103.678 53.1785 112.139 45.3274 125.093 51.4975C138.902 58.0745 142.332 73.2077 142.756 75.2297C146.018 90.7687 137.242 107.254 121.957 115.516C100.348 127.196 71.8552 119.13 63.5194 106.726C58.8939 99.8435 61.5053 93.1585 54.11 87.6818C47.1931 82.5594 40.6942 85.2866 34.631 80.6501C30.6627 77.6156 25.0565 71.8603 23.901 58.0898Z" fill="#FD8503"/>
</g>
<g clip-path="url(#clip1_52_3222)">
<path d="M93.3682 35.1938C93.3682 35.1938 91.9082 38.0871 87.2122 38.8644C82.5176 39.6418 84.7749 36.6404 84.7749 36.6404L85.4989 35.1978L86.1736 33.8538L90.3229 30.9058C90.3202 30.9311 90.3202 30.9551 90.3202 30.9804C90.3029 32.5698 93.3682 35.1938 93.3682 35.1938Z" fill="#FF9996"/>
<path d="M90.323 30.9058C90.3204 30.9311 90.3204 30.9551 90.3204 30.9804C89.9364 32.5778 88.9604 34.7284 86.475 35.2071C86.0657 35.2858 85.7444 35.2778 85.499 35.1978L86.1737 33.8538L90.323 30.9058Z" fill="black"/>
<path d="M76.8356 64.7371C76.8356 64.7371 60.2787 80.637 59.6846 81.4811L59.6774 81.4881L59.6788 81.4893C58.7285 82.843 58.1689 84.4909 58.1689 86.2704C58.1689 90.8728 61.8999 94.6037 66.5023 94.6037C68.8244 94.6037 70.9239 93.6531 72.4351 92.1207L72.4356 92.1212L94.1689 71.5371C96.4356 53.5371 76.8356 64.7371 76.8356 64.7371Z" fill="#112E5B"/>
<path d="M83.2356 36.3372L81.7266 64.8602L91.1711 64.7372L92.9446 34.5046L87.1814 37.3836L83.2356 36.3372Z" fill="#F2F2F2"/>
<path d="M86.173 64.8505L83.9023 62.1161L86.5959 39.804H87.4689L89.6831 62.2494L86.173 64.8505Z" fill="#F90065"/>
<path d="M52.7022 38.8705L50.522 36.2542C48.6786 34.0421 48.6146 30.8478 50.3681 28.5637L50.8077 27.991C51.2686 27.3906 51.2963 26.5635 50.8766 25.9336L48.3022 22.0705L56.7022 19.1372L59.446 27.2762C59.6667 27.9311 59.5617 28.652 59.1632 29.2166L57.001 32.2805C56.6006 32.8478 56.6805 33.6236 57.1881 34.0974L58.3022 35.1372C60.5689 37.2705 54.9689 41.5372 52.7022 38.8705ZM92.6948 29.6248C92.4511 29.1934 92.0088 28.9373 91.5176 28.8867C91.3377 26.7567 89.9697 25.4239 88.122 25.4065C86.1218 25.3877 84.3181 26.9168 84.2952 29.3615C84.2722 31.8061 84.5002 33.7902 86.5004 33.809C87.6204 33.8195 89.0584 33.2113 90.1114 32.2449C90.7543 32.2653 91.4878 32.0976 91.9434 31.8402C92.782 31.3665 93.1184 30.3746 92.6948 29.6248Z" fill="#FF9996"/>
<path d="M92.2048 30.9195C92.0065 30.4878 91.6759 30.1104 91.2739 29.8568L91.35 29.7363C91.7748 30.0045 92.1244 30.4036 92.3342 30.8602L92.2048 30.9195Z" fill="black"/>
<path d="M91.9543 30.374L91.6792 30.9914L91.9543 30.374Z" fill="white"/>
<path d="M91.7438 31.0203L91.6138 30.9624L91.889 30.345L92.019 30.4028L91.7438 31.0203Z" fill="black"/>
<path d="M88.071 29.21C88.0726 29.0356 87.9726 28.8933 87.8476 28.8922C87.7225 28.891 87.6198 29.0314 87.6182 29.2058C87.6166 29.3801 87.7166 29.5224 87.8416 29.5236C87.9667 29.5248 88.0693 29.3844 88.071 29.21Z" fill="black"/>
<path d="M85.7204 29.1121C85.722 28.9378 85.622 28.7954 85.497 28.7943C85.3719 28.7931 85.2693 28.9335 85.2676 29.1079C85.266 29.2822 85.366 29.4245 85.491 29.4257C85.6161 29.4269 85.7188 29.2865 85.7204 29.1121Z" fill="black"/>
<path d="M85.5382 30.7343L85.4888 30.6008C85.8704 30.4592 86.1866 30.1656 86.356 29.7954C86.5255 29.425 86.541 28.994 86.3985 28.6126L86.5319 28.5627C86.6875 28.9793 86.6705 29.4502 86.4854 29.8546C86.3004 30.259 85.9552 30.5796 85.5382 30.7343ZM86.4644 31.8178L86.4608 31.6754C87.0393 31.6605 87.6043 31.2792 87.8347 30.7484L87.9652 30.8051C87.7096 31.3941 87.1065 31.8011 86.4644 31.8178Z" fill="black"/>
<path d="M86.5299 33.8801C86.5197 33.8801 86.5097 33.8801 86.4995 33.88L86.5008 33.7377C86.5101 33.7377 86.5193 33.7378 86.5287 33.7378C87.6368 33.7378 89.0529 33.1194 90.0631 32.1923L90.0845 32.1727L90.1134 32.1736C90.7322 32.1933 91.4546 32.0344 91.9082 31.778C92.2986 31.5576 92.5886 31.2149 92.7248 30.813C92.8601 30.414 92.8274 30.0044 92.6326 29.6596C92.409 29.2638 91.9999 29.0078 91.5102 28.9574L91.4515 28.9514L91.4465 28.8926C91.2728 26.8354 89.9675 25.4949 88.1211 25.4775L88.1224 25.3352C90.0301 25.3531 91.3834 26.7198 91.5832 28.8227C92.0935 28.8918 92.519 29.169 92.7565 29.5896C92.9715 29.9702 93.0081 30.4209 92.8597 30.8588C92.7121 31.2938 92.3991 31.6643 91.9783 31.902C91.5112 32.1659 90.7771 32.331 90.138 32.3167C89.0897 33.2695 87.6801 33.8801 86.5299 33.8801Z" fill="black"/>
<path d="M110.302 64.737L92.5956 64.4785L83.902 86.737C83.502 88.0704 83.2354 89.0314 83.2354 90.2704C83.2354 93.7682 86.0709 96.6037 89.5687 96.6037C92.1066 96.6037 94.2947 95.1103 95.3051 92.955L107.724 77.7493C110.446 74.4167 111.486 70.0183 110.545 65.8195L110.302 64.737Z" fill="#112E5B"/>
<path d="M85.5942 38.5589L86.6298 39.8186H87.5028L88.8484 38.0793L87.1813 37.3835L85.5942 38.5589Z" fill="#F90065"/>
<path d="M85.3691 34.6038L87.1815 37.3835L85.1024 41.1371L83.5024 35.9371L85.3691 34.6038Z" fill="#F2F2F2"/>
<path d="M89.2089 41.1371L87.1812 37.3835L91.9021 33.5371L92.9444 34.5046L89.2089 41.1371Z" fill="#F2F2F2"/>
<path d="M92.6407 34.5193C91.5508 39.1705 87.242 59.1948 91.1712 69.7158C91.1712 69.7158 91.5194 72.4011 95.2357 69.8038C98.9519 67.2066 107.636 64.6038 110.836 66.2038L101.102 34.7372L95.4904 34.5088L93.8198 33.8875C93.3164 33.7002 92.7632 33.9964 92.6407 34.5193Z" fill="#FD8503"/>
<path d="M92.861 67.015C91.7417 60.0684 93.8374 45.2029 94.0039 44.0457L91.7534 43.718L94.5379 42.4452C94.1982 38.3521 94.6167 36.2271 94.7746 35.425C94.7886 35.3537 94.8006 35.2931 94.8097 35.2427L94.9498 35.2679C94.9405 35.3189 94.9285 35.3803 94.9142 35.4525C94.7568 36.2524 94.3383 38.3773 94.684 42.4831L94.6882 42.533L92.2519 43.6468L94.1654 43.9254L94.155 43.996C94.1317 44.1534 91.8459 59.8197 93.0016 66.9923L92.861 67.015Z" fill="black"/>
<path d="M95.1024 54.2039C95.1024 54.2039 90.3024 53.5372 88.3024 55.4039C88.3024 55.4039 84.1691 56.6911 82.5691 58.2039C80.9691 59.7166 77.1479 62.5922 77.1479 62.5922L83.7691 63.0039L88.4358 62.2039L95.6635 60.9887C100.302 60.6039 99.9024 53.5372 95.1024 54.2039Z" fill="#FF9996"/>
<path d="M100.651 91.2595C96.5693 89.6817 76.3191 81.8393 71.7689 79.8037L71.7647 79.8098C70.3297 78.6395 68.4983 77.937 66.5023 77.937C61.8999 77.937 58.1689 81.668 58.1689 86.2703C58.1689 90.3832 61.1493 93.7978 65.0676 94.4781C70.5235 96.3437 82.676 100.067 99.6356 99.6703C101.992 99.6703 103.902 97.7601 103.902 95.4037C103.902 93.3971 102.517 91.715 100.651 91.2595Z" fill="#112E5B"/>
<path d="M95.8928 90.2619C95.8903 86.7641 93.0527 83.9306 89.5549 83.9331C87.0865 83.9349 84.9504 85.3496 83.9069 87.4109L83.8908 87.4039L83.7815 87.6738C83.7136 87.8248 83.6507 87.9784 83.5946 88.1354L72.454 115.534C72.1074 116.201 71.912 116.952 71.9126 117.746C71.9146 120.507 74.2742 122.744 77.1829 122.742C79.1492 122.741 80.8619 121.716 81.7655 120.199L81.781 120.205L94.9055 93.6603C95.1445 93.2846 95.3461 92.8829 95.5025 92.459L95.5029 92.4583C95.7554 91.7739 95.8934 91.034 95.8928 90.2619Z" fill="#112E5B"/>
<path d="M84.1335 35.7338C83.8566 38.3709 82.0894 56.1888 83.7366 66.6434C83.8821 67.5667 82.964 68.2954 82.096 67.9488C79.7957 67.0302 76.1786 65.9181 74.4355 67.137L80.9689 36.337L82.8355 35.8037L83.8502 35.4993C84.0014 35.4539 84.15 35.5768 84.1335 35.7338Z" fill="#FD8503"/>
<path d="M81.6605 66.3734L80.2051 45.6007L81.6431 45.1998L80.3179 44.0998L83.1171 37.3101L83.2485 37.3643L80.4895 44.0573L81.9433 45.2639L80.3552 45.7067L81.8025 66.3635L81.6605 66.3734Z" fill="black"/>
<path d="M74.3687 64.7418L73.0389 64.8478C71.9925 64.9312 70.9561 64.5937 70.1596 63.91L69.0806 62.984L73.2944 62.8705L74.6225 63.6907C75.0902 63.9796 74.9168 64.6982 74.3687 64.7418ZM91.6572 61.6621L82.8302 64.9272C82.2279 65.15 81.5695 65.1713 80.9541 64.9879L77.6356 63.6705L81.6083 63.4663L89.1696 61.0059L91.6572 61.6621Z" fill="#FF9996"/>
<path d="M79.8355 65.0086L78.5057 65.1146C77.4593 65.198 76.4229 64.8604 75.6264 64.1768L74.5474 63.2507L78.7612 63.1372L80.0893 63.9575C80.557 64.2464 80.3836 64.9649 79.8355 65.0086Z" fill="#FF9996"/>
<path d="M77.0352 64.7417L75.7054 64.8477C74.659 64.9311 73.6226 64.5936 72.8261 63.9099L71.7471 62.9839L75.9609 62.8704L77.289 63.6906C77.7568 63.9795 77.5833 64.6981 77.0352 64.7417Z" fill="#FF9996"/>
<path d="M72.7318 64.9313C71.7787 64.9313 70.839 64.5871 70.1131 63.9641L68.894 62.9178L71.7433 62.8411L71.747 62.9834L69.2668 63.0502L70.2058 63.856C70.9825 64.5226 72.0127 64.8584 73.0331 64.7769L74.3629 64.6709L74.3743 64.8129L73.0444 64.9189C72.9403 64.9271 72.8359 64.9313 72.7318 64.9313Z" fill="black"/>
<path d="M84.3201 63.1394L68.7954 64.1147L76.9479 57.2665L92.4726 56.291L84.3201 63.1394Z" fill="#B7B7B7"/>
<path d="M81.7997 65.1816C81.5074 65.1816 81.2149 65.14 80.9339 65.0562L77.6094 63.7366L77.6618 63.6043L80.9804 64.9218C81.5714 65.0975 82.2214 65.0764 82.8055 64.8605L88.4398 62.7764L88.4893 62.9098L82.8549 64.9939C82.5172 65.1189 82.1585 65.1816 81.7997 65.1816Z" fill="black"/>
<path d="M78.1987 65.1978C77.2456 65.1978 76.3059 64.8536 75.58 64.2306L74.501 63.3046L74.5937 63.1965L75.6727 64.1226C76.4494 64.7892 77.4807 65.1252 78.5 65.0435L79.8298 64.9375C79.998 64.9241 80.136 64.8387 80.2185 64.6971L80.3415 64.7687C80.2365 64.9491 80.054 65.0624 79.8411 65.0794L78.5113 65.1854C78.4072 65.1937 78.3028 65.1978 78.1987 65.1978Z" fill="black"/>
<path d="M75.3984 64.9312C74.4453 64.9312 73.5056 64.587 72.7797 63.964L71.7007 63.038L71.7934 62.9299L72.8724 63.856C73.649 64.5225 74.6787 64.8583 75.6997 64.7769L76.5675 64.7077L76.5788 64.8496L75.711 64.9188C75.6069 64.9271 75.5025 64.9312 75.3984 64.9312Z" fill="black"/>
<path d="M84.0658 62.6466L70.0625 63.5986L75.0988 59.4758L89.102 58.5239L84.0658 62.6466Z" fill="#B8C2D8"/>
<path d="M83.6318 58.6722L78.4707 58.9087L80.2695 57.4033L85.4306 57.1667L83.6318 58.6722Z" fill="#B8C2D8"/>
<path d="M81.1725 57.4082L81.165 57.2659L83.6984 57.1326L83.706 57.2748L81.1725 57.4082Z" fill="black"/>
<path d="M84.1477 62.7253L84.0571 62.6154L88.5905 58.8821L88.681 58.9919L84.1477 62.7253Z" fill="black"/>
<path d="M84.3603 63.1221L68.7791 64.1169L61.9023 53.5373L62.0357 53.2706L77.2923 52.2551L84.3603 63.1221Z" fill="#E5E5E5"/>
<path d="M84.5689 63.5373L68.8452 64.5924L68.7905 64.1118L84.3601 63.1174L84.5689 63.5373Z" fill="#4F4F4F"/>
<path d="M84.3599 63.1173L92.4725 56.291L92.5687 56.8705L84.5687 63.5371L84.3599 63.1173Z" fill="#4F4F4F"/>
<path d="M90.1353 30.1721C90.0794 30.2486 89.9554 30.2034 89.9644 30.1091C90.0058 29.6743 89.9278 29.235 90.1687 28.8705C90.3608 28.5797 90.599 27.9876 90.302 27.6705C90.0775 27.4307 89.5849 27.5232 89.102 27.5371C87.6667 27.5787 84.9955 27.611 83.902 26.2038C83.5672 25.7729 83.2319 24.7583 83.231 24.2125C83.23 23.6667 83.361 23.1304 83.4912 22.6003C84.6075 23.4403 85.9256 24.01 87.3023 24.2478C88.1916 24.4013 89.1218 24.4236 89.9435 24.7968C90.7652 25.17 91.4616 26.0442 91.2525 26.9221C91.8762 26.7573 92.5939 27.0836 92.8798 27.6619C93.1601 28.2288 92.4354 29.2705 92.4354 29.2705C92.0604 29.0205 91.5736 28.8612 91.102 29.1371C90.7022 29.371 90.4174 29.7858 90.1353 30.1721ZM102.969 114.204C102.969 114.204 104.969 114.604 105.635 113.404L110.569 94.0705C110.569 93.1371 110.555 92.7575 109.441 92.5226C109.302 92.4934 109.154 92.4652 108.995 92.4381C108.995 92.4381 106.169 107.815 102.969 114.204Z" fill="black"/>
<path d="M90.169 54.4705C90.169 54.4705 86.3948 55.7768 84.5165 56.4244C82.8356 57.0038 84.4184 57.7542 85.769 58.0705C87.1548 58.395 90.7711 56.5061 90.7711 56.5061L90.169 54.4705Z" fill="#FF9996"/>
<path d="M58.2896 114.918C58.2896 114.918 59.1023 112.337 66.969 114.87C68.7963 115.459 72.1586 116.036 72.169 116.07C73.4653 120.385 78.2564 120.606 80.7023 119.804C81.4284 119.566 81.769 120.204 81.769 120.204L80.4357 125.67C72.3448 124.258 64.7176 121.099 58.2896 114.918Z" fill="#56576B"/>
<path d="M58.0478 117.312C57.3689 115.404 58.9689 112.604 61.5783 115.075C63.3442 116.747 65.1568 118.352 67.0846 119.831C70.2216 122.238 74.216 123.275 78.1494 123.82C78.7867 123.908 79.4637 124 79.9585 124.407C80.4534 124.814 80.5718 125.573 80.1689 126.07C77.9022 128.87 72.1689 126.204 71.2588 125.702C67.9223 123.862 66.7022 123.404 63.2557 122.038C61.2013 121.224 58.8518 119.573 58.0478 117.312Z" fill="black"/>
<path d="M98.8354 99.6705C98.8354 99.6705 101.502 110.071 101.635 112.071C101.739 113.628 102.435 114.637 103.902 114.071C105.146 113.59 108.406 98.4301 109.366 93.8437C109.515 93.1301 109.713 92.5683 108.996 92.4382L100.569 91.2705C100.569 91.2705 104.835 95.6705 98.8354 99.6705Z" fill="#56576B"/>
<path d="M80.9688 36.3372C80.9688 36.3372 63.6355 43.0038 61.2894 45.3777C59.145 47.5475 61.8064 51.3921 64.6485 52.3638C66.3239 52.9366 68.0899 52.6317 69.46 51.694L80.0355 46.4705L80.9688 36.3372Z" fill="#FD8503"/>
<path d="M50.0356 37.4038L57.2116 33.3018L58.9838 35.3527L52.4356 40.2038L50.0356 37.4038Z" fill="#F2F2F2"/>
<path d="M68.2224 41.9104C67.9633 41.8218 58.9835 34.5046 58.9835 34.5046L51.1021 39.8037L62.2138 50.663C62.8305 51.4239 63.6578 52.025 64.6483 52.3637C67.4904 53.3354 70.5945 51.7831 71.5814 48.8965C72.5684 46.0099 71.0645 42.8821 68.2224 41.9104Z" fill="#FD8503"/>
<path d="M68.1998 41.978C68.1524 41.9618 68.0082 41.9125 62.4839 37.439L62.5735 37.3284C67.3151 41.168 68.1642 41.8058 68.2483 41.8442L68.1998 41.978Z" fill="black"/>
<path d="M97.2356 42.4704C97.3689 42.6037 94.3023 36.4704 98.7023 35.137C103.102 33.8037 104.569 35.2704 106.436 38.2037C108.302 41.137 115.584 52.9392 115.584 52.9392C115.584 52.9392 118.302 57.937 112.569 59.537C107.365 60.9893 105.369 55.537 105.369 55.537L97.2356 42.4704Z" fill="#FD8503"/>
<path d="M104.231 53.8442L97.1753 42.5082L97.2962 42.4329L104.352 53.7689L104.231 53.8442Z" fill="black"/>
<path d="M92.5688 53.6705L94.4355 61.6705L98.1688 60.8705L95.4011 53.1748L92.5688 53.6705Z" fill="#F2F2F2"/>
<path d="M94.3516 53.3528L96.0358 61.6704L111.958 59.6159C112.444 59.5532 112.915 59.4013 113.343 59.1626C114.574 58.4765 116.746 56.841 115.769 54.2038C114.436 50.6038 112.102 50.5089 110.135 50.7563C108.169 51.0038 94.3516 53.3528 94.3516 53.3528Z" fill="#FD8503"/>
<path d="M85.0836 41.318L83.897 37.4612L84.033 37.4194L85.1214 40.9563L87.0983 37.3866L85.7343 35.2943L85.8535 35.2166L87.2644 37.3806L85.0836 41.318Z" fill="black"/>
<path d="M89.2077 41.2843L87.1187 37.4173L87.2439 37.3496L89.2103 40.9896L91.1091 37.6183L91.2331 37.6883L89.2077 41.2843Z" fill="black"/>
<path d="M94.3632 53.423L94.3518 53.3556L94.2828 53.3732L94.2673 53.3006L94.3393 53.2827L95.3885 53.1047C97.9011 52.6791 104.131 51.6274 107.721 51.0521L107.743 51.1928C104.154 51.7678 97.9247 52.8195 95.4129 53.245L94.3632 53.423ZM65.3854 43.0276L65.3228 42.8997C71.1232 40.0547 80.8457 36.3083 80.9433 36.2708L80.9943 36.4036C80.8968 36.4411 71.1802 40.1854 65.3854 43.0276ZM86.1368 58.179C85.9965 58.179 85.8674 58.1667 85.7526 58.1398C84.8302 57.9238 83.7441 57.4981 83.7191 57.0092C83.7061 56.7544 83.9593 56.5411 84.4931 56.3571C85.1833 56.1192 86.1294 55.7924 87.0501 55.4741L87.0967 55.6086C86.1757 55.9269 85.2297 56.2538 84.5394 56.4917C84.0867 56.6478 83.8523 56.8242 83.8613 57.0019C83.8799 57.3666 84.8432 57.7806 85.7851 58.0012C87.1299 58.3172 90.702 56.462 90.738 56.4431L90.8039 56.5693C90.6675 56.6405 87.7024 58.179 86.1368 58.179Z" fill="black"/>
<path d="M77.8306 51.4755L77.6914 51.4459L80.3339 38.9878L80.4733 39.0174L77.8306 51.4755Z" fill="black"/>
<path d="M99.3781 61.341L99.3599 61.1998L112.614 59.4895L112.632 59.6307L99.3781 61.341Z" fill="black"/>
<path d="M81.9018 92.4294L81.769 92.378L89.6357 71.978L89.7685 72.0294L81.9018 92.4294Z" fill="black"/>
<path d="M83.8092 84.7365L73.4092 80.6032L73.4617 80.4709L83.8618 84.6043L83.8092 84.7365Z" fill="black"/>
<path d="M73.6559 59.8344C74.1528 59.3993 74.0979 58.524 73.5333 57.8794C72.9688 57.2348 72.1084 57.065 71.6115 57.5002C71.1147 57.9353 71.1696 58.8106 71.7341 59.4552C72.2987 60.0998 73.1591 60.2696 73.6559 59.8344Z" fill="white"/>
<path d="M82.576 60.4429L77.2427 52.3096L77.3616 52.2314L82.6951 60.3648L82.576 60.4429Z" fill="black"/>
<path d="M49.477 29.431L39.3804 19.3785L53.7781 6.07715L63.8748 16.1297L49.477 29.431Z" fill="#FFCC83"/>
<path d="M49.4754 29.5081L39.2998 19.377L53.7794 6L63.955 16.1311L49.4754 29.5081ZM39.4606 19.3799L49.4783 29.3539L63.7942 16.1281L53.7766 6.15417L39.4606 19.3799Z" fill="black"/>
<path d="M60.8058 13.9234L56.2219 9.35953C55.9884 9.12702 55.9831 8.64724 56.2117 8.43602L56.3994 8.26266C56.5328 8.13937 56.7103 8.14755 56.8466 8.28327L61.4305 12.8472C61.664 13.0797 61.6693 13.5595 61.4407 13.7707L61.253 13.944C61.1196 14.0673 60.9421 14.0591 60.8058 13.9234Z" fill="black"/>
<path d="M49.6987 28.226L40.644 19.2108L53.556 7.28198L62.6107 16.2972L49.6987 28.226Z" fill="white"/>
<path d="M49.6972 28.2951L40.5718 19.2094L53.5571 7.21289L62.6826 16.2986L49.6972 28.2951ZM40.7159 19.2122L49.6998 28.1568L62.5385 16.2958L53.5545 7.35117L40.7159 19.2122Z" fill="black"/>
<path d="M52.1719 19.4005L51.8717 17.731L48.4159 19.309L48.0415 16.8117L45.1721 17.9757L45.0737 17.7331L48.2509 16.4443L48.6231 18.9266L52.0696 17.3529L52.3772 19.0639L57.1197 17.611L57.8184 18.9053L57.588 19.0295L56.9913 17.9239L52.1719 19.4005Z" fill="#F90065"/>
<path d="M51.4934 25.6621L43.8306 18.0328L43.8643 18.0017L51.6558 10.8035L51.7155 10.868L43.9576 18.0352L51.5554 25.5997L51.4934 25.6621Z" fill="black"/>
<path d="M51.5022 27.5372L50.3736 23.228C50.1617 22.4191 50.3583 21.5578 50.9002 20.9209C51.1759 20.5969 51.6955 20.6698 51.8701 21.0577C52.6262 22.7374 54.3777 26.3372 55.5022 26.3372L51.5022 27.5372Z" fill="#FF9996"/>
<path d="M55.5024 26.4082C54.3699 26.4082 52.7001 23.0742 51.8055 21.0869C51.7337 20.9273 51.5873 20.8174 51.414 20.7928C51.2401 20.768 51.0684 20.8332 50.9547 20.9669C50.4283 21.5855 50.2369 22.4241 50.4427 23.2099L51.0747 25.6229L50.9369 25.659L50.305 23.246C50.0874 22.4152 50.2897 21.5287 50.8462 20.8746C50.9919 20.7036 51.2119 20.6203 51.4339 20.6518C51.6559 20.6833 51.8434 20.8241 51.9353 21.0284C54.0632 25.7555 55.1388 26.2659 55.5024 26.2659V26.4082Z" fill="black"/>
</g>
<g clip-path="url(#clip2_52_3222)">
<path d="M137.647 26.9705C135.944 22.1712 130.672 19.6616 125.873 21.3651C121.074 23.0685 118.564 28.34 120.268 33.1393C121.105 35.4996 122.807 37.3043 124.89 38.3282L124.889 38.3284C124.889 38.3284 124.896 38.3315 124.906 38.3361C124.951 38.3584 124.997 38.3809 125.043 38.4025C125.588 38.6746 127.431 39.6754 127.898 40.9905L136.65 37.884C136.242 36.7336 136.803 35.106 137.118 34.3446C138.272 32.1474 138.543 29.494 137.647 26.9705Z" fill="#F2F2F2"/>
<path d="M130.709 40.7045C129.635 39.4121 128.431 38.2154 127.129 37.1477C126.574 36.6922 126.121 36.3496 125.721 36.0473C124.804 35.3534 124.251 34.9345 123.701 34.0735C122.381 32.0032 122.423 29.6395 123.798 28.6924C124.381 28.2909 125.296 28.2206 126.213 28.5C126.551 27.6445 127.174 26.9701 127.932 26.6408C128.662 26.3238 129.574 26.3068 130.436 26.5832C130.821 25.8919 131.384 25.3684 131.903 25.2315C132.608 25.0447 133.535 25.296 134.263 25.8717C135.122 26.5511 135.579 27.5622 135.548 28.7189C135.501 30.5384 135.341 31.3625 134.992 33.168C134.93 33.489 134.862 33.8408 134.787 34.2347C134.301 36.8033 134.539 38.1053 134.825 39.2187L134.648 39.264C134.357 38.1307 134.115 36.8063 134.608 34.2007C134.682 33.8066 134.75 33.4544 134.813 33.1332C135.16 31.3379 135.319 30.5185 135.366 28.7142C135.395 27.6164 134.963 26.6578 134.15 26.015C133.475 25.482 132.591 25.238 131.95 25.4079C131.483 25.5319 130.972 26.0082 130.612 26.6436C130.685 26.6707 130.757 26.6999 130.829 26.7312C131.521 27.0317 132.013 27.4732 132.179 27.9425C132.429 28.6459 132.337 29.5336 131.752 29.741C130.996 30.0094 130.285 29.1023 130.116 28.6788C129.91 28.1641 129.996 27.4611 130.35 26.7473C129.538 26.4942 128.688 26.5127 128.005 26.8082C127.294 27.1171 126.708 27.7512 126.387 28.5571C127.25 28.8617 127.875 29.3953 128.062 29.9888C128.247 30.5775 128.058 31.4396 127.575 31.6111C127.574 31.6115 127.573 31.612 127.572 31.6124C127.116 31.7702 126.457 31.2436 126.172 30.6674C125.91 30.1381 125.903 29.3974 126.15 28.6716C125.288 28.4114 124.437 28.4738 123.902 28.8427C122.608 29.7338 122.588 31.9883 123.855 33.9753C124.387 34.8087 124.931 35.2201 125.832 35.9017C126.232 36.205 126.687 36.5488 127.245 37.0066C128.556 38.0816 129.768 39.2865 130.849 40.5878L130.709 40.7045ZM126.324 28.7283C126.091 29.4096 126.095 30.0994 126.336 30.5866C126.577 31.0741 127.155 31.5633 127.512 31.4399L127.514 31.439C127.863 31.3153 128.058 30.5867 127.888 30.0436C127.72 29.5122 127.123 29.0099 126.324 28.7283ZM130.525 26.8063C130.524 26.8077 130.523 26.8091 130.522 26.8105C130.189 27.4742 130.1 28.1473 130.285 28.611C130.43 28.9742 131.061 29.7925 131.691 29.569C132.154 29.4046 132.228 28.6269 132.007 28.0036C131.86 27.588 131.392 27.1749 130.757 26.8987C130.68 26.8653 130.603 26.8345 130.525 26.8063Z" fill="#F90065"/>
<path d="M136.674 37.8758L137.132 39.1658C137.142 39.1943 137.153 39.2238 137.162 39.2528C137.962 41.6521 136.697 44.2609 134.302 45.1109C131.906 45.9612 129.28 44.7337 128.388 42.3672C128.376 42.339 128.366 42.3094 128.356 42.2809L127.898 40.991L136.674 37.8758Z" fill="#FFCC83"/>
<path d="M137.102 39.0802L137.132 39.1658C137.142 39.1944 137.153 39.2239 137.162 39.2528L128.387 42.3673C128.376 42.3391 128.366 42.3095 128.356 42.281L128.325 42.1953L137.102 39.0802Z" fill="#112E5B"/>
<path d="M134.332 45.1976C132.843 45.726 131.195 45.4808 129.922 44.5419L130.03 44.395C131.254 45.2979 132.839 45.5336 134.271 45.0255C135.187 44.7004 135.96 44.1061 136.508 43.3066L136.659 43.4099C136.089 44.2413 135.284 44.8595 134.332 45.1976Z" fill="black"/>
<path d="M136.619 37.7982L129.661 40.2681L129.722 40.4401L136.68 37.9702L136.619 37.7982Z" fill="black"/>
<path d="M125.004 38.4852C124.967 38.4678 124.93 38.4498 124.894 38.4318L124.851 38.4114L124.593 38.2931L124.612 38.2893C122.537 37.1959 120.968 35.3871 120.181 33.1699C119.937 32.4814 119.774 31.7673 119.696 31.0474L119.877 31.0278C119.954 31.7336 120.114 32.4337 120.353 33.1088C121.154 35.3647 122.78 37.1893 124.93 38.2463L125.032 38.296C125.048 38.3041 125.065 38.3121 125.081 38.3199L125.081 38.3204L125.174 38.366L125.048 38.3905L125.004 38.4852ZM134.384 22.7122C131.936 20.9065 128.766 20.4351 125.903 21.4511L125.842 21.2791C128.762 20.2427 131.996 20.7235 134.493 22.5653L134.384 22.7122Z" fill="black"/>
<path d="M136.23 26.6423C135.993 26.1346 135.705 25.6501 135.374 25.2022L135.521 25.0938C135.859 25.5514 136.153 26.0464 136.395 26.565L136.23 26.6423ZM137.212 30.1917L137.029 30.1924C137.026 29.2439 136.861 28.3046 136.54 27.4003L136.712 27.3392C137.04 28.263 137.208 29.2227 137.212 30.1917ZM120.937 29.2533L120.755 29.2379C120.805 28.6447 120.918 28.0557 121.09 27.4872L121.265 27.5402C121.096 28.0964 120.986 28.6728 120.937 29.2533ZM121.638 26.5463L121.471 26.4713C121.982 25.3374 122.749 24.3235 123.689 23.5393L123.806 23.6795C122.887 24.4462 122.137 25.4375 121.638 26.5463Z" fill="white"/>
</g>
<g clip-path="url(#clip3_52_3222)">
<path d="M138.025 83.2228L136.96 83.1236C136.699 83.0993 136.507 82.8682 136.532 82.6074L136.931 78.3265C136.955 78.0657 137.186 77.874 137.447 77.8983L138.512 77.9976C138.773 78.0219 138.965 78.253 138.94 78.5138L138.541 82.7946C138.517 83.0554 138.286 83.2471 138.025 83.2228Z" fill="#112E5B"/>
<path d="M135.753 79.5235C135.669 79.4628 135.618 79.3602 135.628 79.2492C135.644 79.0827 135.791 78.9602 135.958 78.9757L139.776 79.3316C139.943 79.3471 140.065 79.4947 140.05 79.6611C140.034 79.8276 139.886 79.95 139.72 79.9345L135.902 79.5787C135.846 79.5735 135.796 79.5537 135.753 79.5235Z" fill="#FFCC83"/>
<path d="M144.279 82.5194L143.459 81.9314L141.577 84.556L142.398 85.1441L144.279 82.5194Z" fill="#B8C2D8"/>
<path d="M145.583 82.461L143.095 80.6773C142.922 80.5528 142.68 80.5927 142.555 80.7663L142.183 81.2859C142.058 81.4595 142.098 81.7011 142.272 81.8256L144.76 83.6093C144.934 83.7338 145.175 83.6939 145.3 83.5203L145.672 83.0007C145.797 82.8271 145.757 82.5854 145.583 82.461Z" fill="#112E5B"/>
<path d="M130.292 104.281C135.592 108.081 142.969 106.865 146.768 101.565C150.568 96.2646 149.352 88.8879 144.052 85.0883C138.752 81.2887 131.375 82.505 127.575 87.805C123.776 93.105 124.992 100.482 130.292 104.281Z" fill="#F2F2F2"/>
<path d="M129.998 104.691C124.48 100.736 123.209 93.0286 127.165 87.511C131.121 81.9933 138.828 80.7225 144.345 84.6782C149.863 88.6338 151.134 96.3408 147.178 101.859C143.223 107.376 135.516 108.647 129.998 104.691ZM143.757 85.4984C138.692 81.867 131.617 83.0336 127.985 88.099C124.354 93.1643 125.521 100.24 130.586 103.871C135.651 107.502 142.727 106.336 146.358 101.271C149.989 96.2051 148.823 89.1298 143.757 85.4984Z" fill="#B8C2D8"/>
<path d="M136.599 96.3406L136.508 96.1605L144.668 92.0323L144.759 92.2123L136.599 96.3406Z" fill="#FFCC83"/>
<path d="M138.162 94.7129C138.38 95.5665 137.864 96.4354 137.011 96.6535C136.157 96.8716 135.288 96.3564 135.07 95.5027C134.852 94.649 134.398 88.2318 134.831 88.1212C135.264 88.0106 137.943 93.8592 138.162 94.7129Z" fill="#F90065"/>
<path d="M133.946 84.9682L133.892 84.7737C136.299 84.1091 138.892 84.2744 141.195 85.2394C143.498 86.2044 145.435 87.9371 146.649 90.119L146.472 90.2171C145.28 88.0747 143.378 86.373 141.117 85.4255C138.856 84.478 136.309 84.3156 133.946 84.9682Z" fill="#112E5B"/>
<path d="M134.535 86.0569L134.484 85.8616C136.519 85.3284 138.721 85.4512 140.685 86.2077C142.648 86.9641 144.364 88.3507 145.515 90.1116L145.346 90.2221C144.217 88.4962 142.536 87.1373 140.612 86.396C138.688 85.6547 136.53 85.5342 134.535 86.0569Z" fill="#112E5B"/>
<path d="M135.011 86.821L134.986 86.6208C138.444 86.1817 142.019 87.7089 144.092 90.5118L143.93 90.6317C141.9 87.8873 138.398 86.3911 135.011 86.821Z" fill="#112E5B"/>
<path d="M126.707 101.361C125.499 99.4626 124.828 97.2641 124.767 95.0032L124.969 94.9978C125.029 97.2222 125.689 99.3851 126.877 101.253L126.707 101.361ZM130.527 103.953L130.645 103.789C135.665 107.388 142.677 106.232 146.276 101.212L146.44 101.329C142.776 106.44 135.638 107.617 130.527 103.953ZM149.316 93.4579C148.961 89.9674 147.128 86.7972 144.287 84.7601L144.404 84.5961C147.293 86.6669 149.156 89.8894 149.517 93.4376L149.316 93.4579Z" fill="black"/>
</g>
<g clip-path="url(#clip4_52_3222)">
<path d="M43.2556 63.01C43.7643 64.9998 43.6502 67.0031 43.0349 68.8149C43.0053 68.903 42.9751 68.9889 42.9428 69.0755C42.0705 71.4378 40.3379 73.4461 38.0273 74.6303C37.9157 74.6871 37.8036 74.7418 37.6884 74.793C37.1196 75.0601 36.5185 75.2769 35.8878 75.4381C35.0266 75.6582 34.1617 75.7619 33.3126 75.7572C33.2431 75.7575 33.1736 75.7579 33.1036 75.7562C32.0751 75.73 31.0677 75.5484 30.1137 75.2269L30.1116 75.2274C30.0139 75.1937 29.9135 75.1585 29.8173 75.1222L29.8153 75.1228C26.7772 73.997 24.3227 71.4458 23.4598 68.0703C23.4421 68.0009 23.4243 67.9315 23.4107 67.8611C23.3862 67.7652 23.3652 67.6662 23.3448 67.5692C22.6398 64.1055 23.7885 60.655 26.1476 58.2996C26.203 58.2441 26.2589 58.1907 26.3148 58.1373L26.3168 58.1367C27.5404 56.9695 29.0725 56.0909 30.8276 55.6422C31.5603 55.455 32.2949 55.352 33.0212 55.3272C33.1551 55.3234 33.2869 55.3202 33.4177 55.3215L33.4197 55.321C33.6593 55.3228 33.8944 55.3323 34.1315 55.3499L34.3406 55.3682C34.8599 55.4181 35.3723 55.5089 35.8721 55.6355L36.3812 55.7815C36.3812 55.7815 36.3858 55.7825 36.3863 55.7845C38.0883 56.3104 39.6266 57.2761 40.8438 58.5847L40.9985 58.756C42.048 59.9357 42.8378 61.3753 43.2556 63.01Z" fill="#FFCC83"/>
<path d="M39.865 80.4003L39.6608 80.4525L38.6895 76.6527L38.7668 76.6151C43.9929 74.0701 46.7396 68.1288 45.2977 62.488C44.0256 57.5116 39.7571 53.8234 34.6579 53.2825L34.3105 55.3674L33.178 77.9011C33.5029 77.8965 34.5082 77.8646 35.6436 77.6492L35.7409 77.6308L36.6584 81.22L36.4542 81.2722L35.5856 77.8742C34.2284 78.1211 33.0778 78.1125 33.0661 78.1124L32.9565 78.1113L32.9619 78.0018L34.1018 55.3387L34.4826 53.0532L34.5805 53.0628C39.8108 53.5753 44.1997 57.342 45.5018 62.4359C46.9613 68.1454 44.2019 74.1575 38.9361 76.7667L39.865 80.4003Z" fill="#FFCC83"/>
<path d="M33.4179 55.3215C31.7163 56.4044 30.367 57.6668 29.3809 59.0994C29.3348 59.1655 29.2907 59.2312 29.2471 59.2988C28.4934 60.4416 27.9692 61.6909 27.6744 63.0382C27.1676 65.3506 27.4093 67.6912 27.929 69.7499C27.9479 69.8321 27.9703 69.9112 27.9926 69.9902C28.5838 72.2177 29.4923 74.0965 30.1119 75.2274C30.0141 75.1937 29.9138 75.1585 29.8176 75.1222L29.8155 75.1227C29.1829 73.9408 28.3174 72.0857 27.7537 69.9144C27.7333 69.8348 27.713 69.7552 27.6947 69.675C27.1862 67.6178 26.9639 65.2939 27.4673 62.9933C27.7621 61.6461 28.2837 60.3952 29.0276 59.2484C29.0712 59.1807 29.1153 59.1151 29.1594 59.0495C30.11 57.6477 31.4005 56.4024 33.0215 55.3271C33.1554 55.3234 33.2871 55.3201 33.4179 55.3215ZM40.7284 63.0821C41.1153 65.4205 40.7684 67.7463 40.1502 69.785C40.1272 69.8648 40.1021 69.9451 40.0764 70.0235C39.4875 71.8872 38.6806 73.4937 38.0276 74.6303C37.916 74.687 37.8039 74.7418 37.6887 74.793C38.3449 73.686 39.2068 72.0307 39.8341 70.0876C39.8597 70.0093 39.8854 69.931 39.9105 69.8506C40.5449 67.8078 40.9101 65.4685 40.5196 63.1159C40.2922 61.7413 39.824 60.4543 39.1173 59.263C39.0797 59.2009 39.0415 59.1367 39.0014 59.0731C38.2258 57.8168 37.1801 56.6687 35.8724 55.6355L36.3815 55.7814C36.3815 55.7814 36.3861 55.7824 36.3866 55.7845C37.5577 56.7679 38.5034 57.848 39.2192 59.0239L39.2213 59.0234C39.2589 59.0855 39.2971 59.1497 39.3332 59.2144C40.0343 60.4092 40.4994 61.7014 40.7284 63.0821ZM34.3408 55.3682L34.1268 59.6256L34.1167 59.8412L33.5705 70.6581L33.5594 70.8697L33.3129 75.7571C33.2434 75.7575 33.1739 75.7579 33.1039 75.7562L33.3514 70.8641L33.3605 70.6531L33.9057 59.8408L33.9158 59.6251L33.9178 59.6246L34.1318 55.3499L34.3408 55.3682Z" fill="#F2F2F2"/>
<path d="M40.844 58.5846C40.2942 58.7556 39.7529 58.9005 39.2212 59.0233L39.2192 59.0239C39.1457 59.0426 39.0738 59.0589 39.0013 59.073C37.2541 59.4675 35.6195 59.6222 34.1267 59.6255C34.0573 59.6259 33.9878 59.6263 33.9178 59.6246L33.9157 59.6251C32.1945 59.6107 30.6693 59.394 29.3808 59.0993C29.3051 59.0839 29.231 59.0659 29.1594 59.0494C27.992 58.7695 27.0318 58.4323 26.3171 58.1367L26.315 58.1372C26.2591 58.1906 26.2032 58.244 26.1478 58.2995C26.8672 58.6048 27.8397 58.9563 29.0276 59.2483C29.0992 59.2648 29.1734 59.2828 29.247 59.2988C29.3258 59.3178 29.4066 59.3363 29.4874 59.3547C30.6787 59.6177 32.1721 59.8295 33.9056 59.8408C33.9756 59.8424 34.0451 59.8421 34.1166 59.8412C35.6242 59.8363 37.3032 59.6767 39.1172 59.263C39.1897 59.2488 39.2617 59.2326 39.3331 59.2143C39.4683 59.1819 39.6056 59.149 39.7443 59.1136C40.1566 59.0082 40.5744 58.8905 40.9987 58.7559L40.844 58.5846ZM43.0352 68.8148C43.0055 68.9029 42.9753 68.9888 42.943 69.0754C41.9565 69.4602 40.9997 69.7743 40.0763 70.0234C39.9952 70.0463 39.9141 70.0692 39.834 70.0875C39.7937 70.1 39.7529 70.1104 39.7121 70.1209C37.4611 70.6963 35.4028 70.9028 33.5593 70.8696C33.4893 70.868 33.4193 70.8663 33.3513 70.8641C31.2784 70.8092 29.4827 70.4528 27.9926 69.9902C27.9122 69.9651 27.8319 69.9399 27.7536 69.9143C27.4977 69.8319 27.2495 69.7453 27.0114 69.6561C25.5679 69.1207 24.3623 68.4701 23.4109 67.861C23.3864 67.7651 23.3654 67.6661 23.345 67.5691C24.3119 68.2047 25.5693 68.8964 27.0947 69.4631C27.2872 69.5356 27.4878 69.6061 27.6946 69.675C27.7703 69.6991 27.8486 69.7248 27.929 69.7499C29.4269 70.2258 31.2481 70.5973 33.3604 70.6531C33.431 70.6568 33.501 70.6584 33.5704 70.6581C35.4619 70.692 37.584 70.4713 39.9104 69.8506C39.99 69.8302 40.0691 69.8078 40.1502 69.7849C41.0807 69.5297 42.0425 69.2099 43.0352 68.8148Z" fill="#F2F2F2"/>
<path d="M34.2387 79.9903L41.1539 78.2227C41.7799 78.0627 42.418 78.441 42.5781 79.067L42.8098 79.9735L33.6262 82.3211L33.3944 81.4145C33.2344 80.7885 33.6127 80.1504 34.2387 79.9903Z" fill="#112E5B"/>
<path d="M45.4629 79.2954L30.9731 82.9993L31.2861 84.2237L45.7759 80.5198L45.4629 79.2954Z" fill="#F90065"/>
<path d="M43.3585 62.9835L43.1543 63.0356C42.4412 60.2459 40.5649 57.8858 38.0063 56.5603L38.1033 56.3732C40.715 57.7264 42.6305 60.1356 43.3585 62.9835ZM35.1293 75.7086C32.5758 76.1561 29.9642 75.6277 27.7755 74.2209C25.5753 72.8066 24.0067 70.6314 23.3586 68.0959L23.5627 68.0437C24.1976 70.5274 25.7342 72.6583 27.8895 74.0437C30.0335 75.4219 32.5917 75.9395 35.0931 75.5011L35.1293 75.7086Z" fill="black"/>
<path d="M40.4699 81.8762L31.4902 84.1716L31.5424 84.3758L40.522 82.0804L40.4699 81.8762Z" fill="black"/>
</g>
<defs>
<clipPath id="clip0_52_3222">
<rect width="119.6" height="102.314" fill="white" transform="translate(23.8335 18.8733)"/>
</clipPath>
<clipPath id="clip1_52_3222">
<rect width="76.9283" height="121.331" fill="white" transform="translate(39.2998 6)"/>
</clipPath>
<clipPath id="clip2_52_3222">
<rect width="18.5332" height="25.3805" fill="white" transform="translate(117.066 24.394) rotate(-19.542)"/>
</clipPath>
<clipPath id="clip3_52_3222">
<rect width="24.6248" height="27.1478" fill="white" transform="translate(135.809 75.4539) rotate(35.637)"/>
</clipPath>
<clipPath id="clip4_52_3222">
<rect width="22.8547" height="29.6187" fill="white" transform="translate(20.4316 56.6448) rotate(-14.339)"/>
</clipPath>
</defs>
</svg>
