<svg width="169" height="168" viewBox="0 0 169 168" fill="none" xmlns="http://www.w3.org/2000/svg">
<path opacity="0.37" d="M99.9222 131.208C86.1462 136.517 70.2198 137.995 56.7462 131.914C43.2726 125.832 33.2262 111.048 35.7126 96.4656C36.6534 90.9216 39.2406 85.5456 38.5686 79.968C37.8294 73.6176 33.0246 68.5104 31.2438 62.3952C29.5302 56.5488 30.7398 50.1312 33.5286 44.7216C36.351 39.312 40.6518 34.8432 45.3222 30.912C52.6806 24.7296 61.2822 19.6224 70.791 18.1104C80.2998 16.632 90.783 19.2192 97.2342 26.3424C107.213 37.3632 105.802 56.1792 117.293 65.5872C122.501 69.8544 129.557 71.3664 134.833 75.5664C139.805 79.5312 142.863 85.8144 142.863 92.1984C142.863 112.459 115.647 125.16 99.9222 131.208Z" fill="#FD8503"/>
<path d="M84.4999 156.139C97.2113 156.139 107.516 153.717 107.516 150.73C107.516 147.742 97.2113 145.32 84.4999 145.32C71.7885 145.32 61.4839 147.742 61.4839 150.73C61.4839 153.717 71.7885 156.139 84.4999 156.139Z" fill="#B8C9DE" stroke="white" stroke-miterlimit="10"/>
<path d="M93.1016 45.3598C92.732 42.8734 92.5976 39.9166 90.4472 38.371C87.1208 35.9182 82.2152 37.7326 78.5864 38.3374C75.3608 38.9086 74.9912 42.571 74.6216 45.259C74.3864 47.0734 74.4536 49.1902 73.916 50.9374C73.3448 52.7182 72.1016 54.1294 71.6648 56.011C70.7576 59.8414 71.6984 64.1422 74.1512 67.267C76.9064 70.7614 81.14 72.7774 85.4744 73.3822C87.8264 73.7182 89.876 73.7854 92.228 74.2894C94.7816 74.827 97.4696 74.9278 100.023 74.323C103.82 73.4494 107.348 70.963 108.927 67.4014C110.506 63.8398 109.734 59.203 106.777 56.7166C104.458 54.7678 101.3 54.2974 98.5112 53.1214C95.2856 51.7438 93.908 49.5262 93.2696 46.2334C93.2024 45.931 93.1688 45.6286 93.1016 45.3598Z" fill="#3537A6"/>
<path d="M106.743 105.269C108.222 104.395 108.222 101.841 108.222 101.841C107.55 98.2126 106.878 94.5502 105.836 90.9886C105.03 88.3006 103.988 85.9822 103.35 83.1598C102.476 79.2622 101.636 75.3982 100.762 71.5006C100.191 68.9806 100.258 67.3342 98.0071 65.8894C95.4871 64.3102 92.0263 63.8062 89.1367 64.243C92.9335 68.1406 93.1351 74.3902 94.2775 79.4302C95.0167 82.723 95.8903 86.0158 96.9319 89.2414C97.9399 92.3662 99.4855 95.1886 100.594 98.2126L102.644 103.857C102.644 103.857 102.778 104.193 102.98 104.597C103.383 105.336 105.231 106.142 106.743 105.269Z" fill="#00367D"/>
<path d="M98.3765 31.5503L98.2085 31.4495C98.3093 31.5167 98.3765 31.5503 98.3765 31.5503Z" fill="#E2B4BD"/>
<path d="M83.8951 123.513C83.1559 123.413 82.4503 123.345 81.7111 123.278C82.3159 123.345 82.7863 119.717 82.7527 119.246C82.6855 118.07 82.1143 116.827 81.8791 115.617C81.2407 112.493 80.7367 109.301 80.1655 106.176L91.7911 103.656L94.0087 106.344C98.6791 107.923 103.316 109.569 107.953 111.249C111.649 112.593 115.345 113.937 119.007 115.349C120.318 115.853 122.535 116.289 123.342 117.533C124.215 118.843 124.081 121.632 123.98 123.11C123.879 124.857 123.308 126.638 122.098 127.881C119.881 130.2 117.596 129.427 115.009 128.789C111.985 128.049 108.726 127.848 105.668 127.344C102.174 126.806 98.6455 126.235 95.1511 125.664C95.1511 125.664 90.1447 124.085 90.1111 124.085C88.7671 123.648 87.3895 123.782 86.0119 123.681C85.3063 123.681 84.6007 123.581 83.8951 123.513Z" fill="#002657"/>
<path d="M82.4502 123.178C82.8534 123.11 83.2566 123.01 83.6934 122.976C83.8278 121.498 83.9958 120.12 84.2646 118.675C84.5334 117.23 85.1382 115.55 85.1382 114.072C85.6086 111.518 86.079 108.931 86.583 106.378L74.9574 103.824L72.7398 106.512C68.103 108.058 63.4998 109.67 58.863 111.317C52.5126 113.568 42.2646 115.013 42.903 123.85C43.0374 125.563 43.743 127.882 45.087 129.024C46.263 130.032 47.2374 129.528 48.6486 129.293C52.0422 128.688 55.4694 128.285 58.8966 127.781C63.0966 127.142 67.2966 126.504 71.4966 125.832C71.4966 125.832 76.503 124.286 76.5366 124.253C77.7798 123.883 79.0566 123.917 80.2662 123.648C81.0054 123.514 81.7446 123.346 82.4502 123.178Z" fill="#002657"/>
<path d="M86.7845 65.8225L86.0789 66.6961C84.6341 68.5441 82.1477 68.4097 80.8373 66.3937L79.8965 64.9153C80.0645 62.6977 80.2661 60.5137 80.4005 59.1025C80.5013 58.0945 80.5685 57.4561 80.5685 57.4561L83.3237 57.7921L85.7765 57.4561C85.7765 57.4561 86.1461 59.7073 86.4485 62.3953C86.5829 63.5041 86.7173 64.6801 86.7845 65.8225Z" fill="#DDAFB8"/>
<path d="M86.4489 62.3953C84.9369 62.4289 83.3913 61.9585 82.1481 61.0513C81.4425 60.5473 80.8377 59.8753 80.4009 59.1025C80.5017 58.0945 80.5689 57.4561 80.5689 57.4561L83.3241 57.7921L85.7769 57.4561C85.7769 57.4561 86.1465 59.7073 86.4489 62.3953Z" fill="#DD96A9"/>
<path d="M76.7383 64.4784L79.4599 64.4448L90.1783 64.4784C90.1783 64.4784 94.9159 67.0656 93.7399 70.6608C92.5975 74.2224 80.7367 77.7504 80.7367 77.7504L75.0919 74.9952C75.0919 74.9952 73.9495 73.4496 73.7479 72.24C73.5463 71.0304 73.1767 70.3248 73.5463 69.4848C73.9159 68.6448 74.6551 65.4192 74.6551 65.4192L76.7383 64.4784Z" fill="#00367D"/>
<path d="M73.9492 42.0671C73.9492 42.0671 72.874 44.6879 74.218 46.0319C75.562 47.3759 76.0996 50.6015 76.0996 50.6015C76.0996 50.6015 79.0564 42.8063 79.0564 42.5375C79.0564 42.2687 73.9492 42.0671 73.9492 42.0671Z" fill="#3537A6"/>
<path d="M91.0851 49.2911C90.5475 49.1903 90.0435 49.3247 89.6739 49.6271V42.1008L80.5683 39.6479L75.3267 40.7231L76.3011 46.8383C76.9395 50.7359 76.0995 55.5743 79.9635 58.0271C81.6771 59.1023 84.8355 59.6063 86.5827 58.2959C88.0947 57.1535 88.8675 54.7008 89.6403 53.0208C89.6403 53.0208 89.7747 52.8191 90.1779 52.8191C91.2867 52.8191 92.1603 51.9455 91.9251 50.8031C91.8243 50.1647 91.7907 49.4255 91.0851 49.2911Z" fill="#DDAFB8"/>
<path d="M90.4131 50.1648C90.4131 50.1648 89.6739 51.408 90.1779 52.1808C90.6819 52.92 90.9171 51.6768 90.6819 51.4416C90.4467 51.2064 90.4467 51.4416 90.9171 51.2064C91.4211 50.904 90.4131 50.1648 90.4131 50.1648Z" fill="#D891A4"/>
<path d="M89.7413 48.4512C90.6149 48.552 91.4549 48.5184 92.0933 48.1488C93.8069 47.208 93.6053 44.1504 93.1685 42.4704C92.6645 40.488 91.2197 38.5392 89.3045 37.6992C79.3589 33.096 72.2021 42.2688 73.7141 44.5872C75.2261 46.8384 80.3669 41.2608 81.3077 40.1184C83.0213 42.4368 82.6853 45.0912 85.5077 46.9392C86.4485 47.5104 88.1621 48.2496 89.7413 48.4512Z" fill="#3537A6"/>
<path d="M89.3718 46.1664C90.7158 47.1408 91.9254 47.9472 92.3622 48.4176C92.5974 46.0656 93.7734 42.4032 92.0934 40.32C91.4214 39.48 90.5814 38.976 89.607 38.5392C87.423 37.5312 84.7686 36.288 82.2822 36.456C77.5446 36.792 75.8646 41.6304 75.6294 45.5952C79.3926 45.7632 83.1558 43.4784 84.7686 40.0848C83.8614 41.8992 86.8518 44.3184 89.3718 46.1664Z" fill="#3537A6"/>
<path d="M103.081 104.832C103.282 105.033 103.484 105.235 103.719 105.403C104.425 105.907 126.466 116.39 126.466 116.39L127.676 113.87C127.676 113.87 110.002 102.144 109.028 101.505C108.255 101.001 107.785 100.901 107.583 100.867H107.449C107.449 100.867 105.399 99.8591 104.055 101.169C102.711 102.48 102.543 103.992 102.913 104.63C102.98 104.731 103.013 104.798 103.081 104.832Z" fill="#E2B4BD"/>
<path d="M122.837 110.241C122.837 110.241 120.485 111.585 119.78 114.475C119.78 114.475 103.921 107.184 102.745 103.824C101.569 100.464 104.122 97.9102 104.122 97.9102H107.549L122.837 110.241Z" fill="#00367D"/>
<path d="M127.978 115.987C127.978 115.987 130.23 114.744 131.271 114.408C132.313 114.038 137.991 112.056 138.798 111.854C139.57 111.652 139.94 110.712 139.94 110.712C139.94 110.712 142.494 110.073 142.393 109.502C142.292 108.931 141.385 108.897 140.847 109.065C140.31 109.233 139.503 109.502 139.503 109.502C139.503 109.502 138.73 109.3 138.462 109.368C138.126 109.435 135.471 109.905 135.404 110.14C135.572 109.569 135.303 108.964 134.934 108.494C134.698 108.158 134.362 107.856 133.959 107.856C133.455 107.856 133.119 108.326 132.85 108.763C132.985 109.132 133.119 109.536 133.287 109.905C133.321 109.972 133.354 110.04 133.354 110.14C133.455 110.544 133.254 110.98 132.884 111.148C132.615 111.283 128.986 110.98 129.02 111.787C129.356 110.745 130.23 109.939 131.305 109.67C131.742 109.569 132.178 109.536 132.548 109.3C132.75 109.166 133.422 107.755 133.119 107.788C132.481 107.889 131.842 108.024 131.204 108.124C129.222 108.494 127.642 109.099 126.567 110.846C125.794 112.123 125.358 113.198 125.727 114.676C125.794 114.878 126.198 116.524 126.702 116.356C126.702 116.39 127.978 115.987 127.978 115.987Z" fill="#E2B4BD"/>
<path d="M133.556 112.257L133.489 112.056L136.009 111.182C136.95 110.947 138.764 110.544 138.932 110.476C139.167 110.409 139.537 110.073 139.537 109.972C139.537 109.872 139.436 109.704 139.402 109.636L139.604 109.502C139.604 109.536 139.772 109.771 139.772 109.972C139.772 110.241 139.268 110.611 138.999 110.678C138.764 110.745 136.177 111.35 136.076 111.384L133.556 112.257Z" fill="#E4A183"/>
<path d="M139.888 110.618L135.032 112.499L135.117 112.718L139.973 110.838L139.888 110.618Z" fill="#E4A183"/>
<path d="M61.6517 105.269C60.1733 104.395 60.1733 101.842 60.1733 101.842C60.8453 98.2128 61.5173 94.5503 62.5589 90.9887C63.3653 88.3007 64.4069 85.9823 65.0453 83.1599C65.9189 79.2623 66.7589 75.3983 67.6325 71.5008C68.2037 68.9808 68.1365 67.3344 70.3877 65.8896C72.8741 64.3104 75.0917 64.1759 77.9477 64.3439C76.6037 66.5279 75.5285 69.8879 75.3941 72.4751C75.2933 74.2223 72.2357 90.1151 67.7669 98.2127L65.7173 103.858C65.7173 103.858 65.5829 104.194 65.3813 104.597C65.0117 105.336 63.1301 106.142 61.6517 105.269Z" fill="#00367D"/>
<path d="M65.6502 104.194C65.4822 104.395 65.2806 104.63 65.0454 104.798C64.3734 105.336 42.8694 116.928 42.8694 116.928L41.5254 114.475C41.5254 114.475 58.5942 101.875 59.535 101.203C60.2742 100.666 60.7446 100.531 60.9462 100.498H61.0806C61.0806 100.498 63.063 99.3887 64.4742 100.632C65.8854 101.875 66.1206 103.387 65.7846 104.026C65.751 104.093 65.6838 104.126 65.6502 104.194Z" fill="#E2B4BD"/>
<path d="M41.3239 116.558C41.3239 116.558 39.0055 115.45 37.9639 115.147C36.8887 114.845 31.1095 113.131 30.3367 112.997C29.5303 112.862 29.1607 111.922 29.1607 111.922C29.1607 111.922 26.5735 111.418 26.6743 110.846C26.7751 110.275 27.6487 110.208 28.1863 110.342C28.7239 110.477 29.5303 110.712 29.5303 110.712C29.5303 110.712 30.2695 110.477 30.5383 110.544C30.8743 110.611 33.5287 110.914 33.6295 111.149C33.4279 110.611 33.6631 109.973 33.9991 109.502C34.2343 109.166 34.5367 108.83 34.9399 108.797C35.4439 108.763 35.8135 109.234 36.1159 109.637C35.9815 110.04 35.8807 110.41 35.7463 110.813C35.7127 110.88 35.7127 110.947 35.6791 111.048C35.6119 111.451 35.8135 111.854 36.1831 112.022C36.4519 112.157 40.0471 111.653 40.0807 112.459C39.6775 111.451 38.7703 110.678 37.6951 110.477C37.2583 110.376 36.8215 110.376 36.4183 110.174C36.1831 110.04 35.4439 108.662 35.7463 108.696C36.3847 108.763 37.0231 108.864 37.6615 108.931C39.6439 109.2 41.2903 109.704 42.4327 111.418C43.2727 112.661 43.7767 113.702 43.4743 115.214C43.4407 115.416 43.1047 117.096 42.5671 116.962C42.6343 116.928 41.3239 116.558 41.3239 116.558Z" fill="#E2B4BD"/>
<path d="M35.5785 113.098L33.0249 112.358C32.9241 112.325 30.3033 111.854 30.0681 111.787C29.8329 111.72 29.2953 111.35 29.2617 111.115C29.2281 110.914 29.3625 110.678 29.3961 110.645L29.5977 110.746C29.5641 110.813 29.4969 110.981 29.4969 111.082C29.4969 111.182 29.9001 111.485 30.1353 111.552C30.3033 111.619 32.1513 111.955 33.0921 112.123L35.6793 112.862L35.5785 113.098Z" fill="#E4A183"/>
<path d="M29.1592 111.782L29.0854 112.005L34.0304 113.639L34.1042 113.416L29.1592 111.782Z" fill="#E4A183"/>
<path d="M67.8344 106.478C67.7672 106.982 67.7336 107.52 67.8008 108.024C68.036 109.738 69.1448 110.578 70.6904 110.88C72.2024 111.182 73.7144 111.72 75.2936 111.754C78.8888 111.821 85.5752 112.426 89.204 112.224C91.6232 112.09 98.0744 111.653 98.0744 108.125C98.0744 105.974 96.7976 103.387 96.4616 101.203C96.1256 99.0191 95.924 96.8351 95.8904 94.6175C95.8232 89.8799 97.1336 85.4447 97.436 80.7743C97.604 78.2207 97.268 75.6335 96.4952 73.2143C95.924 71.3663 95.5208 69.2831 94.4792 67.6367C93.908 66.7295 91.9592 65.3855 91.724 67.4015C91.5224 69.0815 92.8664 70.3919 91.3208 72.0047C88.868 74.5919 83.4584 74.9279 83.4584 74.9279C83.4584 74.9279 78.0488 74.5919 75.596 72.0047C74.0168 70.3247 76.436 65.2847 75.4616 64.8815C73.9832 64.2767 72.6392 68.4431 72.3032 69.3503C71.228 72.4079 70.22 74.9279 70.4888 78.2543C70.6568 80.4383 71.1608 82.5887 71.6312 84.7391C72.0344 86.6879 71.6648 88.6031 71.4296 90.5855C70.9592 95.0543 69.9848 99.4559 68.6072 103.69C68.3048 104.597 67.9688 105.537 67.8344 106.478Z" fill="#00367D"/>
<path d="M84.7685 124.421C83.1222 124.79 81.9125 124.958 79.9301 124.522C77.8133 124.085 75.3606 125.563 73.6134 126.571C72.5382 127.21 71.4629 127.982 70.2869 128.419C69.0437 128.89 67.6997 129.226 66.4229 129.629C66.1205 129.73 65.7846 129.83 65.5494 130.032C65.2806 130.234 65.079 130.536 65.1126 130.838C65.1462 131.342 65.6501 131.678 66.1541 131.678C66.6581 131.678 67.0949 131.477 67.5317 131.242C67.2293 131.342 66.9606 131.41 66.7254 131.611C66.4902 131.813 66.3222 132.115 66.3894 132.418C66.4902 132.821 66.9942 132.989 67.3974 132.922C67.8006 132.821 68.103 132.552 68.4054 132.25C67.431 132.115 67.6998 132.989 68.0694 133.358C68.6406 133.896 69.9845 133.795 70.6901 133.762C74.5205 133.594 77.5781 132.418 81.1061 131.107C82.8197 130.469 84.2981 129.696 86.1125 129.662C89.0021 129.595 91.8918 129.595 94.7814 129.562C100.46 129.494 106.105 129.427 111.783 129.36C114.505 129.326 117.327 129.259 119.645 127.882C121.964 126.504 123.442 123.312 122.065 120.994C121.258 119.65 119.713 118.91 118.133 118.709C116.588 118.507 115.009 118.81 113.463 119.078C107.314 120.187 101.165 121.33 95.0501 122.438C91.9925 123.01 88.8677 123.413 85.8437 124.118C85.4741 124.253 85.1381 124.354 84.7685 124.421Z" fill="#DD96A9"/>
<path d="M78.9558 132.082C78.5526 132.25 73.7478 133.258 74.7558 129.461C75.7638 125.664 79.7622 124.085 79.3926 124.186C79.023 124.253 77.7798 123.614 74.7558 124.958C70.8918 126.706 66.1542 127.411 64.5078 131.846C64.239 132.552 64.2726 133.459 64.8102 133.997C65.4822 134.702 66.591 134.635 67.5654 134.501C71.5974 134.064 75.2934 133.829 78.9558 132.082Z" fill="#002657"/>
<path d="M83.8276 123.345C83.458 123.379 83.122 123.446 82.7524 123.48C83.0212 126.033 83.29 128.587 83.5588 131.107C84.9028 131.073 86.2468 131.073 87.5908 131.04C88.2964 131.04 89.4724 131.846 90.2452 132.014C91.2868 132.249 92.362 132.283 93.4036 132.182C95.2852 131.981 96.6628 131.073 98.5444 131.208C101.098 131.409 103.618 131.913 106.138 132.149C111.984 132.653 120.048 133.358 124.954 129.461C131.842 123.984 125.256 115.685 120.956 115.315C117.092 114.979 112.623 116.189 109.095 117.533C104.391 119.313 98.2084 118.944 93.202 119.381C91.7908 119.515 90.346 119.649 89.0356 120.187C87.7252 120.725 86.5156 121.733 86.1124 123.11C85.3396 123.144 84.5668 123.245 83.8276 123.345Z" fill="#00367D"/>
<path d="M78.8214 124.958C79.4934 124.152 80.535 123.446 81.5094 123.816C82.4838 124.185 82.7862 125.395 82.7526 126.437C82.719 128.285 81.4086 133.56 78.6198 132.552C75.7974 131.51 77.5446 126.504 78.8214 124.958Z" fill="#002657"/>
<path d="M82.1815 124.925C83.8279 125.294 85.0375 125.462 87.0199 125.026C89.1367 124.589 91.5895 126.067 93.3367 127.075C95.3527 128.251 98.0407 129.259 99.3511 131.309C99.8887 132.115 100.023 133.258 99.4519 134.064C98.9143 134.803 97.9063 135.038 96.9655 135.072C94.9159 135.173 93.3703 134.467 91.5223 133.829C89.6071 133.157 87.7591 132.35 85.8439 131.645C84.1303 131.006 82.6519 130.234 80.8375 130.2C77.9479 130.133 75.0583 130.133 72.1687 130.099C66.4903 130.032 60.8455 129.965 55.1671 129.898C52.4455 129.864 49.6231 129.797 47.3047 128.419C44.9863 127.042 43.5079 123.85 44.8855 121.531C45.6919 120.187 47.2375 119.448 48.8167 119.246C50.3623 119.045 51.9415 119.347 53.4871 119.616C59.6359 120.725 65.7847 121.867 71.8999 122.976C74.9575 123.547 78.0823 123.95 81.1063 124.656C81.4759 124.757 81.8455 124.858 82.1815 124.925Z" fill="#E2B4BD"/>
<path d="M79.6279 123.177C80.3335 123.581 81.1063 123.984 81.3079 123.917C79.7623 124.555 78.4855 125.865 77.9815 127.478C77.4439 129.057 77.6455 130.872 78.5191 132.317C75.5623 132.283 72.6055 132.048 69.6823 132.182C65.3143 132.35 60.9463 132.35 56.6119 132.451C51.6727 132.552 46.4647 132.753 42.3319 129.461C35.4439 123.984 42.0295 115.685 46.3303 115.315C50.3287 114.979 54.7975 116.357 58.6951 117.197C61.7191 117.835 64.5079 118.742 67.6327 119.213C70.1191 119.582 72.3031 120.019 74.6551 120.926C75.8983 121.397 77.1079 121.901 78.2839 122.438C78.4855 122.505 79.0567 122.841 79.6279 123.177Z" fill="#00367D"/>
<path d="M82.7525 84.9741L89.0357 64.7806L77.9141 64.3438L82.7525 84.9741Z" fill="white"/>
<path d="M82.7863 97.7422L81.5767 106.545H84.2983L82.7863 97.7422Z" fill="white"/>
<path d="M45.5239 110.611C45.5239 110.611 47.8759 111.955 48.5815 114.845C48.5815 114.845 64.4407 107.553 65.6167 104.193C66.7927 100.833 64.2391 98.2798 64.2391 98.2798H60.8119L45.5239 110.611Z" fill="#00367D"/>
<path d="M77.9141 64.3438C77.9141 64.3438 78.0485 69.283 83.3573 69.283C88.6661 69.283 89.2037 64.2766 89.2037 64.2766L77.9141 64.3438Z" fill="#DDAFB8"/>
<path d="M77.9141 64.3438L73.4453 68.4766L82.7525 84.9741L77.9141 64.3438Z" fill="#002657"/>
<path d="M89.3045 64.3438L94.0421 68.0397L82.7861 84.8734L89.3045 64.3438Z" fill="#002657"/>
<path d="M82.7528 88.7039C83.2724 88.7039 83.6936 88.2827 83.6936 87.7631C83.6936 87.2435 83.2724 86.8223 82.7528 86.8223C82.2332 86.8223 81.812 87.2435 81.812 87.7631C81.812 88.2827 82.2332 88.7039 82.7528 88.7039Z" fill="#002657"/>
<path d="M82.7528 96.0623C83.2724 96.0623 83.6936 95.6411 83.6936 95.1215C83.6936 94.6019 83.2724 94.1807 82.7528 94.1807C82.2332 94.1807 81.812 94.6019 81.812 95.1215C81.812 95.6411 82.2332 96.0623 82.7528 96.0623Z" fill="#002657"/>
<path d="M89.2038 132.955C90.447 133.459 92.967 133.526 93.6054 131.981C94.5126 129.696 92.631 126.974 90.5814 126.067C88.767 125.294 86.8854 125.429 84.9702 125.294C86.1126 123.917 88.9686 123.681 90.5142 124.152C92.7654 124.857 94.5462 126.605 96.5286 127.814C97.7718 128.587 99.0486 129.326 100.157 130.301C101.132 131.174 105.937 137.726 102.073 136.718C99.7878 136.113 97.5702 135.509 95.2518 135.139C93.0006 134.803 91.287 133.761 89.2038 132.955Z" fill="#002657"/>
<path d="M81.3076 106.545L80.2324 113.265H85.642L84.466 106.545H81.3076Z" fill="#002657"/>
<path d="M96.327 101.001L89.103 103.589L89.9094 105.537L96.7302 103.589L96.327 101.001Z" fill="#002657"/>
<path d="M69.3128 100.464C69.3464 100.397 76.6712 102.648 76.6712 102.648L75.8312 105.168L68.54 103.286L69.3128 100.464Z" fill="#002657"/>
<path d="M53.6885 62.4622L55.2341 65.251L57.9893 66.763L55.2341 68.275L53.6885 71.0638L52.1765 68.275L49.3877 66.763L52.1765 65.251L53.6885 62.4622Z" fill="#CB5300"/>
<path d="M118.94 87.6287L120.25 90.0143L122.636 91.3247L120.25 92.6351L118.94 95.0207L117.629 92.6351L115.244 91.3247L117.629 90.0143L118.94 87.6287Z" fill="#CB5300"/>
<path d="M105.332 46.5359L106.273 48.2159L107.986 49.1567L106.273 50.0975L105.332 51.7775L104.425 50.0975L102.711 49.1567L104.425 48.2159L105.332 46.5359Z" fill="#CB5300"/>
<path d="M37.7623 134.232L38.6695 135.946L40.3831 136.853L38.6695 137.794L37.7623 139.507L36.8215 137.794L35.1079 136.853L36.8215 135.946L37.7623 134.232Z" fill="#CB5300"/>
<path d="M124.047 136.349L124.988 138.062L126.668 138.969L124.988 139.91L124.047 141.624L123.106 139.91L121.426 138.969L123.106 138.062L124.047 136.349Z" fill="#CB5300"/>
<path d="M33.3439 57.8754L11.4785 67.6665L23.7415 95.0519L45.6069 85.2607L33.3439 57.8754Z" fill="#A3B1C7"/>
<path d="M41.7891 64.5588L19.0469 72.0933L28.4834 100.577L51.2256 93.0424L41.7891 64.5588Z" fill="#B8C8E0"/>
<path d="M41.6656 75.3534L32.001 78.5542L32.4763 79.9895L42.141 76.7887L41.6656 75.3534Z" fill="white"/>
<path d="M37.4649 71.8192L27.8003 75.02L28.2757 76.4554L37.9403 73.2545L37.4649 71.8192Z" fill="white"/>
<path d="M29.5909 79.3438L25.54 80.6858L26.0156 82.1211L30.0664 80.7791L29.5909 79.3438Z" fill="white"/>
<path d="M28.5347 83.0399L26.5571 83.6951L27.0327 85.1304L29.0102 84.4752L28.5347 83.0399Z" fill="white"/>
<path d="M36.7623 80.3327L30.6382 82.3616L31.1137 83.7969L37.2378 81.768L36.7623 80.3327Z" fill="white"/>
<path d="M42.6835 78.3609L39.4619 79.4282L39.9374 80.8636L43.159 79.7963L42.6835 78.3609Z" fill="white"/>
<path d="M33.9973 84.5871L27.5542 86.7217L28.0297 88.157L34.4728 86.0224L33.9973 84.5871Z" fill="white"/>
<path d="M43.667 81.3755L36.0757 83.8896L36.5511 85.325L44.1424 82.8108L43.667 81.3755Z" fill="white"/>
<path d="M30.9058 88.9583L28.5454 89.74L29.0208 91.1753L31.3811 90.3936L30.9058 88.9583Z" fill="white"/>
<path d="M39.4178 86.1299L32.5601 88.4011L33.0354 89.8365L39.8932 87.5652L39.4178 86.1299Z" fill="white"/>
<path d="M44.6598 84.4073L41.3745 85.4954L41.8499 86.9307L45.1352 85.8426L44.6598 84.4073Z" fill="white"/>
<path d="M36.2403 90.5631L29.542 92.7815L30.0174 94.2168L36.7156 91.9984L36.2403 90.5631Z" fill="white"/>
<path d="M45.6663 87.4286L38.5215 89.7949L38.9969 91.2303L46.1417 88.864L45.6663 87.4286Z" fill="white"/>
<path d="M128.314 39.6144L131.338 38.9424L152.305 43.848L145.081 64.2432L125.425 47.8128L128.314 39.6144Z" fill="#CB5300"/>
<path d="M152.587 48.2247L128.298 39.6145L117.308 70.6175L141.597 79.2276L152.587 48.2247Z" fill="#FFA33F"/>
<path d="M150.49 60.3121L146.425 60.4465L149.886 50.7361L152.708 53.9953L150.49 60.3121Z" fill="#81C0BE"/>
<path d="M145.304 50.8108L131.972 46.0847L128.952 54.6034L142.285 59.3295L145.304 50.8108Z" fill="white"/>
<path d="M143.569 90.048L138.966 83.832C138.596 83.328 137.891 83.2272 137.42 83.5968L125.223 92.6352C124.719 93.0048 124.619 93.7104 124.988 94.1808L129.591 100.397C129.961 100.901 130.667 101.002 131.137 100.632L143.334 91.5936C143.838 91.224 143.939 90.5184 143.569 90.048Z" fill="#002657"/>
<path d="M125.358 93.2064L137.958 83.8992C138.092 83.7984 138.294 83.832 138.395 83.9664L143.334 90.6192C143.435 90.7536 143.401 90.9552 143.267 91.056L130.667 100.363C130.532 100.464 130.331 100.43 130.23 100.296L125.291 93.6432C125.19 93.4752 125.223 93.3072 125.358 93.2064Z" fill="#B8C8E0"/>
<path d="M138.294 92.7023C137.487 93.3071 136.479 93.4079 135.606 93.0719C135.102 92.9039 134.631 92.5679 134.295 92.0975C133.959 91.6271 133.758 91.0895 133.758 90.5519C133.691 89.6447 134.094 88.7039 134.9 88.0991C136.177 87.1583 137.958 87.4271 138.899 88.7039C139.806 89.9807 139.537 91.7615 138.294 92.7023Z" fill="white"/>
<path d="M129.49 95.2225C128.919 95.6257 128.146 95.5249 127.743 94.9537C127.34 94.3825 127.441 93.6097 128.012 93.2065C128.583 92.8033 129.356 92.9041 129.759 93.4753C130.162 94.0465 130.028 94.8193 129.49 95.2225Z" fill="white"/>
<path d="M131.473 97.9105C130.902 98.3137 130.129 98.2129 129.726 97.6417C129.322 97.0705 129.423 96.2977 129.994 95.8945C130.566 95.4913 131.338 95.5921 131.742 96.1633C132.145 96.7009 132.01 97.4737 131.473 97.9105Z" fill="white"/>
<path d="M137.588 90.7872C137.185 91.0896 136.647 90.9888 136.345 90.6192C136.043 90.216 136.143 89.6783 136.513 89.3759C136.916 89.0735 137.454 89.1743 137.756 89.5439C138.059 89.9471 137.958 90.4848 137.588 90.7872Z" fill="#81C0BE"/>
<path d="M135.875 92.8705L135.841 92.9041C135.337 92.7361 134.867 92.4001 134.531 91.9297C134.195 91.4593 133.993 90.9217 133.993 90.3841L134.027 90.3505C134.732 89.8465 135.707 89.9809 136.211 90.6865C136.715 91.3921 136.58 92.3665 135.875 92.8705Z" fill="#81C0BE"/>
<path d="M139.772 85.4112C139.806 85.4784 139.335 86.184 139.335 86.184L141.419 89.04L142.561 89.0064C142.595 89.04 139.671 85.2432 139.772 85.4112Z" fill="#002657"/>
<path d="M139.907 93.8784L141.385 92.8032L141.62 93.1728L140.176 94.248L139.907 93.8784Z" fill="#002657"/>
<path d="M58.5942 32.2223L52.8822 43.7807C52.5798 44.3855 51.8406 44.6207 51.2694 44.3183L34.2678 35.9183C33.663 35.6159 33.4278 34.8767 33.7302 34.3055L39.4422 22.7471C39.7446 22.1423 40.4838 21.9071 41.055 22.2095L58.0566 30.6095C58.6278 30.9119 58.8966 31.6175 58.5942 32.2223Z" fill="#002657"/>
<path d="M35.9814 29.6687C36.5862 29.9039 54.8982 39.6479 54.8982 39.6479" stroke="white" stroke-miterlimit="10"/>
<path d="M45.1206 31.8862L47.607 33.0622" stroke="white" stroke-miterlimit="10"/>
<path d="M78.8217 52.4832C80.232 52.4832 81.3753 51.3399 81.3753 49.9296C81.3753 48.5193 80.232 47.376 78.8217 47.376C77.4114 47.376 76.2681 48.5193 76.2681 49.9296C76.2681 51.3399 77.4114 52.4832 78.8217 52.4832Z" stroke="white" stroke-miterlimit="10"/>
<path d="M85.3065 52.4832C86.7168 52.4832 87.8601 51.3399 87.8601 49.9296C87.8601 48.5193 86.7168 47.376 85.3065 47.376C83.8962 47.376 82.7529 48.5193 82.7529 49.9296C82.7529 51.3399 83.8962 52.4832 85.3065 52.4832Z" stroke="white" stroke-miterlimit="10"/>
<path d="M87.8936 49.9295L89.9767 49.1567" stroke="white" stroke-miterlimit="10" stroke-linecap="round" stroke-linejoin="round"/>
<path d="M81.4087 49.9297H82.7527" stroke="white" stroke-miterlimit="10"/>
</svg>
