<svg width="161" height="135" viewBox="0 0 161 135" fill="none" xmlns="http://www.w3.org/2000/svg">
<g clip-path="url(#clip0_52_3328)">
<path opacity="0.37" d="M91.0373 18.6118C92.995 19.4614 94.8299 20.4029 96.493 21.4061C102.308 24.9114 106.986 30.0147 112.7 33.5306C118.096 36.8502 124.685 37.6573 130.86 38.2122C141.622 39.1795 164.07 48.4563 160.016 65.6502C158.542 71.9075 153.342 76.1571 150.68 81.8234C147.848 87.8509 148.145 95.3686 143.636 100.594C141.652 102.892 138.914 104.409 136.103 105.558C117.394 113.206 96.3839 112.85 76.5461 112.007C60.8882 111.342 35.7394 114.859 21.9861 106.272C15.1579 102.008 18.7087 90.3542 13.9839 84.0947C10.0136 78.8349 4.61009 75.3802 1.95569 68.7962C-2.56143 57.593 3.87729 43.0134 15.1509 39.0365C22.1957 36.5514 29.6591 35.4128 36.6229 32.6835C43.8175 29.8627 46.5896 25.6378 52.0763 20.6371C61.9954 11.5984 78.8773 13.3331 91.0373 18.6118Z" fill="#FD8503"/>
<path d="M108.364 107.752H54.0566V73.7889C54.0566 73.147 54.5674 72.627 55.1971 72.627H107.224C107.854 72.627 108.364 73.147 108.364 73.7889V107.752Z" fill="#D3D3D3"/>
<path d="M56.0444 75.0876H106.377V105.038H56.0444V75.0876Z" fill="#F2F2F2"/>
<path d="M45.4198 117.862C44.9206 118.515 45.8745 120.465 47.3705 120.465H116.212C117.707 120.465 118.649 118.515 118.076 117.862H45.4198Z" fill="#D3D3D3"/>
<path d="M117.884 117.506C118.456 118.157 117.707 118.686 116.212 118.686H47.3706C45.8746 118.686 45.0669 118.157 45.5661 117.506L52.6141 108.29C53.1133 107.638 54.4195 107.109 55.5325 107.109H106.749C107.861 107.109 109.228 107.638 109.8 108.29C112.494 111.363 115.189 114.433 117.884 117.506Z" fill="#F2F2F2"/>
<g opacity="0.5">
<path d="M60.855 110.218H58.5299C58.8589 109.731 59.0237 109.486 59.352 108.999H61.5853L60.855 110.218ZM63.8685 110.218H61.5433C61.8249 109.731 61.9657 109.486 62.2467 108.999H64.4793L63.8685 110.218ZM62.9056 108.766H59.5113L59.8179 108.311H63.1606L62.9056 108.766ZM66.8838 108.766L63.4886 108.766L63.7341 108.311H67.0768C67 108.493 66.9606 108.584 66.8838 108.766ZM70.8624 108.766H67.4669L67.6505 108.311H70.9949L70.8624 108.766ZM74.8403 108.766H71.4457L71.5677 108.311H74.911C74.8835 108.493 74.8691 108.584 74.8403 108.766ZM78.8192 108.766H75.4237L75.4854 108.311H78.8278L78.8192 108.766ZM82.7974 108.766H79.4029V108.311H82.7453C82.7664 108.493 82.7757 108.584 82.7974 108.766ZM86.7763 108.766H83.3811L83.319 108.311H86.6627C86.7075 108.493 86.7305 108.584 86.7763 108.766ZM90.7552 108.766H87.3597L87.2368 108.311H90.5795C90.6502 108.493 90.6851 108.584 90.7552 108.766ZM94.7337 108.766H91.3385C91.264 108.584 91.2272 108.493 91.1529 108.311H94.4973L94.7337 108.766ZM98.7113 108.766H95.3168C95.2185 108.584 95.1689 108.493 95.0713 108.311H98.4131C98.5321 108.493 98.5917 108.584 98.7113 108.766ZM103.151 108.766H99.2953L98.9878 108.311H102.784C102.931 108.493 103.004 108.584 103.151 108.766ZM66.8806 110.218H64.5561C64.7897 109.731 64.9072 109.487 65.1401 109L67.3728 108.999C67.1763 109.487 67.0777 109.73 66.8806 110.218ZM69.8934 110.218H67.5686C67.7552 109.731 67.848 109.486 68.0349 108.999L70.2675 109L69.8934 110.218ZM72.9069 110.218H70.5824C70.7213 109.73 70.791 109.487 70.9293 108.999H73.1619C73.0601 109.486 73.0083 109.731 72.9069 110.218ZM75.9197 110.218H73.5952C73.6861 109.731 73.7309 109.486 73.8227 108.999H76.056C76.0009 109.486 75.9731 109.731 75.9197 110.218ZM78.9309 110.218H76.6083L76.7171 108.999H78.9491C78.9424 109.486 78.9389 109.731 78.9309 110.218ZM81.9453 110.218H79.6208L79.6118 108.999H81.8438C81.8848 109.486 81.9049 109.731 81.9453 110.218ZM84.9577 110.218H82.6342L82.5069 108.999H84.7379C84.8262 109.486 84.8697 109.731 84.9577 110.218ZM87.9699 110.218H85.6461C85.5478 109.731 85.4982 109.486 85.3993 108.999H87.632C87.7667 109.486 87.8345 109.731 87.9699 110.218ZM59.8813 111.842H57.4355L58.256 110.624H60.6115L59.8813 111.842ZM63.0534 111.842H60.6067C60.8883 111.355 61.0291 111.111 61.3101 110.624H63.6656C63.4201 111.111 63.2973 111.355 63.0534 111.842ZM66.2243 111.842H63.7776C64.0112 111.355 64.1273 111.111 64.3616 110.624H66.7161C66.5193 111.111 66.4205 111.355 66.2243 111.842ZM69.3955 111.842H66.9481C67.1344 111.355 67.2278 111.111 67.4134 110.624H69.7693C69.6195 111.111 69.5446 111.355 69.3955 111.842ZM72.567 111.842H70.1206C70.2595 111.355 70.3283 111.111 70.4669 110.625C71.4093 110.625 71.8793 110.624 72.8217 110.624C72.719 111.111 72.6688 111.355 72.567 111.842ZM75.7369 111.842H73.2905L73.5187 110.624H75.8733C75.8192 111.111 75.7913 111.355 75.7369 111.842ZM78.9075 111.842H76.4621L76.5715 110.624H78.9248L78.9075 111.842ZM82.0793 111.842H79.6329L79.624 110.624H81.9785C82.0185 111.111 82.0397 111.355 82.0793 111.842ZM85.2499 111.842H82.8048C82.7533 111.355 82.7273 111.111 82.6771 110.624H85.0304L85.2499 111.842ZM88.4208 111.842H85.975C85.8761 111.355 85.8262 111.111 85.728 110.624H88.0825L88.4208 111.842ZM58.9085 113.466H56.3398C56.6678 112.979 56.8329 112.735 57.1616 112.248L59.6387 112.248C59.3465 112.734 59.2 112.979 58.9085 113.466ZM62.2377 113.466H59.6697L60.3721 112.248H62.8499C62.6051 112.735 62.4822 112.979 62.2377 113.466ZM65.5677 113.466H62.9984L63.5824 112.248H66.0595L65.5677 113.466ZM68.8966 113.466H66.327L66.7926 112.248H69.2704L68.8966 113.466ZM72.2256 113.466H69.6579C69.7961 112.979 69.8665 112.735 70.0041 112.248H72.4809C72.3798 112.735 72.3283 112.979 72.2256 113.466ZM75.5542 113.466H72.9862C73.0771 112.979 73.1235 112.735 73.2147 112.248H75.6918L75.5542 113.466ZM78.8829 113.466H76.3161L76.4249 112.248H78.9008C78.8944 112.735 78.8905 112.979 78.8829 113.466ZM82.2144 113.466H79.6454C79.6425 112.979 79.6403 112.735 79.6365 112.248H82.1133C82.1539 112.735 82.1734 112.979 82.2144 113.466ZM85.543 113.466H82.976C82.9245 112.979 82.8985 112.735 82.8477 112.248H85.3235C85.4112 112.735 85.4557 112.979 85.543 113.466ZM88.8713 113.466H86.3027C86.2048 112.979 86.1555 112.735 86.0566 112.248H88.5334L88.8713 113.466ZM57.935 115.09H55.2441C55.5725 114.603 55.7379 114.359 56.0662 113.872H58.6646C58.4218 114.278 58.1786 114.684 57.935 115.09ZM61.423 115.09H58.7328L59.4361 113.872H62.0352C61.7904 114.359 61.6672 114.603 61.423 115.09ZM64.9101 115.09H62.2198C62.4534 114.603 62.5705 114.359 62.8048 113.872H65.4029C65.2061 114.359 65.1078 114.603 64.9101 115.09ZM68.3862 115.128H65.6912C65.8845 114.626 65.9798 114.375 66.1718 113.873H68.7718C68.6176 114.374 68.5408 114.626 68.3862 115.128ZM89.3232 115.09H69.1949C69.3328 114.603 69.4019 114.359 69.5408 113.872H88.9849L89.3232 115.09ZM74.4448 117.766H89.7139L88.4281 115.691H75.6601L74.4448 117.766ZM90.6963 110.218H88.3718C88.2294 109.731 88.1593 109.486 88.0179 108.999H90.2505C90.4288 109.486 90.5171 109.731 90.6963 110.218ZM91.2902 111.842H88.8429C88.7017 111.355 88.6313 111.111 88.4896 110.624H90.8454C91.0227 111.111 91.112 111.355 91.2902 111.842ZM91.8841 113.466H89.3152C89.1734 112.979 89.1037 112.735 88.9619 112.248H91.439C91.6169 112.735 91.7053 112.979 91.8841 113.466ZM92.4781 115.09H89.7872L89.4333 113.872H92.0323L92.4781 115.09ZM93.4211 110.218H91.0966C90.912 109.731 90.8192 109.486 90.6355 108.999H92.8685C93.0889 109.486 93.2 109.731 93.4211 110.218ZM94.1587 111.842H91.712C91.5273 111.355 91.4345 111.111 91.2509 110.624H93.6057C93.8262 111.111 93.9376 111.355 94.1587 111.842ZM94.8953 113.466H92.3267L91.8649 112.248H94.3421C94.5641 112.735 94.6739 112.979 94.8953 113.466ZM95.6323 115.09H92.9411C92.7574 114.603 92.6646 114.359 92.4809 113.872H95.0793C95.3008 114.359 95.4105 114.603 95.6323 115.09ZM96.1462 110.218H93.8221L93.2531 108.999H95.4864C95.7504 109.486 95.8829 109.731 96.1462 110.218ZM97.0262 111.842H94.5798L94.0109 110.624H96.3664C96.6301 111.111 96.7629 111.355 97.0262 111.842ZM97.9072 113.466H95.3382C95.1107 112.979 94.9974 112.735 94.7693 112.248H97.247L97.9072 113.466ZM98.7869 115.09H96.096C95.8688 114.603 95.7555 114.359 95.5273 113.872H98.1267L98.7869 115.09ZM98.871 110.218H96.5469L95.8713 108.999H98.1033C98.4115 109.486 98.5641 109.731 98.871 110.218ZM99.8947 111.842H97.4483L96.7725 110.624H99.1273C99.4342 111.111 99.5885 111.355 99.8947 111.842ZM100.918 113.466H98.3501C98.0797 112.979 97.9449 112.735 97.6739 112.248H100.151C100.458 112.735 100.611 112.979 100.918 113.466ZM101.942 115.09H99.2509C99.0259 114.684 98.8005 114.278 98.5747 113.872H101.174C101.481 114.359 101.634 114.603 101.942 115.09ZM101.597 110.218H99.2723C98.9584 109.731 98.8016 109.486 98.488 108.999H100.722C101.072 109.486 101.246 109.731 101.597 110.218ZM102.763 111.842H100.316C100.003 111.355 99.8461 111.111 99.5334 110.624H101.888C102.238 111.111 102.413 111.355 102.763 111.842ZM103.93 113.466H101.36C101.047 112.979 100.891 112.735 100.578 112.248H103.055C103.406 112.735 103.58 112.979 103.93 113.466ZM105.096 115.09H102.404L101.621 113.872H104.221L105.096 115.09ZM104.321 110.218H101.997C101.641 109.731 101.463 109.486 101.106 108.999H103.339C103.732 109.486 103.928 109.731 104.321 110.218ZM105.631 111.842H103.184C102.829 111.355 102.65 111.111 102.294 110.624H104.649L105.631 111.842ZM106.941 113.466H104.372C104.016 112.979 103.838 112.735 103.482 112.248H105.959C106.352 112.735 106.548 112.979 106.941 113.466ZM108.251 115.09H105.559L104.669 113.872H107.268C107.661 114.359 107.857 114.603 108.251 115.09Z" fill="#D3D3D3"/>
</g>
<path d="M94.0989 105.03H70.1348C70.306 104.334 70.4628 103.779 70.6004 103.392C70.6716 103.194 70.7698 103.006 70.8922 102.834C71.3168 102.233 72.0439 101.721 72.9805 101.288C74.0986 100.771 75.5136 100.365 77.065 100.043C78.7133 99.7046 80.5114 99.4611 82.2621 99.2848C82.3805 99.2742 82.4976 99.2617 82.616 99.2515C84.5632 99.0697 86.434 98.9699 87.9434 98.9215C90.0272 98.8495 91.432 98.8646 91.432 98.8646C91.432 98.8646 91.5447 99.0441 91.7421 99.4025C92.2045 100.252 93.129 102.115 94.0989 105.03Z" fill="#0B4870"/>
<path d="M75.7417 65.9272C75.6962 66.2344 75.6162 66.5189 75.5029 66.7928L75.5708 66.0184C75.628 65.9839 75.6853 65.9615 75.7417 65.9272Z" fill="#FFE3CA"/>
<path d="M88.4359 64.7777V64.7879C88.4125 64.7777 88.3898 64.7659 88.3789 64.7659C88.4019 64.7662 88.4125 64.7777 88.4359 64.7777Z" fill="#EEBEA7"/>
<path d="M113.03 81.1191C113.03 81.1191 114.51 79.7469 114.217 78.7175C113.968 77.8439 114.343 76.8653 114.437 76.4592C114.564 75.9213 114.614 74.1751 115.016 74.2701C115.695 74.4352 115.538 77.2227 115.622 77.817C115.706 78.4106 117.506 76.4224 118.119 76.3184C118.734 76.2122 121.859 79.3789 120.467 80.6019C119.075 81.8224 117.155 82.3178 116.952 82.5814C116.749 82.8451 115.796 83.5696 115.796 83.5696L113.03 81.1191Z" fill="#F1B99E"/>
<path d="M117.726 76.5251C117.726 76.5251 122.238 73.0691 122.732 73.0899C123.227 73.1098 123.397 73.3671 122.988 73.7069C122.581 74.0477 118.728 77.1747 118.728 77.1747C118.728 77.1747 124.754 73.9799 125.163 73.9085C125.401 73.8663 125.583 74.3232 125.38 74.5264C125.179 74.7274 119.571 78.2557 119.571 78.2557C119.571 78.2557 125.202 75.2823 125.561 75.3245C125.876 75.3626 126.1 75.8816 125.698 76.1306C125.295 76.3792 120.223 79.4352 120.223 79.4352C120.223 79.4352 124.46 77.5306 124.742 77.7434C124.913 77.8752 125.158 78.1645 124.051 78.6215C122.942 79.0791 120.53 80.5399 120.53 80.5399L117.726 76.5251Z" fill="#F1B99E"/>
<path d="M85.51 61.7942V62.1014C85.486 62.0454 85.4639 61.9993 85.453 61.9424C85.4297 61.9312 85.4297 61.9087 85.4297 61.8963C85.453 61.863 85.4754 61.8294 85.51 61.7942Z" fill="#FFBE55"/>
<path d="M82.1174 63.662C82.072 63.6726 82.014 63.6726 81.9692 63.6726V63.6502C82.014 63.662 82.072 63.662 82.1174 63.662ZM85.51 61.7942V61.8857C85.4907 61.9042 85.4717 61.9231 85.4531 61.9424C85.328 62.079 85.1907 62.2038 85.0544 62.3296C84.9971 62.3753 84.952 62.4201 84.8956 62.4659C84.9632 62.3983 85.0428 62.318 85.1123 62.2499C85.2147 62.1475 85.3164 62.0223 85.4297 61.8963C85.4531 61.863 85.4755 61.8294 85.51 61.7942Z" fill="#EEBEA7"/>
<path d="M88.1166 57.8671C87.4907 59.2562 86.7275 60.5087 85.8619 61.4991C85.7489 61.6354 85.6228 61.7717 85.5096 61.886V61.7945C85.475 61.8293 85.4526 61.8633 85.4292 61.8965C85.316 62.0226 85.2142 62.1477 85.1118 62.2501C85.0424 62.3186 84.9627 62.3986 84.8952 62.4661C84.8712 62.478 84.8494 62.501 84.8267 62.5234C84.7921 62.5573 84.7582 62.5919 84.7233 62.6031C84.6336 62.6816 84.5385 62.7538 84.4388 62.8191C84.314 62.9103 84.2004 62.9897 84.0756 63.0581C84.0459 63.0783 84.0155 63.0974 83.9844 63.1154C83.8696 63.1829 83.7569 63.2402 83.6552 63.2853C83.5527 63.3404 83.4457 63.3862 83.3352 63.4223L83.3243 63.4338C83.2334 63.4569 83.1646 63.4908 83.0846 63.5135C83.0612 63.525 83.0398 63.5365 83.0161 63.5365C82.9374 63.5589 82.8574 63.5813 82.7771 63.5935C82.755 63.5935 82.7435 63.6044 82.7208 63.6044H82.6859C82.6296 63.6165 82.5617 63.6277 82.5048 63.6393C82.4475 63.6501 82.3793 63.6501 82.3227 63.6501C82.2664 63.662 82.2078 63.662 82.1624 63.662H82.1515C82.1406 63.6725 82.1291 63.6725 82.1176 63.662C82.0721 63.662 82.0142 63.662 81.9694 63.6501V63.6725C81.9016 63.6725 81.8328 63.662 81.7537 63.6501C81.6734 63.6393 81.5825 63.6277 81.5022 63.6165C81.4568 63.6044 81.4123 63.6044 81.354 63.5935C81.3092 63.5813 81.2632 63.5813 81.2177 63.5589C80.979 63.502 80.7521 63.4108 80.5124 63.2853C80.4377 63.2486 80.3653 63.2071 80.2958 63.1612C79.9204 62.9449 79.5556 62.6373 79.1796 62.2498C79.0443 62.1141 78.9185 61.9541 78.7819 61.7941C78.2014 61.0655 77.6216 60.0988 77.0859 58.8693C76.8675 58.3777 76.6624 57.8802 76.4708 57.3775C76.755 57.9353 76.2593 52.7321 76.3736 52.9148C74.8257 49.9548 76.3684 52.3909 76.9163 50.9231C80.3419 52.3685 87.0008 54.862 87.0008 52.3343C87.0008 52.3343 87.1486 53.8713 87.3201 55.4649C87.4564 56.774 87.6046 58.1295 87.6734 58.6415C87.6731 58.6412 87.8542 58.3564 88.1166 57.8671Z" fill="#F4C7B1"/>
<path d="M82.1174 63.662C82.072 63.6726 82.014 63.6726 81.9692 63.6726V63.6502C82.014 63.662 82.072 63.662 82.1174 63.662ZM85.51 61.7942V61.8857C85.4907 61.9042 85.4717 61.9231 85.4531 61.9424C85.328 62.079 85.1907 62.2038 85.0544 62.3296C84.9971 62.3753 84.952 62.4201 84.8956 62.4659C84.9632 62.3983 85.0428 62.318 85.1123 62.2499C85.2147 62.1475 85.3164 62.0223 85.4297 61.8963C85.4531 61.863 85.4755 61.8294 85.51 61.7942Z" fill="#EEBEA7"/>
<path d="M76.4705 57.3775C75.5591 55.5788 74.0909 52.1414 74.353 48.885V48.8732C73.9437 46.1756 77.3018 41.3145 82.425 41.5647C87.5473 41.3145 90.9063 46.1756 90.4961 48.8732V48.885C90.6545 50.8543 90.1767 52.8806 89.585 54.5775C89.9607 54.565 90.3242 54.6108 90.6887 54.7362C92.7271 55.4082 93.6829 58.0607 92.818 60.645C91.9645 63.2402 89.6074 64.7881 87.57 64.1167C86.6247 63.8092 85.9073 63.0697 85.5095 62.1014V61.8857C85.6228 61.7718 85.7492 61.6351 85.8618 61.4988C86.7274 60.5084 87.4906 59.2559 88.1165 57.8668C87.8541 58.3564 87.6948 58.958 87.6948 58.958C87.626 58.4466 87.4557 56.7737 87.3194 55.4646C87.1476 53.871 87.0001 52.334 87.0001 52.334C87.0001 54.862 80.3412 52.3682 76.9156 50.9228L76.4705 57.3775Z" fill="#FD8503"/>
<path d="M85.51 61.7942V62.1014C85.51 62.318 85.4992 62.5798 85.51 62.8758C85.1795 63.2854 84.8496 63.6275 84.5081 63.8889C84.3932 63.9801 84.28 64.0601 84.1667 64.1395C84.0806 64.2042 83.9891 64.2613 83.8931 64.31H83.8822C83.3587 64.6057 82.8345 64.7539 82.3225 64.7654H82.0601C82.0262 64.7654 81.9926 64.7654 81.9692 64.7539V63.6496C82.014 63.6614 82.072 63.6614 82.1174 63.6614C82.1289 63.672 82.1404 63.672 82.1513 63.6614H82.1622C82.2201 63.672 82.2659 63.672 82.3225 63.672C82.391 63.672 82.4704 63.6614 82.5385 63.6496C82.6179 63.6387 82.7097 63.6272 82.7897 63.616C82.8345 63.6038 82.8796 63.6038 82.9376 63.5929C82.9833 63.5808 83.0284 63.5807 83.0742 63.5583C83.3132 63.5014 83.5404 63.4102 83.7785 63.2848C83.848 63.2515 83.9283 63.206 83.9955 63.1606C84.2454 63.024 84.4848 62.8409 84.7238 62.6022C84.7587 62.591 84.7926 62.5564 84.8272 62.5225C84.8496 62.5001 84.8716 62.4771 84.8956 62.4652C84.9632 62.3977 85.0428 62.3174 85.1123 62.2492C85.2147 62.1468 85.3164 62.0217 85.4297 61.8956C85.4531 61.863 85.4755 61.8294 85.51 61.7942Z" fill="#A5735B"/>
<path d="M81.9697 71.5503V102.368L87.2865 102.14L91.6584 101.947L91.2136 96.5621L90.7243 90.5391C89.9652 90.8611 89.2097 91.1916 88.458 91.5304C88.6632 89.1509 88.754 86.9653 88.6177 85.1775C88.0827 78.5288 87.252 73.1103 86.6027 69.5698V69.5583C86.6705 68.8754 86.5793 68.1125 86.4206 67.4069C86.3972 67.2613 86.3669 67.117 86.3297 66.9743C86.284 66.8146 86.2507 66.6671 86.2049 66.5189L86.1016 66.1778C86.0792 66.0981 86.0446 66.0184 86.0228 65.9496C85.9394 65.6711 85.8402 65.3975 85.7259 65.1301H85.7038C85.795 65.5404 86.1137 66.9064 86.5115 69.0575V69.0693C86.251 70.2076 85.419 70.845 84.394 71.1986C84.3832 71.1986 84.3611 71.2092 84.3483 71.2092C83.6436 71.4489 82.8465 71.5394 82.0843 71.5506C82.05 71.5503 82.0043 71.5621 81.9697 71.5503Z" fill="#0E538C"/>
<path d="M94.1161 81.1373C94.3897 81.5574 94.7759 82.3318 95.1635 83.2086C95.1071 84.1763 95.0387 84.7562 95.0387 84.7562C95.0387 84.7562 94.6175 85.8605 94.0595 87.5917C93.9107 88.0234 92.4777 95.6739 92.3183 96.1754C92.2838 96.2662 92.2604 96.3686 92.2271 96.4598C91.7036 96.721 91.8204 96.2653 90.9091 96.6307C90.6371 96.744 90.3401 96.8579 90.0326 96.9939C89.9871 97.0179 89.9308 97.04 89.8499 97.0739C89.759 97.1082 89.6681 97.1424 89.5769 97.1878C88.9715 97.4484 88.3684 97.7141 87.7676 97.985C87.9718 95.6054 88.7545 86.9654 88.6175 85.1779C88.0828 78.5293 87.2524 73.1107 86.6031 69.5702V69.5587C86.5683 69.3882 86.5468 69.2291 86.5123 69.0694V69.0576C86.1139 66.9066 85.7951 65.5408 85.7036 65.1302H88.6524V65.1536C89.4716 65.0963 93.3388 64.552 95.9804 67.0678C94.5228 66.4416 92.5913 67.0083 91.9433 67.4074C91.6811 67.5575 91.4395 67.7411 91.2246 67.9536C90.8945 68.2617 90.6245 68.6285 90.4284 69.0352C88.5388 72.9402 93.319 79.9296 94.1161 81.1373Z" fill="#2A94F4"/>
<path d="M94.3311 105.03H87.0044C87.0809 104.096 87.1782 103.128 87.286 102.141C87.3958 101.082 87.5266 100.005 87.6514 98.9216C87.693 98.5479 87.7362 98.1764 87.7772 97.8036C87.7772 97.8036 87.7798 97.8036 87.7826 97.801C88.6726 97.4756 89.8425 95.9632 91.125 95.4567C91.1554 95.4461 91.1836 95.4336 91.2143 95.4231C91.5801 95.298 91.9436 96.3111 92.3174 96.1754C92.5577 98.7194 93.4153 102.039 94.3311 105.03Z" fill="#2A94F4"/>
<path d="M81.9697 64.7545V71.5507C82.0043 71.5625 82.05 71.5507 82.0846 71.5507C82.8468 71.5395 83.644 71.4489 84.3486 71.2093C84.3617 71.2093 84.3835 71.1987 84.3944 71.1987C85.419 70.8451 86.251 70.2077 86.5118 69.0694V69.0576C86.114 66.9065 85.7956 65.5408 85.7041 65.1302H85.5444V64.9142C85.5444 64.7779 85.5326 64.6525 85.5326 64.527C85.5217 64.1171 85.5217 63.7302 85.5105 63.3542V62.8765C85.1806 63.2861 84.8501 63.6281 84.5089 63.8896C84.4035 63.9837 84.2894 64.0676 84.1681 64.1401C84.0818 64.2045 83.9903 64.2616 83.8945 64.3107H83.8836C83.3249 64.6297 82.7787 64.7661 82.2324 64.7661C82.1409 64.7661 82.05 64.7661 81.9697 64.7545Z" fill="#F4C7B1"/>
<path d="M114.63 79.6839L114.893 80.1527L114.901 80.1617L116.958 83.7978L117.276 84.3575C117.276 84.3575 116.653 84.6087 115.672 85.0238C114.779 85.401 113.594 85.8967 112.309 86.4529C111.953 86.612 111.595 86.7677 111.236 86.9201C108.738 88.0282 106.108 89.2113 104.791 89.9684C101.919 91.609 99.5283 92.1821 98.072 92.1521C96.6234 92.1137 93.4461 83.5383 92.9498 81.481C92.4467 79.4327 90.5879 75.6583 89.256 72.0644C88.6925 70.5373 88.8554 69.1898 89.3379 68.1201C89.9799 66.6698 91.1901 65.7325 91.9373 65.5828C92.2318 65.5152 92.5338 65.4856 92.8359 65.4948C93.3015 65.4967 93.7408 65.586 94.1536 65.7457C98.1965 67.321 99.4483 75.6967 99.6851 77.1233C99.7722 77.6183 100.015 78.4484 100.328 79.3546C101.021 81.4746 102.031 84.033 102.031 84.033C104.061 83.1581 104.899 82.9082 105.673 82.6865C106.234 82.5223 106.764 82.3886 107.68 82.0366C107.956 81.9342 108.251 81.8148 108.569 81.7063C109.344 81.4256 110.122 81.1539 110.904 80.8913C112.836 80.2455 114.63 79.6839 114.63 79.6839Z" fill="#2A94F4"/>
<path d="M82.3224 63.6503V64.7546C82.2885 64.7661 82.266 64.7661 82.2315 64.7661H81.9688C81.4561 64.7546 80.932 64.6064 80.4085 64.3108H80.3976C80.3018 64.2615 80.2103 64.2045 80.124 64.1402C80.0079 64.0601 79.8943 63.9765 79.7832 63.8896C79.4417 63.6282 79.1112 63.2858 78.7812 62.8765C78.7921 62.4327 78.7812 62.0567 78.7812 61.7949C78.9179 61.9549 79.0436 62.1146 79.179 62.2506C79.555 62.6381 79.9198 62.946 80.2952 63.162C80.3637 63.2074 80.4433 63.2532 80.5118 63.2861C80.7515 63.4116 80.9787 63.5028 81.2171 63.5597C81.2625 63.5821 81.3083 63.5821 81.3534 63.5943C81.412 63.6052 81.4561 63.6052 81.5016 63.6173C81.5819 63.6285 81.6728 63.64 81.7531 63.6509C81.8318 63.6628 81.9009 63.6733 81.9688 63.6733C82.0136 63.6733 82.0715 63.6733 82.1169 63.6628C82.1284 63.6733 82.14 63.6733 82.1508 63.6628H82.1617C82.2075 63.6621 82.2657 63.6621 82.3224 63.6503Z" fill="#A5735B"/>
<path d="M82.3226 71.5503V102.368L77.0058 102.14L72.6343 101.947L73.0784 96.5621L73.5677 90.5391C74.2736 90.836 75.0708 91.1884 75.834 91.5304C75.6282 89.1509 75.5386 86.9653 75.6746 85.1775C76.2093 78.5288 77.0397 73.1103 77.6887 69.5698V69.5583C77.6215 68.8754 77.7127 68.1125 77.8714 67.4069C77.8935 67.2578 77.9284 67.1112 77.9629 66.9743C78.0087 66.8146 78.0413 66.6671 78.0871 66.5189L78.1904 66.1778C78.2128 66.0981 78.2474 66.0184 78.2698 65.9496C78.3537 65.6713 78.4526 65.3978 78.5661 65.1301H78.5882C78.4973 65.5404 78.178 66.9064 77.7802 69.0575V69.0693C78.0413 70.2076 78.8733 70.845 79.8986 71.1986C79.9095 71.1986 79.9319 71.2092 79.944 71.2092C80.6487 71.4489 81.4464 71.5394 82.208 71.5506C82.242 71.5503 82.2887 71.5621 82.3226 71.5503Z" fill="#0E538C"/>
<path d="M78.5877 65.1299C78.4968 65.5401 78.1775 66.9062 77.7797 69.0572V69.0691C77.7458 69.2284 77.7228 69.3878 77.6885 69.5584V69.5699C77.0396 73.1104 76.2092 78.5289 75.6744 85.1776C75.5381 86.9651 75.628 89.151 75.8338 91.5305C75.0821 91.1917 74.3266 90.8612 73.5676 90.5392C73.2607 90.4025 72.9637 90.2892 72.6917 90.176C71.7797 89.8112 71.3016 89.5491 70.7784 89.287C70.7452 89.1961 70.7215 89.0944 70.6872 89.0032C70.5279 88.502 70.3804 88.0236 70.2325 87.592C69.6741 85.8611 69.2533 84.7564 69.2533 84.7564C69.2533 84.7564 69.1855 84.1766 69.1285 83.2089C69.5154 82.3318 69.9026 81.5577 70.1762 81.1376C70.9724 79.9299 75.7532 72.9404 73.8632 69.0355C73.6672 68.6287 73.3973 68.2619 73.0671 67.9539C72.8523 67.7416 72.6109 67.558 72.349 67.4076C71.7016 67.0089 69.1484 67.4601 67.6914 68.0864C70.3327 65.5696 74.8207 65.0966 75.6402 65.1539V65.1305H78.5877V65.1299ZM77.2869 105.03H69.9599C70.18 104.311 70.3973 103.574 70.5999 102.834C71.2524 100.49 71.7922 98.1097 71.974 96.1753C72.3474 96.311 72.7138 96.4364 73.0796 96.5616C74.3999 97.0272 75.6056 97.4729 76.5141 97.8035C76.596 98.55 76.6853 99.2998 76.7727 100.043C76.852 100.748 76.9333 101.45 77.0053 102.141C77.1132 103.128 77.2101 104.096 77.2869 105.03Z" fill="#2A94F4"/>
<path d="M82.3225 64.7545V71.5507C82.2886 71.5625 82.2422 71.5507 82.2076 71.5507C81.446 71.5395 80.6483 71.4489 79.9436 71.2093C79.9318 71.2093 79.9094 71.1987 79.8982 71.1987C78.8729 70.8451 78.0409 70.2077 77.7798 69.0694V69.0576C78.1775 66.9065 78.4972 65.5408 78.5878 65.1302H78.7475V64.9142C78.7475 64.7779 78.7593 64.6525 78.7593 64.527C78.7702 64.1171 78.7702 63.7302 78.7814 63.3542V62.8765C79.1113 63.2861 79.4419 63.6281 79.7833 63.8896C79.8982 63.9923 80.0115 64.0717 80.1241 64.1401C80.2159 64.2083 80.3068 64.2643 80.3977 64.3107H80.4086C80.9667 64.6297 81.5148 64.7661 82.0598 64.7661C82.1513 64.7661 82.2419 64.7661 82.3225 64.7545Z" fill="#F4C7B1"/>
<path d="M85.4637 94.8886C85.384 95.3894 85.0541 95.765 85.0541 95.765C85.0541 95.765 85.2474 96.4249 84.8038 96.8575C84.8038 96.8575 84.9517 97.4834 84.3712 97.8934C84.3712 97.8934 84.5078 98.5084 84.0518 98.7705C84.0518 98.7705 83.0611 98.8959 82.6982 98.8278C81.2263 98.4928 79.7576 98.1436 78.2925 97.7801L79.2598 93.7154V93.7046C79.6813 93.4201 80.079 93.1574 80.2048 93.078C80.5123 92.8953 81.56 92.9529 82.64 93.294C83.6886 93.6246 84.8611 94.0911 85.1907 94.2732C85.3619 94.3644 85.5315 94.3993 85.4637 94.8886Z" fill="#EEA886"/>
<path d="M79.3854 93.1804L79.2596 93.7045V93.7154L78.2923 97.7801L78.1445 98.4066C78.1445 98.4066 77.5176 98.1676 76.5147 97.8028C75.6046 97.4725 74.3989 97.029 73.0782 96.5625C72.7137 96.4367 72.3486 96.3113 71.9745 96.1756C69.3899 95.2866 66.6571 94.3647 65.1771 94.0233C61.9553 93.2716 59.8142 92.0652 58.7672 91.0524C57.732 90.0393 61.2379 81.5922 62.2747 79.7477C63.2993 77.9033 64.5048 73.8735 65.9742 70.3333C66.6001 68.83 67.6353 67.9538 68.7176 67.4988C70.1755 66.8722 71.7009 67.0085 72.3483 67.4073C72.6103 67.5575 72.8517 67.7411 73.0664 67.9535C73.3965 68.2615 73.6665 68.6283 73.8625 69.0351C75.7524 72.9401 70.9716 79.9295 70.1755 81.1372C69.9019 81.5573 69.5147 82.3317 69.1278 83.2085C68.1944 85.2341 67.1924 87.7957 67.1924 87.7957C69.2753 88.5365 70.0606 88.9228 70.7777 89.2866C71.3009 89.5487 71.779 89.8108 72.691 90.1756C72.963 90.2889 73.26 90.4021 73.5668 90.5388C74.2728 90.8357 75.0699 91.1881 75.8331 91.5301C77.0216 92.0707 78.2057 92.6208 79.3854 93.1804Z" fill="#2A94F4"/>
<path d="M90.1118 54.6382L90.0139 50.1774C89.9995 49.433 90.0139 48.6958 89.9076 48.0055C89.8027 47.3054 89.6126 46.6199 89.3182 45.9854C88.7396 44.7134 87.7687 43.6398 86.5495 42.9588C85.3316 42.2673 83.915 41.953 82.5022 41.9588C81.0897 41.953 79.6702 42.2673 78.4571 42.9588C77.2353 43.6398 76.2647 44.7134 75.6843 45.9854C75.3918 46.6196 75.202 47.3054 75.0967 48.0055C74.9908 48.7031 75.0014 49.4234 74.9915 50.1774L74.8916 54.6382H74.3326L74.2369 50.1774C74.2279 49.4458 74.1943 48.6756 74.2929 47.8977C74.3902 47.1271 74.5793 46.3585 74.8919 45.6356C75.4974 44.1774 76.6286 42.9412 77.9972 42.1594C79.3678 41.3655 80.9502 41.0078 82.5025 40.9998C84.0558 41.0078 85.6366 41.3655 87.0068 42.1594C88.3764 42.9412 89.506 44.1774 90.1105 45.6356C90.4228 46.3585 90.6142 47.1271 90.7134 47.8977C90.8107 48.6817 90.7783 49.4385 90.7697 50.1774L90.6727 54.6382H90.1118Z" fill="#0E538C"/>
<path d="M74.7794 57.0601C73.7756 57.0601 73.5225 56.3404 73.5225 55.4514V52.5673C73.5225 51.6793 73.7756 50.958 74.7794 50.958H75.0194V57.0601H74.7794Z" fill="#0B4870"/>
<path d="M75.0195 50.9585H75.5383V57.0606H75.0195V50.9585Z" fill="#2A94F4"/>
<path d="M90.3777 57.0601C91.3825 57.0601 91.6375 56.3404 91.6375 55.4514V52.5673C91.6375 51.6793 91.3825 50.958 90.3777 50.958H90.1377V57.0601H90.3777Z" fill="#0B4870"/>
<path d="M89.6187 50.9585H90.1377V57.0606H89.6187V50.9585Z" fill="#2A94F4"/>
<path d="M82.8745 62.6207V62.061C85.19 62.061 89.6 58.7705 89.6 57.0601H90.1583C90.1583 59.2252 85.2803 62.6207 82.8745 62.6207Z" fill="#CCE9FF"/>
<path d="M83.2465 63.1226H82.5009C81.8823 63.1226 81.3818 62.7738 81.3818 62.3409C81.3818 61.9095 81.8823 61.561 82.5009 61.561H83.2465C83.8644 61.561 84.3652 61.9098 84.3652 62.3409C84.3649 62.7738 83.8644 63.1226 83.2465 63.1226Z" fill="#0B4870"/>
<path d="M62.9074 32.4627V36.8828L62.8809 42.8832L62.8454 50.1305L62.823 55.4771L57.4966 50.11L55.8713 50.1043L34.3183 50.0035C30.677 49.2931 27.9292 46.0886 27.9292 42.2464V32.4627C27.9292 28.4041 30.998 25.0521 34.9398 24.6108L56.5436 24.7104C60.1705 25.4262 62.9074 28.6246 62.9074 32.4627Z" fill="#FD8503"/>
<path opacity="0.8" d="M56.1883 32.6748C56.1885 32.8272 56.1586 32.9782 56.1003 33.119C56.0421 33.2599 55.9568 33.3879 55.8491 33.4958C55.7414 33.6036 55.6135 33.6892 55.4727 33.7477C55.332 33.8061 55.1811 33.8363 55.0286 33.8364H35.1614C35.0089 33.8364 34.8579 33.8063 34.717 33.748C34.5761 33.6896 34.4481 33.604 34.3403 33.4961C34.2325 33.3883 34.147 33.2602 34.0887 33.1193C34.0304 32.9783 34.0004 32.8273 34.0005 32.6748C34.0005 32.5224 34.0305 32.3714 34.0889 32.2306C34.1472 32.0897 34.2327 31.9618 34.3405 31.854C34.4484 31.7462 34.5763 31.6607 34.7172 31.6024C34.858 31.5441 35.009 31.5141 35.1614 31.5142H55.0286C55.6686 31.5142 56.1883 32.0335 56.1883 32.6748ZM56.1883 36.9974C56.1882 37.3051 56.066 37.6002 55.8486 37.818C55.6312 38.0358 55.3364 38.1585 55.0286 38.1593H35.1614C34.8536 38.1587 34.5585 38.036 34.3408 37.8182C34.1232 37.6004 34.0008 37.3052 34.0005 36.9974C34.0004 36.8449 34.0304 36.6938 34.0888 36.5529C34.1471 36.412 34.2326 36.284 34.3404 36.1761C34.4482 36.0683 34.5762 35.9827 34.7171 35.9243C34.8579 35.8659 35.0089 35.8358 35.1614 35.8358H55.0286C55.1811 35.8359 55.332 35.866 55.4727 35.9245C55.6135 35.9829 55.7414 36.0685 55.8491 36.1764C55.9568 36.2842 56.0421 36.4123 56.1003 36.5531C56.1586 36.694 56.1885 36.8449 56.1883 36.9974ZM50.1189 41.3196C50.1189 41.9564 49.5973 42.478 48.956 42.478H35.1602C34.8532 42.4777 34.5588 42.3555 34.3419 42.1383C34.1249 41.9211 34.003 41.6266 34.003 41.3196C34.003 40.9986 34.1294 40.71 34.3406 40.4991C34.4478 40.3906 34.5754 40.3044 34.7161 40.2455C34.8567 40.1867 35.0077 40.1563 35.1602 40.1561H48.956C49.2644 40.1564 49.5601 40.2791 49.7781 40.4973C49.9962 40.7154 50.1187 41.0112 50.1189 41.3196Z" fill="white"/>
</g>
<defs>
<clipPath id="clip0_52_3328">
<rect width="160" height="134.72" fill="white" transform="translate(0.5)"/>
</clipPath>
</defs>
</svg>
