<svg width="200" height="113" viewBox="0 0 200 113" fill="none" xmlns="http://www.w3.org/2000/svg">
<g clip-path="url(#clip0_131_31)">
<path opacity="0.1" d="M21.1561 55.875C14.177 93.6563 52.104 123.688 87.479 96.3229C149.364 48.4583 118.729 67.3333 151.958 72.9167C185.187 78.5 188.167 22.7708 161.489 23.4896C134.812 24.2083 126.614 46.4167 98.7395 25.9583C70.8645 5.50002 26.979 24.3959 21.1561 55.875Z" fill="#2A94F4"/>
<path d="M93.4894 112.5C117.243 112.5 136.5 93.2435 136.5 69.4895C136.5 45.7355 117.243 26.4791 93.4894 26.4791C69.7354 26.4791 50.479 45.7355 50.479 69.4895C50.479 93.2435 69.7354 112.5 93.4894 112.5Z" fill="#CCE9FF"/>
<path d="M45.7604 60.1355C49.3042 60.1355 52.1771 57.2626 52.1771 53.7188C52.1771 50.175 49.3042 47.3021 45.7604 47.3021C42.2166 47.3021 39.3438 50.175 39.3438 53.7188C39.3438 57.2626 42.2166 60.1355 45.7604 60.1355Z" fill="#0B4870"/>
<path d="M49.7708 42.177C51.6463 42.177 53.1667 40.6567 53.1667 38.7812C53.1667 36.9057 51.6463 35.3854 49.7708 35.3854C47.8954 35.3854 46.375 36.9057 46.375 38.7812C46.375 40.6567 47.8954 42.177 49.7708 42.177Z" fill="#FD8503"/>
<path d="M56.5728 49.9791C57.1941 49.9791 57.6978 49.4754 57.6978 48.8541C57.6978 48.2328 57.1941 47.7291 56.5728 47.7291C55.9514 47.7291 55.4478 48.2328 55.4478 48.8541C55.4478 49.4754 55.9514 49.9791 56.5728 49.9791Z" fill="#0B4870"/>
<mask id="mask0_131_31" style="mask-type:luminance" maskUnits="userSpaceOnUse" x="50" y="4" width="105" height="109">
<path d="M136.5 69.4896C136.5 93.2396 117.24 112.5 93.4897 112.5C69.7397 112.5 50.4897 93.2396 50.4897 69.4896C50.4897 45.7396 66.8647 4.6875 90.6147 4.6875C108.24 4.6875 147.136 5.11458 154.594 26.4792C157.188 33.9167 136.5 63.3646 136.5 69.4896V69.4896Z" fill="white"/>
</mask>
<g mask="url(#mask0_131_31)">
<path d="M75.7087 27.5938C75.7087 27.5938 74.6254 18.875 77.3546 14.8959C80.9171 9.71879 91.0212 8.27087 95.8442 11.125C101.177 14.2813 105.427 22.4271 103.563 29.5625C111.49 31.8438 113.386 40.8542 107.813 43.1667L112.584 53.3855C115.552 59.7396 112.521 67.3334 105.709 70.6146L93.5108 76.4896C93.5108 76.4896 71.0004 80.0313 66.5421 69.6042C62.0837 59.1771 70.8129 51.573 70.8129 51.573C70.8129 51.573 63.6879 43.6563 67.0837 35.9375C70.49 28.2188 75.7087 27.5938 75.7087 27.5938Z" fill="#0B4870"/>
<path d="M110.323 57.4687C110.323 57.4687 130.782 60.7083 136.323 60.4687C140.667 60.7083 147.823 36.9271 148.448 35.4687C151.917 33.2917 152.782 30.3125 152.729 28.6667C152.677 27.0208 148.25 25.6354 147.823 26.4687C148.552 24.2917 148.719 23.6042 148.917 22.8542C149.334 21.3021 148.146 20.125 146.448 25.9687C144.771 31.7292 144.938 30.7812 144.532 32.8125C141.792 38.0729 134.729 50.3437 134.25 52.1979C125.094 51.9792 109.584 48.4167 109.584 48.4167L110.323 57.4687ZM69.3544 51.9167C69.3544 51.9167 59.6565 70.1146 57.7711 75.1979C55.8961 78.9792 75.3753 96.3958 76.469 97.6562C77.1461 101.792 78.9378 103.219 80.4586 103.958C81.9794 104.687 84.9274 101.385 84.3336 100.615C86.0524 102.302 86.6149 102.771 87.219 103.312C88.4794 104.417 90.0107 103.917 85.3128 99.625C80.6774 95.3854 81.4899 95.9896 79.7815 94.6562C76.0107 89.7083 67.469 77.5625 65.9586 76.25C69.6357 68.1562 78.8024 55.9375 78.8024 55.9375L69.3544 51.9167Z" fill="#FFE3CA"/>
<path d="M91.5732 112.5L97.2295 87.9584L106.865 93.7292C106.865 93.7292 107.646 100.792 108.646 109.948C108.646 109.948 101.104 112.677 91.5732 112.5Z" fill="#0B4870"/>
<path d="M101.292 111.75C102.834 102.438 104.063 94.9375 104.063 94.9375C104.063 94.9375 77.6983 91.2708 77.6046 98.4792C77.5733 100.687 77.8337 104.937 78.4483 109.792C92.3129 114.25 101.292 111.75 101.292 111.75Z" fill="#0E538C"/>
<path d="M101.49 64.2813C100.709 66.0938 106.636 91.2604 107.625 97.0625C107.625 97.0625 107.5 97.0417 107.261 97C104.688 96.6146 88.9482 94.5417 76.2295 99.8438L75.0628 64.2917L75.0107 62.9688C75.0107 62.9688 75.0107 61.625 75.1357 59.5729V59.5521C75.4274 55.3229 76.3024 48.1875 79.0212 43.6042C80.4274 41.2292 82.292 39.5313 84.8441 39.2813C92.7503 38.5 92.7087 41.7396 100.052 43.5521L111.969 46.5104C111.969 46.5104 110.636 55.75 111.969 58.5H103.698C103.698 58.4896 102.261 62.4479 101.49 64.2813Z" fill="#FD8503"/>
<path d="M96.9484 15.5625C96.9484 15.5625 104.198 26.4375 100.396 31.75C97.5526 35.7292 92.7817 37.8125 92.7817 37.8125V43.5417C92.7817 43.5417 92.2088 44.0521 91.2088 44.1042C89.4692 44.1979 84.8442 41.4063 84.8442 41.4063V18.8437L96.9484 15.5625Z" fill="#FFE3CA"/>
<path d="M75.0418 65.75C75.0418 65.75 85.9793 53.073 84.2397 46.9688C82.5002 40.8646 74.2293 42.9584 69.6043 49.9896C64.9793 57.0209 63.146 59.4271 63.146 59.4271C63.146 59.4271 67.9064 65.8646 75.0418 65.75Z" fill="#FD8503"/>
<path d="M96.9272 14.5312C96.9272 14.5312 97.4897 25.8542 92.0314 28.5937C86.573 31.3333 90.698 38.0833 85.5001 43.125C83.9585 44.6146 81.6668 44.3646 79.9064 43.8437C77.3855 43.0937 74.5001 43.6354 72.7397 45.4583C72.573 45.6354 72.4168 45.8229 72.2918 46.0104C65.5418 41.5521 82.646 16.7708 82.646 16.7708L96.9272 14.5312Z" fill="#0B4870"/>
</g>
<path d="M116.75 76.4375C114.385 80.0937 113.01 84.4479 113.01 89.125C113.01 102.031 123.479 112.5 136.385 112.5C149.292 112.5 159.76 102.031 159.76 89.125C159.76 76.2187 149.292 65.75 136.385 65.75C130.687 65.75 125.458 67.7917 121.406 71.1875L113.479 69.0937L116.75 76.4375ZM144.187 6.41667C144.187 9.95833 141.312 14.5312 137.771 14.5312C134.229 14.5312 131.354 9.95833 131.354 6.41667C131.354 2.875 134.219 0 137.771 0C141.323 0 144.187 2.875 144.187 6.41667Z" fill="#FD8503"/>
<path d="M137.969 17.4375C137.313 17.4375 136.698 16.9792 136.156 16.0729C135.771 15.4271 136.063 13.4792 136.375 11.4167C136.458 10.875 136.531 10.3437 136.604 9.86458C136.146 8.4375 136.25 7.51042 136.448 7.23958C136.521 7.13542 136.625 7.10417 136.719 7.14583C136.906 7.23958 137.01 7.63542 137.01 8.27083C137.01 8.6875 136.958 9.21875 136.885 9.8125C136.917 9.91667 136.958 10.0208 137 10.1354C137.375 11.1354 137.75 10.9167 137.875 10.8333C138.177 10.6563 138.469 10.1563 138.688 9.58333C138.604 8.29167 138.698 7.36458 138.844 7.09375C138.917 6.94792 139.01 6.9375 139.052 6.9375C139.198 6.94792 139.271 7.14583 139.292 7.20833C139.479 7.70833 139.313 8.76042 138.969 9.65625C139.073 11.1667 139.427 13.2396 140.302 15.4167L140.344 15.5104L140.292 15.5938C140.25 15.6667 139.281 17.3854 138 17.4063C137.99 17.4375 137.979 17.4375 137.969 17.4375ZM136.792 10.4167C136.74 10.7604 136.688 11.1146 136.635 11.4792C136.365 13.2917 136.052 15.3333 136.365 15.8542C136.865 16.6771 137.406 17.0938 137.979 17.0833C138.969 17.0625 139.792 15.8333 140 15.5C139.24 13.5833 138.865 11.7083 138.719 10.2083C138.5 10.6458 138.24 11 137.969 11.1563C137.719 11.3229 137.219 11.4271 136.792 10.4167ZM136.625 7.5C136.552 7.63542 136.458 8.1875 136.677 9.13542C136.708 8.8125 136.729 8.52083 136.729 8.28125C136.729 7.79167 136.656 7.57292 136.625 7.5ZM139.031 7.375C138.969 7.58333 138.906 8.10417 138.917 8.85417C139.083 8.25 139.146 7.66667 139.031 7.375Z" fill="white"/>
<path d="M137.771 18.3125C136.479 18.3125 135.406 17.3333 135.302 16.0521L135.083 13.5938L135.74 13.8437C137.083 14.3542 138.563 14.3438 139.896 13.8125L140.448 13.5938L140.229 16.0521C140.125 17.3333 139.052 18.3125 137.771 18.3125Z" fill="#0B4870"/>
<path d="M164.302 18.6771C163.552 20.4584 161.135 22.1563 159.354 21.4063C157.573 20.6563 157.094 17.7501 157.844 15.9584C158.594 14.1771 160.646 13.3334 162.437 14.0834C164.229 14.8334 165.052 16.8855 164.302 18.6771Z" fill="#FD8503"/>
<path d="M158.833 22.9062C158.5 22.7708 158.292 22.4062 158.208 21.8333C158.146 21.427 158.708 20.5104 159.302 19.5416C159.458 19.2916 159.604 19.0416 159.74 18.8125C159.813 18 160.063 17.552 160.219 17.4583C160.281 17.4166 160.333 17.427 160.375 17.4687C160.448 17.552 160.417 17.7812 160.281 18.0937C160.198 18.302 160.052 18.5625 159.885 18.8437C159.885 18.9062 159.875 18.9687 159.875 19.0312C159.854 19.6145 160.083 19.5833 160.167 19.5729C160.354 19.5416 160.604 19.3541 160.844 19.1145C161.073 18.4479 161.323 18 161.448 17.8958C161.51 17.8437 161.563 17.8541 161.583 17.8645C161.656 17.9062 161.646 18.0104 161.646 18.052C161.635 18.3437 161.323 18.8333 160.958 19.2187C160.688 20 160.427 21.1145 160.417 22.3958V22.4479L160.375 22.4791C160.344 22.5104 159.49 23.1666 158.844 22.9062H158.833ZM159.729 19.125C159.635 19.2916 159.531 19.4583 159.427 19.625C158.906 20.4791 158.323 21.4479 158.365 21.7708C158.438 22.2916 158.625 22.6145 158.917 22.7291C159.417 22.927 160.094 22.4791 160.271 22.3541C160.292 21.2291 160.5 20.2083 160.75 19.4166C160.552 19.5937 160.344 19.7083 160.177 19.7395C160 19.7708 159.729 19.7187 159.729 19.125ZM160.26 17.6145C160.198 17.6666 160.031 17.927 159.948 18.4479C160.031 18.2916 160.104 18.1458 160.156 18.0312C160.25 17.7916 160.271 17.6666 160.26 17.6145ZM161.5 18.0625C161.427 18.1562 161.281 18.4062 161.135 18.7812C161.344 18.5208 161.5 18.2395 161.5 18.0625Z" fill="white"/>
<path d="M158.552 23.3021C157.906 23.0313 157.573 22.3125 157.781 21.6459L158.198 20.3646L158.479 20.625C159.041 21.1667 159.791 21.4688 160.573 21.4896L160.896 21.5L160.271 22.6875C159.948 23.3125 159.198 23.573 158.552 23.3021Z" fill="#0B4870"/>
<path d="M139.333 28.8645C139.458 30.302 138.469 32.2604 137.031 32.3854C135.594 32.5104 134.261 30.7708 134.136 29.3333C134.011 27.8958 135.063 26.6249 136.5 26.4999C137.938 26.3749 139.198 27.427 139.333 28.8645Z" fill="#FD8503"/>
<path d="M137.208 33.5521C136.937 33.573 136.677 33.4167 136.427 33.0625C136.25 32.8125 136.292 32.0105 136.344 31.1667C136.354 30.948 136.364 30.7292 136.375 30.5313C136.135 29.9688 136.146 29.5938 136.219 29.4792C136.25 29.4375 136.281 29.4167 136.323 29.4271C136.406 29.4584 136.458 29.6146 136.479 29.875C136.489 30.0417 136.489 30.2605 136.479 30.5105L136.542 30.6355C136.729 31.0313 136.875 30.9271 136.917 30.8855C137.031 30.8021 137.135 30.5938 137.198 30.3542C137.114 29.8334 137.125 29.4584 137.167 29.3438C137.187 29.2813 137.229 29.2709 137.25 29.2709C137.312 29.2709 137.344 29.3438 137.354 29.375C137.448 29.573 137.417 30 137.312 30.3855C137.406 30.9896 137.625 31.823 138.062 32.6667L138.083 32.7084L138.062 32.75C138.052 32.7813 137.719 33.5105 137.198 33.573C137.219 33.5521 137.219 33.5521 137.208 33.5521ZM136.479 30.75C136.469 30.8855 136.458 31.0417 136.458 31.1875C136.417 31.9271 136.364 32.7709 136.51 32.9688C136.739 33.2813 136.979 33.4375 137.208 33.4063C137.604 33.3646 137.896 32.8334 137.969 32.6875C137.594 31.9375 137.375 31.1875 137.25 30.5834C137.177 30.7709 137.083 30.9167 136.979 31C136.885 31.0834 136.687 31.1459 136.479 30.75ZM136.302 29.573C136.271 29.6355 136.26 29.8646 136.385 30.2292C136.385 30.0938 136.385 29.9792 136.375 29.8855C136.354 29.6875 136.323 29.6042 136.302 29.573ZM137.281 29.4375C137.26 29.5209 137.26 29.7396 137.292 30.0417C137.333 29.7917 137.333 29.5521 137.281 29.4375Z" fill="white"/>
<path d="M137.167 33.9167C136.646 33.9688 136.177 33.6042 136.083 33.0938L135.906 32.1042L136.177 32.1771C136.74 32.3334 137.344 32.2709 137.865 32.0105L138.083 31.8959V32.8959C138.083 33.4375 137.688 33.875 137.167 33.9167Z" fill="#0B4870"/>
</g>
<defs>
<clipPath id="clip0_131_31">
<rect width="200" height="112.5" fill="white"/>
</clipPath>
</defs>
</svg>
