<svg width="59" height="60" viewBox="0 0 59 60" fill="none" xmlns="http://www.w3.org/2000/svg">
<path fill-rule="evenodd" clip-rule="evenodd" d="M28.6634 7.56436V35.4851L26.5842 37.2673L24.505 35.4851V11.1287L21.8317 13.505V35.4851L19.7525 37.2673L17.3762 35.4851V17.6634L15 20.0396V36.0792L18.2673 39.0495L15 42.6139L18.2673 45.5842L15 48.5545L23.0198 56.5743L26.2871 53.604L29.8515 56.5743L33.4158 53.604L36.6832 56.5743L45 48.5545L41.4356 45.5842L45 42.0198L41.7327 39.0495L45 36.0792V20.3366L42.6238 17.9604V34.8911L39.9505 37.5644L38.4653 36.0792V4H35.7921V35.4851L33.4158 37.2673L31.3366 35.4851V4.89109L28.6634 7.56436ZM37.175 37.2673L38.8553 38.9476L37.175 40.6278L35.4948 38.9476L37.175 37.2673ZM28.1622 42.5119L26.4819 40.8317L24.8017 42.5119L26.4819 44.1922L28.1622 42.5119ZM33.0166 40.8317L34.6968 42.5119L33.0166 44.1922L31.3363 42.5119L33.0166 40.8317ZM40.1453 40.8317L41.8256 42.5119L40.1453 44.1922L38.4651 42.5119L40.1453 40.8317ZM22.9176 43.802L24.5978 45.4822L22.9176 47.1625L21.2373 45.4822L22.9176 43.802ZM21.6278 48.4525L19.9476 46.7723L18.2673 48.4525L19.9476 50.1328L21.6278 48.4525ZM22.9179 50.3366L24.5981 52.0169L22.9179 53.6971L21.2376 52.0169L22.9179 50.3366ZM28.1622 48.4525L26.4819 46.7723L24.8017 48.4525L26.4819 50.1328L28.1622 48.4525ZM30.0463 50.3366L31.7266 52.0169L30.0463 53.6971L28.366 52.0169L30.0463 50.3366ZM31.7266 45.4822L30.0463 43.802L28.366 45.4822L30.0463 47.1625L31.7266 45.4822ZM33.0166 46.7723L34.6968 48.4525L33.0166 50.1328L31.3363 48.4525L33.0166 46.7723ZM38.2612 45.4822L36.581 43.802L34.9007 45.4822L36.581 47.1625L38.2612 45.4822ZM40.1453 46.7723L41.8256 48.4525L40.1453 50.1328L38.4651 48.4525L40.1453 46.7723ZM38.2612 52.0169L36.581 50.3366L34.9007 52.0169L36.581 53.6971L38.2612 52.0169ZM31.7266 38.9476L30.0463 37.2673L28.366 38.9476L30.0463 40.6278L31.7266 38.9476ZM23.5119 37.2673L25.1922 38.9476L23.5119 40.6278L21.8317 38.9476L23.5119 37.2673ZM21.6278 41.9179L19.9476 40.2376L18.2673 41.9179L19.9476 43.5981L21.6278 41.9179Z" fill="#19AB67"/>
</svg>
