<svg width="200" height="200" viewBox="0 0 200 200" fill="none" xmlns="http://www.w3.org/2000/svg">
<path d="M169.401 129.4C166.991 123.918 162.362 119.343 156.802 117.092C151.011 114.746 144.361 115.6 138.261 114.814C132.963 114.132 129.14 111.767 125.977 107.562C122.946 103.533 120.228 99.0708 115.273 97.2071C111.357 95.7345 106.905 96.1426 103.013 97.6772C95.8412 100.505 90.4246 106.517 85.8628 112.507C81.6978 117.976 78.3006 123.964 70.5967 124.159C62.8879 124.355 55.549 119.957 47.7872 121.122C37.5288 122.662 28.9857 131.202 27.1954 141.369C25.5176 150.897 29.7278 160.138 36.9607 165.568H161.283C170.397 155.9 175.179 142.543 169.401 129.4Z" fill="#F7F0E3"/>
<path d="M57.0161 165.568H57.3581C59.7332 162.958 61.5937 159.79 62.7764 156.274C64.6907 150.583 64.61 144.61 62.5492 139.456C61.5077 136.851 60.0038 134.424 58.5494 132.076C57.0743 129.695 55.5492 127.233 54.514 124.595C54.086 123.504 53.7698 122.333 53.5796 121.138C53.4939 121.127 53.4081 121.118 53.3223 121.107C53.5134 122.345 53.8385 123.558 54.2813 124.686C55.3246 127.346 56.8559 129.817 58.3368 132.208C59.7855 134.546 61.2836 136.964 62.3169 139.549C64.3557 144.648 64.4347 150.559 62.5393 156.194C61.3421 159.754 59.4426 162.951 57.0161 165.568Z" fill="white"/>
<path d="M160.683 154.726C163.244 155.272 165.713 155.761 168.1 156.069C168.141 155.99 168.181 155.911 168.221 155.832C165.814 155.526 163.322 155.033 160.735 154.481C156.795 153.642 152.531 152.733 148.301 152.733C145.682 152.733 143.077 153.082 140.571 154.01C139.621 154.362 138.706 154.809 137.835 155.34C135.573 154.376 133.298 153.323 131.044 152.167C132.679 150.935 134.332 149.729 136.002 148.563C148.4 139.906 159.841 134.998 170.895 133.605C170.873 133.524 170.85 133.443 170.827 133.362C159.744 134.766 148.277 139.686 135.859 148.358C134.153 149.549 132.466 150.781 130.797 152.04C128.263 150.731 125.759 149.292 123.335 147.704C118.94 144.824 113.711 140.713 109.145 135.25C126.84 133.265 144.855 130.764 159.567 120.931C160.126 120.558 160.745 120.118 161.386 119.618C161.315 119.568 161.243 119.518 161.172 119.469C160.557 119.945 159.965 120.365 159.428 120.723C144.72 130.553 126.672 133.035 108.954 135.02C105.727 131.117 102.844 126.533 100.841 121.226C97.72 112.959 97.8847 104.847 101.293 98.9684C101.441 98.7131 101.597 98.4618 101.758 98.213C101.616 98.2783 101.475 98.3461 101.334 98.4139C101.246 98.556 101.16 98.6988 101.076 98.8429C97.6306 104.787 97.4593 112.977 100.607 121.314C102.599 126.593 105.457 131.159 108.657 135.053C107.631 135.168 106.606 135.281 105.583 135.394C101.893 135.801 98.0781 136.222 94.3735 136.699C93.0212 136.873 91.6461 137.076 90.2778 137.331C87.3445 131.14 84.1225 125.1 79.9574 119.921C79.8979 119.98 79.8372 120.038 79.7771 120.097C83.9065 125.237 87.1085 131.231 90.0238 137.379C84.0558 138.517 78.2606 140.656 75.1664 145.637C72.2766 150.288 72.2792 156.716 75.1742 164.745C75.2743 165.023 75.3774 165.296 75.482 165.568H75.7498C75.6352 165.271 75.5212 164.97 75.4094 164.66C72.5417 156.707 72.5315 150.351 75.3789 145.768C78.4364 140.848 84.1997 138.736 90.1345 137.612C91.17 139.802 92.1703 142.011 93.1645 144.206L93.2727 144.445C96.7253 152.066 100.296 159.422 104.972 165.568H105.284C100.566 159.411 96.9747 152.011 93.5005 144.342L93.3924 144.103C92.4067 141.926 91.4147 139.737 90.3886 137.565C91.7305 137.317 93.0791 137.118 94.4057 136.947C98.108 136.471 101.922 136.05 105.61 135.643C106.687 135.524 107.767 135.405 108.848 135.284C113.457 140.832 118.752 145 123.198 147.913C125.595 149.483 128.071 150.909 130.576 152.207C126.323 155.424 122.187 158.808 118.148 162.113C116.749 163.257 115.335 164.413 113.909 165.568H114.305C115.65 164.477 116.986 163.386 118.306 162.306C122.374 158.979 126.54 155.57 130.823 152.335C133.064 153.487 135.326 154.539 137.576 155.502C134.497 157.46 131.988 160.492 130.47 164.175C130.28 164.636 130.115 165.101 129.961 165.568H130.224C130.369 165.133 130.525 164.7 130.702 164.27C132.223 160.577 134.754 157.548 137.856 155.621C144.148 158.294 150.332 160.278 155.645 161.85L155.845 161.909C158.084 162.571 160.374 163.25 162.4 164.34C162.457 164.275 162.513 164.211 162.57 164.146C160.511 163.029 158.187 162.341 155.916 161.669L155.716 161.61C150.457 160.054 144.344 158.094 138.12 155.461C138.931 154.978 139.779 154.571 140.658 154.245C147.144 151.841 154.337 153.374 160.683 154.726Z" fill="white"/>
<path d="M37.5876 138.532C38.6918 143.052 38.1992 147.933 36.2359 151.924C34.95 154.539 33.093 156.905 30.8057 158.938C30.8512 159.008 30.8977 159.079 30.9439 159.149C33.2683 157.09 35.1549 154.689 36.4603 152.035C38.4491 147.992 38.9485 143.049 37.8304 138.473C36.9569 134.898 35.2009 131.869 32.7748 129.678C32.7207 129.742 32.667 129.806 32.6136 129.87C34.9993 132.027 36.727 135.01 37.5876 138.532Z" fill="white"/>
<path d="M94.1698 81.2762C96.3477 83.5017 97.3238 87.2509 96.123 90.7076C94.9603 94.0546 92.4114 96.827 89.3491 98.6093C86.8852 100.043 83.6712 100.834 81.248 99.3327C79.4372 98.2105 78.4982 96.0089 78.446 93.8792C78.3938 91.7495 79.11 89.674 79.9952 87.7363C81.243 85.0049 82.9223 82.3562 85.424 80.6952C88.8724 78.4057 92.0764 79.137 94.1698 81.2762Z" fill="#F7F0E3"/>
<path d="M65.3006 42.2564H47.2666V34.2H65.3006V42.2564ZM47.6416 41.8814H64.9256V34.575H47.6416V41.8814Z" fill="#E9DDCA"/>
<path d="M53.5682 49.9608H35.5342V41.9044H53.5682V49.9608ZM35.9092 49.5858H53.1932V42.2794H35.9092V49.5858Z" fill="#E9DDCA"/>
<path d="M167.911 58.5454C166.743 54.6625 164.689 51.0976 161.749 47.8384C158.803 44.5792 154.785 41.8887 149.695 39.7608C144.605 37.6328 138.138 36.5689 130.294 36.5689C124.036 36.5689 117.659 37.4127 111.162 39.1004C104.659 40.7942 99.0179 43.2034 94.2334 46.3342L100.461 63.4321L97.1233 66.136L101.964 67.5586C106.742 65.0576 111.096 63.2416 115.024 62.1103C118.946 60.9852 123.114 60.4226 127.533 60.4226C131.946 60.4226 135.288 61.4866 137.557 63.6145C139.827 65.7486 140.958 68.3106 140.958 71.3191C140.958 74.9513 139.791 78.1738 137.467 80.9927C135.132 83.8116 132.557 86.6611 129.737 89.5412C127.779 91.5407 125.874 93.6075 124.036 95.7355C122.198 97.8695 120.569 100.15 119.162 102.596C117.749 105.036 116.617 107.665 115.761 110.484C114.898 113.303 114.473 116.465 114.473 119.968C114.473 121.1 114.497 122.445 114.563 124.01C114.574 124.299 114.589 124.581 114.606 124.858H110.03L115.024 128.236H139.306C139.18 127.484 139.12 126.609 139.12 125.606C139.12 124.603 139.12 123.851 139.12 123.35C139.12 121.222 139.551 119.125 140.408 117.058C141.264 114.991 142.342 113.022 143.629 111.139C144.917 109.261 146.354 107.476 147.953 105.788C149.545 104.095 151.078 102.498 152.551 100.994C154.51 98.9948 156.534 96.8668 158.617 94.6105C160.701 92.3542 162.546 89.9816 164.138 87.4746C165.731 84.9676 167.049 82.2465 168.09 79.2991C169.132 76.3579 169.659 73.1354 169.659 69.6255C169.659 66.1216 169.072 62.4283 167.911 58.5454Z" fill="#D55D00"/>
<path d="M122.392 59.2299C118.025 59.2299 113.906 59.7743 110.03 60.8632C106.148 61.958 101.846 63.7156 97.1233 66.136L89.4834 45.5953C94.2117 42.5654 99.7863 40.2338 106.213 38.5945C112.634 36.9612 118.936 36.1445 125.121 36.1445C132.873 36.1445 139.264 37.1742 144.294 39.2336C149.324 41.293 153.295 43.8968 156.207 47.051C159.112 50.2052 161.142 53.6553 162.296 57.4131C163.444 61.1709 164.024 64.7453 164.024 68.1362C164.024 71.533 163.503 74.6517 162.474 77.4982C161.444 80.3506 160.142 82.984 158.568 85.4103C156.994 87.8366 155.171 90.1327 153.112 92.3164C151.052 94.5001 149.052 96.5595 147.117 98.4946C145.661 99.9504 144.146 101.495 142.572 103.134C140.992 104.768 139.572 106.496 138.299 108.312C137.027 110.135 135.962 112.04 135.116 114.041C134.269 116.041 133.843 118.071 133.843 120.13C133.843 120.615 133.843 121.343 133.843 122.314C133.843 123.284 133.903 124.131 134.027 124.858H110.03C109.782 123.645 109.634 122.284 109.574 120.769C109.509 119.254 109.486 117.952 109.486 116.858C109.486 113.467 109.906 110.407 110.758 107.679C111.604 104.951 112.723 102.406 114.119 100.045C115.51 97.678 117.119 95.4706 118.936 93.4053C120.753 91.3459 122.635 89.3457 124.57 87.4106C127.357 84.6233 129.902 81.8656 132.21 79.1375C134.506 76.4094 135.66 73.2907 135.66 69.7755C135.66 66.8639 134.542 64.3844 132.299 62.3191C130.056 60.2596 126.754 59.2299 122.392 59.2299Z" fill="#FD8503"/>
<path d="M140.968 151.805C140.968 156.183 139.551 159.561 136.716 161.944C133.882 164.332 130.679 165.521 127.102 165.521C123.52 165.521 120.316 164.332 117.482 161.944C114.653 159.561 113.235 156.183 113.235 151.805C113.235 147.432 114.653 144.054 117.482 141.666C121.845 137.984 128.3 137.164 133.408 139.748C137.941 142.041 140.968 146.698 140.968 151.805Z" fill="#D55D00"/>
<path d="M136.218 151.805C136.218 156.183 134.801 159.561 131.966 161.944C129.132 164.332 125.929 165.521 122.352 165.521C118.77 165.521 115.566 164.332 112.732 161.944C109.903 159.561 108.485 156.183 108.485 151.805C108.485 147.432 109.903 144.054 112.732 141.666C115.566 139.283 118.77 138.089 122.352 138.089C125.929 138.089 129.132 139.283 131.966 141.666C134.801 144.054 136.218 147.432 136.218 151.805Z" fill="#FD8503"/>
<path d="M64.3312 89.7394C64.5973 88.3199 63.6622 86.9535 62.2426 86.6875C60.8231 86.4215 59.4567 87.3565 59.1907 88.7761C58.9246 90.1956 59.8597 91.562 61.2793 91.828C62.6988 92.0941 64.0652 91.159 64.3312 89.7394Z" fill="#D3DFFF"/>
<path d="M65.5831 94.6553C65.7327 93.8569 65.2022 93.0875 64.3981 92.9368C63.594 92.7861 62.8209 93.3112 62.6713 94.1096C62.5217 94.908 63.0522 95.6774 63.8563 95.8281C64.6603 95.9788 65.4334 95.4537 65.5831 94.6553Z" fill="#D3DFFF"/>
<path d="M62.5882 83.3748C66.609 79.354 66.609 72.8349 62.5882 68.814C58.5673 64.7932 52.0483 64.7932 48.0274 68.814C44.0066 72.8349 44.0066 79.354 48.0274 83.3748C52.0483 87.3956 58.5673 87.3956 62.5882 83.3748Z" fill="#D3DFFF"/>
<path d="M51.3548 77.3918C52.0712 77.3918 52.652 76.811 52.652 76.0946C52.652 75.3782 52.0712 74.7974 51.3548 74.7974C50.6384 74.7974 50.0576 75.3782 50.0576 76.0946C50.0576 76.811 50.6384 77.3918 51.3548 77.3918Z" fill="white"/>
<path d="M55.3079 77.3918C56.0244 77.3918 56.6051 76.811 56.6051 76.0946C56.6051 75.3782 56.0244 74.7974 55.3079 74.7974C54.5915 74.7974 54.0107 75.3782 54.0107 76.0946C54.0107 76.811 54.5915 77.3918 55.3079 77.3918Z" fill="white"/>
<path d="M59.262 77.3918C59.9785 77.3918 60.5592 76.811 60.5592 76.0946C60.5592 75.3782 59.9785 74.7974 59.262 74.7974C58.5456 74.7974 57.9648 75.3782 57.9648 76.0946C57.9648 76.811 58.5456 77.3918 59.262 77.3918Z" fill="white"/>
<path d="M47.9337 160.367L48.8957 164.075C49.1466 165.043 50.0817 165.696 51.1163 165.626C54.2706 165.411 60.8243 164.639 64.5858 161.866L63.5165 156.521C58.3447 156.229 53.5081 156.517 49.3201 157.927C48.2715 158.28 47.665 159.331 47.9337 160.367Z" fill="#102048"/>
<path d="M53.9617 163.319C53.907 163.319 53.8568 163.283 53.8413 163.228L52.5496 158.603C52.531 158.536 52.5699 158.467 52.6364 158.449C52.7033 158.43 52.7719 158.469 52.7905 158.535L54.0822 163.16C54.1007 163.227 54.0619 163.296 53.9954 163.314C53.9841 163.317 53.9727 163.319 53.9617 163.319Z" fill="white"/>
<path d="M56.7536 162.694C56.6989 162.694 56.6487 162.658 56.6332 162.603L55.3415 157.978C55.323 157.911 55.3618 157.842 55.4283 157.823C55.4953 157.805 55.5638 157.844 55.5824 157.91L56.8741 162.535C56.8927 162.602 56.8538 162.671 56.7873 162.689C56.776 162.692 56.7647 162.694 56.7536 162.694Z" fill="white"/>
<path d="M59.995 140.319L47.9746 143.886L56.9015 156.118L69.7173 157.137L87.3942 149.662L80.677 139.554L59.995 140.319Z" fill="#FD8503"/>
<path d="M74.8147 142.018C101.212 134.203 105.455 157.533 64.2675 161.78C62.8127 160.143 61.1126 157.303 60.4375 154.929L82.1879 144.877L74.8147 142.018Z" fill="#FD8503"/>
<path d="M75.9355 158.738C74.701 158.343 73.5179 157.562 73.5179 157.562L69.2754 158.892L70.2476 163.508L74.6548 164.403C75.9974 161.947 76.0758 159.931 75.9355 158.738Z" fill="#F9B384"/>
<path d="M60.5312 155.091L60.3428 154.766C64.8803 152.129 76.5031 145.794 86.4056 143.926L86.4751 144.294C76.6297 146.152 65.052 152.463 60.5312 155.091Z" fill="#D55D00"/>
<path d="M59.9951 140.319C35.4241 135.647 29.0604 159.261 70.2477 163.508C71.7025 161.871 72.8429 159.936 73.518 157.562C67.1913 153.328 60.1174 149.305 52.3646 145.472L59.9951 140.319Z" fill="#FD8503"/>
<path d="M73.4173 157.72C72.2485 156.976 71.0306 156.19 69.7412 155.357C63.2685 151.178 55.9322 146.441 49.6992 143.74L49.8483 143.396C56.1097 146.109 63.4597 150.855 69.9445 155.042C71.2334 155.874 72.4508 156.66 73.6186 157.404L73.4173 157.72Z" fill="#D55D00"/>
<path d="M41.9678 152.027L41.6396 151.846C42.5619 150.176 44.0392 149.05 46.0304 148.498L46.1305 148.86C44.2134 149.391 42.8518 150.427 41.9678 152.027Z" fill="#D55D00"/>
<path d="M93.2506 150.605C92.3666 149.005 91.005 147.969 89.0879 147.438L89.188 147.077C91.1793 147.628 92.6565 148.755 93.5788 150.424L93.2506 150.605Z" fill="#D55D00"/>
<path d="M67.947 163.3L67.6729 163.044C69.6384 160.939 70.8456 158.717 71.3634 156.25L71.7304 156.327C71.1982 158.863 69.9606 161.144 67.947 163.3Z" fill="#D55D00"/>
<path d="M88.1902 157.364C85.0422 155.419 78.9393 158.779 77.4073 158.949C76.9607 158.999 76.444 158.901 75.9359 158.738C76.0762 159.931 75.9978 161.947 74.6553 164.403L75.4039 164.555C75.4039 164.555 80.5791 166.452 86.069 165.348C91.1363 164.329 90.665 158.892 88.1902 157.364Z" fill="#102048"/>
<path d="M83.8994 163.725C83.8869 163.725 83.8743 163.723 83.8617 163.719C83.7959 163.698 83.7594 163.628 83.7802 163.562C84.1542 162.378 84.3174 160.048 83.2341 158.484C83.1948 158.427 83.209 158.349 83.2657 158.31C83.3223 158.27 83.4003 158.285 83.4396 158.341C84.574 159.98 84.4073 162.407 84.0185 163.638C84.0017 163.691 83.9525 163.725 83.8994 163.725Z" fill="white"/>
<path d="M81.4307 164.194C81.4182 164.194 81.4056 164.192 81.393 164.188C81.3272 164.167 81.2907 164.097 81.3115 164.031C81.6855 162.847 81.8487 160.517 80.7654 158.953C80.7261 158.896 80.7403 158.818 80.797 158.779C80.8536 158.739 80.9315 158.753 80.9709 158.81C82.1053 160.449 81.9386 162.875 81.5498 164.107C81.533 164.16 81.4838 164.194 81.4307 164.194Z" fill="white"/>
<path d="M55.648 109.873C55.648 109.873 61.8361 104.611 61.607 103.611C61.4432 102.896 59.6903 103.944 59.6903 103.944C59.6903 103.944 62.1486 101.027 62.0236 100.673C61.8002 100.04 60.1 101.22 60.1 101.22C60.1 101.22 61.2492 99.5658 60.6998 99.2963C60.1504 99.0268 58.9526 100.046 58.9526 100.046C58.9526 100.046 59.6524 99.1277 59.3236 98.8868C58.9948 98.6458 57.5764 99.6366 57.5764 99.6366C57.5764 99.6366 58.0854 98.4786 57.0041 98.9176C55.9228 99.3566 48.3408 106.315 48.3408 106.315L55.648 109.873Z" fill="#F9B384"/>
<path d="M58.1797 103.631C58.1496 103.631 58.1194 103.621 58.0954 103.599C57.0332 102.628 56.5649 102.393 55.393 102.032C55.327 102.012 55.2899 101.942 55.3102 101.876C55.3305 101.81 55.4005 101.773 55.4666 101.793C56.6808 102.167 57.1656 102.411 58.2641 103.414C58.3151 103.461 58.3187 103.54 58.2722 103.591C58.2474 103.618 58.2136 103.631 58.1797 103.631Z" fill="#E28B6D"/>
<path d="M56.3156 106.486C56.3098 106.486 56.304 106.485 56.2982 106.484C56.2298 106.475 56.1821 106.412 56.1917 106.343C56.3133 105.473 56.5872 104.929 57.0291 104.681C57.4068 104.469 57.8983 104.49 58.49 104.746C58.5534 104.773 58.5826 104.847 58.5552 104.91C58.5279 104.974 58.4543 105.003 58.3909 104.975C57.8748 104.752 57.4579 104.727 57.1516 104.899C56.7875 105.104 56.5478 105.601 56.4393 106.378C56.4305 106.44 56.377 106.486 56.3156 106.486Z" fill="#E28B6D"/>
<path d="M56.0235 101.225C55.9903 101.225 55.9571 101.212 55.9325 101.186C55.8851 101.136 55.8875 101.056 55.9377 101.009L57.4905 99.5456C57.5407 99.498 57.6198 99.5006 57.6672 99.5508C57.7146 99.6011 57.7122 99.6802 57.662 99.7275L56.1092 101.191C56.0851 101.214 56.0543 101.225 56.0235 101.225Z" fill="#E28B6D"/>
<path d="M57.461 101.725C57.4298 101.725 57.3987 101.714 57.3744 101.69C57.3246 101.642 57.323 101.563 57.3708 101.514L58.8623 99.9595C58.9101 99.9095 58.9892 99.9079 59.0391 99.9559C59.0889 100.004 59.0905 100.083 59.0427 100.133L57.5512 101.687C57.5266 101.712 57.4938 101.725 57.461 101.725Z" fill="#E28B6D"/>
<path d="M58.9297 102.6C58.8992 102.6 58.8686 102.589 58.8445 102.567C58.794 102.519 58.7912 102.44 58.8383 102.39L60.0085 101.134C60.0557 101.084 60.1346 101.081 60.1852 101.128C60.2357 101.175 60.2385 101.255 60.1914 101.305L59.0212 102.56C58.9965 102.587 58.9632 102.6 58.9297 102.6Z" fill="#E28B6D"/>
<path d="M79.0234 145.068L56.3984 145.943L53.8984 125.318C53.8984 125.318 61.4727 118.134 64.3868 115.488L69.3063 115.236C84.5694 122.174 82.0701 130.839 79.0234 145.068Z" fill="#3A6BEA"/>
<path d="M69.3066 115.236C69.3066 115.236 86.7687 116.729 92.2737 128.693C97.6604 140.4 75.5237 144.568 75.5237 144.568L69.3066 115.236Z" fill="#3A6BEA"/>
<path d="M49.3464 117.8L56.5623 109.019L49.8145 104.929C46.9997 106.886 41.5565 111.319 36.9436 116.339C35.9254 117.448 35.1301 118.742 34.7295 120.167C34.3877 121.383 34.3256 122.584 34.5177 123.76C35.0184 126.826 37.4298 129.191 40.6487 129.568C43.3978 129.89 53.8987 129.068 62.3987 126.568L64.8987 116.919C63.6141 116.19 54.0664 116.064 49.3464 117.8Z" fill="#3A6BEA"/>
<g opacity="0.8">
<path d="M83.8786 119.984C83.9162 119.975 83.9539 119.967 83.9915 119.958C83.9126 119.911 83.8334 119.866 83.7543 119.82C82.4746 120.115 81.1542 120.416 79.8527 120.573C79.0705 120.667 76.4571 120.84 75.6933 119.098C75.3133 118.232 75.6009 117.269 76.0307 116.592C75.9679 116.574 75.9058 116.557 75.8434 116.539C75.4033 117.255 75.1208 118.26 75.5217 119.173C76.3371 121.033 79.0604 120.857 79.8752 120.759C81.2143 120.597 82.5687 120.286 83.8786 119.984Z" fill="white"/>
<path d="M92.0279 133.477C91.1937 133.155 90.3319 132.822 89.4258 132.907C87.8366 133.057 86.4766 134.629 86.3942 136.41C86.3379 137.625 86.8019 138.898 87.6866 140.018C87.7399 139.984 87.793 139.951 87.8459 139.917C86.981 138.829 86.5271 137.594 86.5815 136.419C86.6599 134.727 87.9437 133.235 89.4434 133.094C90.3049 133.014 91.1089 133.323 91.9602 133.652C92.2641 133.769 92.573 133.888 92.8869 133.988C92.9031 133.928 92.9188 133.867 92.9334 133.806C92.6275 133.708 92.3253 133.592 92.0279 133.477Z" fill="white"/>
<path d="M47.9533 127.514C46.8631 126.612 45.1691 126.371 43.3066 126.853C41.6467 127.282 40.2225 128.133 39.2441 129.258C39.3084 129.279 39.3712 129.302 39.4364 129.321C40.3883 128.254 41.7594 127.447 43.3534 127.034C45.1569 126.568 46.7903 126.796 47.8339 127.658C48.3299 128.069 48.6806 128.601 48.9355 129.176C48.9999 129.169 49.0645 129.161 49.1293 129.154C48.8625 128.535 48.4906 127.958 47.9533 127.514Z" fill="white"/>
<path d="M38.0977 115.113C40.1405 114.605 42.1339 113.893 43.9725 112.833C44.6672 112.433 45.4517 111.923 46.0034 111.174C46.5903 110.377 46.7853 109.428 46.5251 108.636C46.423 108.325 46.2423 108.052 46.0164 107.833C45.9686 107.873 45.9203 107.912 45.8722 107.952C46.0831 108.153 46.2521 108.405 46.3469 108.694C46.5882 109.429 46.4034 110.315 45.8525 111.063C45.3214 111.784 44.5569 112.281 43.879 112.671C42.1448 113.67 40.269 114.361 38.3422 114.86C38.2605 114.944 38.1791 115.028 38.0977 115.113Z" fill="white"/>
</g>
<path d="M70.9044 110.651L70.9012 110.971L70.8505 115.944L70.8442 116.483C70.8347 117.326 70.4892 118.09 69.9314 118.644C69.3767 119.196 68.6129 119.541 67.7666 119.547C66.0614 119.557 64.6668 118.188 64.651 116.479L64.5908 110.333L70.9044 110.651Z" fill="#F9B384"/>
<path d="M70.9016 110.971L70.8509 115.944C68.087 114.819 66.9492 111.826 66.9492 111.826L70.9016 110.971Z" fill="#102048"/>
<path d="M71.9948 102.293C72.9853 103.481 75.8775 110.217 72.9457 112.514C69.6465 115.1 64.6256 110.85 64.6256 110.85L63.9521 103.006L68.3102 101.857L71.9948 102.293Z" fill="#F9B384"/>
<path d="M61.7318 101.86C61.7318 101.86 52.0651 106.902 59.9471 121.435C60.9594 123.302 63.2017 124.117 65.1199 123.206C67.1776 122.229 67.9567 119.715 66.8394 117.73C65.5501 115.44 64.3057 112.49 64.8369 110.296L61.7318 101.86Z" fill="#102048"/>
<path d="M64.4923 106.096C65.5135 105.075 65.5135 103.419 64.4923 102.398C63.4711 101.377 61.8155 101.377 60.7943 102.398C59.7731 103.419 59.7731 105.075 60.7943 106.096C61.8155 107.117 63.4711 107.117 64.4923 106.096Z" fill="#FBC343"/>
<path d="M65.8618 107.389C65.5793 105.758 65.4071 104.639 67.0559 103.798C67.0559 103.798 72.8667 104.855 73.9761 102.662C75.0854 100.47 73.395 97.01 69.8557 99.4135C60.7961 97.6438 59.5811 106.122 62.328 108.949L65.0392 108.533C65.5848 108.449 65.9559 107.933 65.8618 107.389Z" fill="#102048"/>
<path d="M70.3599 107.78C70.5733 107.78 70.7462 107.607 70.7462 107.394C70.7462 107.18 70.5733 107.007 70.3599 107.007C70.1466 107.007 69.9736 107.18 69.9736 107.394C69.9736 107.607 70.1466 107.78 70.3599 107.78Z" fill="#102048"/>
<path d="M72.9752 106.492C73.1885 106.492 73.3615 106.319 73.3615 106.106C73.3615 105.893 73.1885 105.72 72.9752 105.72C72.7618 105.72 72.5889 105.893 72.5889 106.106C72.5889 106.319 72.7618 106.492 72.9752 106.492Z" fill="#102048"/>
<path d="M72.7075 108.583C72.6804 108.583 72.6533 108.573 72.6322 108.552C72.5884 108.511 72.5866 108.442 72.6283 108.398C72.7832 108.235 72.9529 108.005 72.8816 107.839C72.8075 107.667 72.4944 107.592 72.351 107.592C72.0428 107.592 71.8948 107.044 71.8683 106.934C71.8541 106.875 71.8902 106.816 71.9489 106.802C72.0075 106.787 72.0667 106.824 72.0809 106.883C72.1372 107.114 72.2646 107.373 72.351 107.373C72.4985 107.373 72.9496 107.443 73.0826 107.753C73.1776 107.974 73.0781 108.242 72.7869 108.548C72.7653 108.571 72.7364 108.583 72.7075 108.583Z" fill="#102048"/>
<path d="M72.7274 110.048C72.7063 110.048 72.6851 110.042 72.6663 110.03C71.939 109.539 71.2046 109.95 71.1972 109.955C71.145 109.985 71.0781 109.967 71.0478 109.914C71.0177 109.862 71.0357 109.795 71.0881 109.765C71.1229 109.745 71.9494 109.282 72.7886 109.848C72.8386 109.882 72.8519 109.95 72.8181 110C72.797 110.032 72.7625 110.048 72.7274 110.048Z" fill="#102048"/>
<path d="M70.1908 105.721C70.4106 106.134 70.0276 106.217 69.5789 106.456C69.1302 106.694 68.6708 106.781 68.566 106.584C68.4612 106.387 68.7399 106.033 69.1886 105.795C69.6373 105.557 70.0207 105.4 70.1908 105.721Z" fill="#102048"/>
<path d="M71.8274 104.974C71.924 105.343 72.1993 105.181 72.5998 105.077C73.0003 104.972 73.3238 104.771 73.2777 104.595C73.2316 104.418 72.8696 104.361 72.4691 104.465C72.0686 104.57 71.7526 104.688 71.8274 104.974Z" fill="#102048"/>
<path opacity="0.4" d="M69.3536 110.033C69.8161 109.607 69.8452 108.886 69.4187 108.423C68.9922 107.961 68.2715 107.932 67.809 108.358C67.3466 108.785 67.3175 109.506 67.744 109.968C68.1705 110.431 68.8912 110.46 69.3536 110.033Z" fill="#EB5D60"/>
<path d="M65.64 110.265C66.1605 109.59 65.9611 108.564 65.1946 107.973C64.4281 107.381 63.3848 107.449 62.8643 108.123C62.3438 108.798 62.5432 109.824 63.3097 110.415C64.0762 111.007 65.1195 110.94 65.64 110.265Z" fill="#F9B384"/>
<path d="M64.9302 109.772C64.8698 109.772 64.8208 109.723 64.8208 109.663C64.8208 109.34 64.6634 109.041 64.3998 108.864C64.1744 108.712 63.9056 108.677 63.681 108.768C63.625 108.791 63.5612 108.764 63.5384 108.708C63.5156 108.652 63.5424 108.589 63.5984 108.566C63.8905 108.447 64.2358 108.49 64.5219 108.682C64.8461 108.9 65.0396 109.267 65.0396 109.663C65.0395 109.723 64.9906 109.772 64.9302 109.772Z" fill="#102048"/>
<path d="M49.2535 117.711L45.3066 121.981L45.4902 122.151L49.4371 117.881L49.2535 117.711Z" fill="#102048"/>
<path d="M77.0602 136.063L76.9873 135.824C79.8606 134.949 82.6491 133.901 85.1761 130.741L85.3713 130.897C82.7998 134.113 79.9726 135.176 77.0602 136.063Z" fill="#102048"/>
<path d="M78.8068 126.382H54.365C53.486 126.382 52.7734 127.153 52.7734 128.104V145.555C52.7734 146.506 53.486 147.277 54.365 147.277H78.8069C79.6859 147.277 80.3985 146.506 80.3985 145.555V128.104C80.3984 127.153 79.6858 126.382 78.8068 126.382Z" fill="#D3DFFF"/>
<path d="M67.8765 135.726C67.9693 135.726 68.0445 135.808 68.0445 135.908V137.751C68.0445 137.851 67.9693 137.932 67.8765 137.932H65.2959C65.2031 137.932 65.1279 137.851 65.1279 137.751V135.908C65.1279 135.808 65.2031 135.726 65.2959 135.726H67.8765ZM67.8765 135.226H65.2959C64.9276 135.226 64.6279 135.532 64.6279 135.908V137.751C64.6279 138.127 64.9276 138.432 65.2959 138.432H67.8765C68.2448 138.432 68.5445 138.127 68.5445 137.751V135.908C68.5445 135.532 68.2448 135.226 67.8765 135.226Z" fill="#1F3C88"/>
<path d="M173.667 165.318H26.2998V165.818H173.667V165.318Z" fill="#102048"/>
</svg>
