<svg width="47" height="22" viewBox="0 0 47 22" fill="none" xmlns="http://www.w3.org/2000/svg">
<path d="M39.4604 17.2837V11.5029H41.4711V12.6339L42.1061 12.0625C42.5064 11.7022 43.0258 11.5029 43.5642 11.5029C44.768 11.5029 45.7439 12.4788 45.7439 13.6826V14.0163H44.1102C43.8588 12.8853 42.3508 12.7596 41.4711 13.6393V17.2837H39.4604Z" fill="white"/>
<path d="M3.87603 6.13477C3.87603 3.13064 6.32477 0.695312 9.34544 0.695312H18.2105C18.2105 2.24745 16.9453 3.5057 15.3846 3.5057H9.59328C8.0971 3.5057 6.88421 4.71195 6.88421 6.19993V7.69862C6.88421 9.35089 5.5374 10.6903 3.87603 10.6903V6.13477Z" fill="white"/>
<path d="M15.6434 17.5803C18.664 17.5803 21.1128 15.145 21.1128 12.1408V3.32439C19.5521 3.32439 18.2869 4.58264 18.2869 6.13477V11.8944C18.2869 13.3824 17.074 14.5886 15.5779 14.5886H14.0709C12.4095 14.5886 11.0627 15.928 11.0627 17.5803H15.6434Z" fill="white"/>
<path d="M9.4297 10.3584C10.4242 10.0945 11.3442 10.9767 11.1153 11.9747L9.21821 20.2472C8.92448 21.5281 7.15629 21.6912 6.63065 20.4859L5.09552 16.966C4.99479 16.735 4.80201 16.5561 4.56336 16.4721L0.911704 15.1868C-0.355101 14.7409 -0.282961 12.9354 1.01542 12.5909L9.4297 10.3584Z" fill="white"/>
<path fill-rule="evenodd" clip-rule="evenodd" d="M25.6366 3.71143C23.9709 3.71143 22.6206 5.06175 22.6206 6.72747C22.6206 8.39318 23.9709 9.74351 25.6367 9.74351H27.1447C28.8104 9.74351 30.1607 8.39318 30.1607 6.72747C30.1607 5.06175 28.8104 3.71143 27.1447 3.71143H25.6366ZM25.8882 5.47059C25.1941 5.47059 24.6315 6.03323 24.6315 6.72727C24.6315 7.42132 25.1941 7.98396 25.8882 7.98396H26.8935C27.5876 7.98396 28.1502 7.42132 28.1502 6.72727C28.1502 6.03323 27.5876 5.47059 26.8935 5.47059H25.8882Z" fill="white"/>
<path fill-rule="evenodd" clip-rule="evenodd" d="M33.9316 3.71094C32.2659 3.71094 30.9155 5.06127 30.9155 6.72698C30.9155 8.3927 32.2659 9.74302 33.9316 9.74302H35.4396C37.1053 9.74302 38.4556 8.39269 38.4556 6.72698C38.4556 5.06127 37.1053 3.71094 35.4396 3.71094H33.9316ZM34.1829 5.4703C33.4889 5.4703 32.9262 6.03293 32.9262 6.72698C32.9262 7.42103 33.4889 7.98366 34.1829 7.98366H35.1883C35.8823 7.98366 36.4449 7.42103 36.4449 6.72698C36.4449 6.03293 35.8823 5.4703 35.1883 5.4703H34.1829Z" fill="white"/>
<path fill-rule="evenodd" clip-rule="evenodd" d="M41.4711 5.41962C41.9229 4.41246 42.9344 3.71094 44.1097 3.71094C45.706 3.71094 47.0001 5.005 47.0001 6.60131V6.85265C47.0001 8.44896 45.706 9.74302 44.1097 9.74302C42.9344 9.74302 41.9229 9.0415 41.4711 8.03434V10.4972H39.4604V3.71113H41.4711V5.41962ZM41.4711 6.76188V6.69208C41.4896 6.01417 42.045 5.4703 42.7274 5.4703H43.7327C44.4267 5.4703 44.9894 6.03293 44.9894 6.72698C44.9894 7.42103 44.4267 7.98366 43.7327 7.98366H42.7274C42.045 7.98366 41.4896 7.43979 41.4711 6.76188Z" fill="white"/>
<path fill-rule="evenodd" clip-rule="evenodd" d="M24.6313 15.5735C25.0827 16.5815 26.0946 17.2837 27.2705 17.2837C28.8669 17.2837 30.1609 15.9896 30.1609 14.3933V14.142C30.1609 12.5457 28.8669 11.2516 27.2705 11.2516C26.0946 11.2516 25.0827 11.9538 24.6313 12.9618V10.4974H22.6206V17.2835H24.6313V15.5735ZM24.6313 14.2679C24.6313 13.5738 25.1939 13.0112 25.888 13.0112H26.8933C27.5874 13.0112 28.15 13.5738 28.15 14.2679C28.15 14.9619 27.5874 15.5246 26.8933 15.5246H25.888C25.1939 15.5246 24.6313 14.9619 24.6313 14.2679Z" fill="white"/>
<path fill-rule="evenodd" clip-rule="evenodd" d="M31.5435 13.011H33.6799C33.6799 12.7333 33.9049 12.5083 34.1825 12.5083H35.5561C36.1856 12.5083 36.6959 13.0186 36.6959 13.6481V13.8642C36.6959 14.0227 36.5099 14.1082 36.3896 14.0051C36.0196 13.6879 35.5484 13.5136 35.0611 13.5136H33.0515C32.0105 13.5136 31.1665 14.3576 31.1665 15.3987C31.1665 16.4397 32.0105 17.2837 33.0515 17.2837H34.7352C35.4383 17.2837 36.1238 17.064 36.6959 16.6553V17.2837H38.4553V14.349C38.4553 12.7771 37.1811 11.5029 35.6093 11.5029H33.0515C32.2187 11.5029 31.5435 12.1781 31.5435 13.011ZM33.8053 14.5192C33.3195 14.5192 32.9256 14.9131 32.9256 15.3989C32.9256 15.8847 33.3195 16.2786 33.8053 16.2786H35.5647C36.0505 16.2786 36.4443 15.8847 36.4443 15.3989C36.4443 14.9131 36.0505 14.5192 35.5647 14.5192H33.8053Z" fill="white"/>
</svg>
