<svg width="120" height="30" viewBox="0 0 120 30" fill="none" xmlns="http://www.w3.org/2000/svg">
<path d="M2.11377 23.6841L10.3843 0.618401H17.0927L10.0168 18.3542C7.29666 18.7953 3.61472 22.0912 2.11377 23.6841Z" fill="#1B1C19"/>
<path d="M18.5629 0.618401H10.3843L21.5036 29.3816H30.2336L18.5629 0.618401Z" fill="#1B1C19"/>
<path d="M17.0006 19.365L19.3439 25.522C14.2804 22.7033 9.18952 24.7868 7.35161 29.2897H0C5.33571 20.7853 9.03651 18.536 17.0006 19.365Z" fill="#1B1C19"/>
<path d="M52.7588 21.9381H47.5864L55.4971 0.618401H60.5174L68.4281 21.9381H63.2557L57.9312 7.31887L52.7588 21.9381Z" fill="#1B1C19"/>
<path d="M80.142 21.9381H75.7303L69.3409 0.618401H74.5133L78.3165 12.3442L81.9676 0.618401H85.4666L89.2698 12.3442L92.7687 0.618401H97.9411L91.2475 21.9381H87.14L83.641 11.2782L80.142 21.9381Z" fill="#1B1C19"/>
<path d="M104.331 21.9381H99.1582L107.069 0.618401H111.785L120 21.9381H114.523L109.351 7.62344L104.331 21.9381Z" fill="#1B1C19"/>
<path d="M48.1074 29.253H47.77L48.7458 26.5695H49.0779L50.0537 29.253H49.7163L48.9222 26.9941H48.9015L48.1074 29.253ZM48.2319 28.2048H49.5917V28.493H48.2319V28.2048Z" fill="#1B1C19"/>
<path d="M50.7599 29.253V26.5695H51.0817V28.9647H52.3169V29.253H50.7599Z" fill="#1B1C19"/>
<path d="M52.6089 26.8578V26.5695H54.6019V26.8578H53.7663V29.253H53.4445V26.8578H52.6089Z" fill="#1B1C19"/>
<path d="M55.3908 29.253V26.5695H56.9946V26.8578H55.7126V27.7645H56.9115V28.0528H55.7126V28.9647H57.0153V29.253H55.3908Z" fill="#1B1C19"/>
<path d="M57.8669 29.253V26.5695H58.7647C58.9723 26.5695 59.1427 26.6053 59.276 26.677C59.4092 26.7477 59.5078 26.8451 59.5718 26.9692C59.6358 27.0932 59.6678 27.2343 59.6678 27.3924C59.6678 27.5505 59.6358 27.6907 59.5718 27.813C59.5078 27.9353 59.4096 28.0314 59.2773 28.1013C59.1449 28.1703 58.9758 28.2048 58.7699 28.2048H58.0433V27.9113H58.7595C58.9014 27.9113 59.0156 27.8903 59.1021 27.8484C59.1895 27.8064 59.2526 27.747 59.2915 27.6702C59.3313 27.5924 59.3512 27.4998 59.3512 27.3924C59.3512 27.2849 59.3313 27.191 59.2915 27.1107C59.2517 27.0303 59.1882 26.9683 59.1008 26.9246C59.0134 26.8801 58.8979 26.8578 58.7544 26.8578H58.1886V29.253H57.8669ZM59.1177 28.0475L59.7716 29.253H59.3979L58.7544 28.0475H59.1177Z" fill="#1B1C19"/>
<path d="M62.6035 26.5695V29.253H62.2921L60.8441 27.1461H60.8181V29.253H60.4963V26.5695H60.8077L62.261 28.6817H62.2869V26.5695H62.6035Z" fill="#1B1C19"/>
<path d="M63.6487 29.253H63.3113L64.2871 26.5695H64.6192L65.595 29.253H65.2576L64.4635 26.9941H64.4428L63.6487 29.253ZM63.7733 28.2048H65.1331V28.493H63.7733V28.2048Z" fill="#1B1C19"/>
<path d="M65.8454 26.8578V26.5695H67.8384V26.8578H67.0028V29.253H66.681V26.8578H65.8454Z" fill="#1B1C19"/>
<path d="M68.9492 26.5695V29.253H68.6274V26.5695H68.9492Z" fill="#1B1C19"/>
<path d="M69.9956 26.5695L70.7845 28.8285H70.8157L71.6046 26.5695H71.9419L70.9662 29.253H70.634L69.6583 26.5695H69.9956Z" fill="#1B1C19"/>
<path d="M72.6481 29.253V26.5695H74.2519V26.8578H72.9699V27.7645H74.1688V28.0528H72.9699V28.9647H74.2726V29.253H72.6481Z" fill="#1B1C19"/>
<path d="M76.9268 29.253L76.2002 26.5695H76.5272L77.0825 28.7551H77.1085L77.6742 26.5695H78.0375L78.6032 28.7551H78.6292L79.1845 26.5695H79.5115L78.7849 29.253H78.4527L77.8662 27.1146H77.8454L77.259 29.253H76.9268Z" fill="#1B1C19"/>
<path d="M82.3219 27.9113C82.3219 28.1943 82.2713 28.4389 82.1701 28.645C82.0689 28.8512 81.9301 29.0102 81.7536 29.122C81.5772 29.2338 81.3756 29.2897 81.149 29.2897C80.9223 29.2897 80.7208 29.2338 80.5443 29.122C80.3679 29.0102 80.229 28.8512 80.1278 28.645C80.0266 28.4389 79.976 28.1943 79.976 27.9113C79.976 27.6282 80.0266 27.3837 80.1278 27.1775C80.229 26.9713 80.3679 26.8124 80.5443 26.7006C80.7208 26.5887 80.9223 26.5328 81.149 26.5328C81.3756 26.5328 81.5772 26.5887 81.7536 26.7006C81.9301 26.8124 82.0689 26.9713 82.1701 27.1775C82.2713 27.3837 82.3219 27.6282 82.3219 27.9113ZM82.0105 27.9113C82.0105 27.6789 81.972 27.4828 81.8951 27.3229C81.8189 27.1631 81.7156 27.0421 81.5849 26.96C81.4552 26.8779 81.3099 26.8368 81.149 26.8368C80.9881 26.8368 80.8423 26.8779 80.7117 26.96C80.582 27.0421 80.4786 27.1631 80.4016 27.3229C80.3255 27.4828 80.2874 27.6789 80.2874 27.9113C80.2874 28.1436 80.3255 28.3397 80.4016 28.4996C80.4786 28.6594 80.582 28.7804 80.7117 28.8625C80.8423 28.9446 80.9881 28.9857 81.149 28.9857C81.3099 28.9857 81.4552 28.9446 81.5849 28.8625C81.7156 28.7804 81.8189 28.6594 81.8951 28.4996C81.972 28.3397 82.0105 28.1436 82.0105 27.9113Z" fill="#1B1C19"/>
<path d="M83.1553 29.253V26.5695H84.0532C84.2608 26.5695 84.4312 26.6053 84.5644 26.677C84.6976 26.7477 84.7963 26.8451 84.8603 26.9692C84.9243 27.0932 84.9563 27.2343 84.9563 27.3924C84.9563 27.5505 84.9243 27.6907 84.8603 27.813C84.7963 27.9353 84.6981 28.0314 84.5657 28.1013C84.4334 28.1703 84.2643 28.2048 84.0584 28.2048H83.3318V27.9113H84.048C84.1899 27.9113 84.3041 27.8903 84.3906 27.8484C84.4779 27.8064 84.5411 27.747 84.58 27.6702C84.6198 27.5924 84.6397 27.4998 84.6397 27.3924C84.6397 27.2849 84.6198 27.191 84.58 27.1107C84.5402 27.0303 84.4766 26.9683 84.3893 26.9246C84.3019 26.8801 84.1864 26.8578 84.0428 26.8578H83.4771V29.253H83.1553ZM84.4061 28.0475L85.0601 29.253H84.6864L84.0428 28.0475H84.4061Z" fill="#1B1C19"/>
<path d="M85.7848 29.253V26.5695H86.1066V27.9008H86.1377L87.3314 26.5695H87.7518L86.636 27.7802L87.7518 29.253H87.3626L86.4387 28.0056L86.1066 28.383V29.253H85.7848Z" fill="#1B1C19"/>
<path d="M89.8896 29.253H89.5522L90.528 26.5695H90.8601L91.8359 29.253H91.4985L90.7044 26.9941H90.6837L89.8896 29.253ZM90.0141 28.2048H91.3739V28.493H90.0141V28.2048Z" fill="#1B1C19"/>
<path d="M92.5421 29.253V26.5695H93.44C93.6476 26.5695 93.818 26.6053 93.9512 26.677C94.0844 26.7477 94.183 26.8451 94.247 26.9692C94.311 27.0932 94.343 27.2343 94.343 27.3924C94.343 27.5505 94.311 27.6907 94.247 27.813C94.183 27.9353 94.0848 28.0314 93.9525 28.1013C93.8201 28.1703 93.651 28.2048 93.4452 28.2048H92.7185V27.9113H93.4348C93.5766 27.9113 93.6908 27.8903 93.7773 27.8484C93.8647 27.8064 93.9278 27.747 93.9668 27.6702C94.0065 27.5924 94.0264 27.4998 94.0264 27.3924C94.0264 27.2849 94.0065 27.191 93.9668 27.1107C93.927 27.0303 93.8634 26.9683 93.776 26.9246C93.6887 26.8801 93.5732 26.8578 93.4296 26.8578H92.8639V29.253H92.5421ZM93.7929 28.0475L94.4468 29.253H94.0732L93.4296 28.0475H93.7929Z" fill="#1B1C19"/>
<path d="M95.1715 29.253V26.5695H96.0694C96.277 26.5695 96.4474 26.6053 96.5807 26.677C96.7139 26.7477 96.8125 26.8451 96.8765 26.9692C96.9405 27.0932 96.9725 27.2343 96.9725 27.3924C96.9725 27.5505 96.9405 27.6907 96.8765 27.813C96.8125 27.9353 96.7143 28.0314 96.582 28.1013C96.4496 28.1703 96.2805 28.2048 96.0746 28.2048H95.348V27.9113H96.0642C96.2061 27.9113 96.3203 27.8903 96.4068 27.8484C96.4942 27.8064 96.5573 27.747 96.5962 27.6702C96.636 27.5924 96.6559 27.4998 96.6559 27.3924C96.6559 27.2849 96.636 27.191 96.5962 27.1107C96.5564 27.0303 96.4929 26.9683 96.4055 26.9246C96.3181 26.8801 96.2026 26.8578 96.0591 26.8578H95.4933V29.253H95.1715ZM96.4224 28.0475L97.0763 29.253H96.7026L96.0591 28.0475H96.4224Z" fill="#1B1C19"/>
<path d="M97.91 29.253H97.5727L98.5484 26.5695H98.8806L99.8563 29.253H99.5189L98.7248 26.9941H98.7041L97.91 29.253ZM98.0346 28.2048H99.3944V28.493H98.0346V28.2048Z" fill="#1B1C19"/>
<path d="M102.67 26.5695V29.253H102.358L100.91 27.1461H100.884V29.253H100.563V26.5695H100.874L102.327 28.6817H102.353V26.5695H102.67Z" fill="#1B1C19"/>
<path d="M105.422 27.4081C105.394 27.3199 105.356 27.2408 105.31 27.1709C105.264 27.1002 105.209 27.0399 105.145 26.9901C105.082 26.9403 105.01 26.9023 104.929 26.8761C104.849 26.8499 104.761 26.8368 104.665 26.8368C104.507 26.8368 104.364 26.8779 104.235 26.96C104.106 27.0421 104.004 27.1631 103.928 27.3229C103.852 27.4828 103.813 27.6789 103.813 27.9113C103.813 28.1436 103.852 28.3397 103.929 28.4996C104.006 28.6594 104.11 28.7804 104.242 28.8625C104.373 28.9446 104.521 28.9857 104.685 28.9857C104.838 28.9857 104.972 28.9529 105.088 28.8874C105.204 28.821 105.295 28.7276 105.36 28.607C105.426 28.4856 105.459 28.3428 105.459 28.1786L105.557 28.1995H104.758V27.9113H105.77V28.1995C105.77 28.4205 105.723 28.6127 105.63 28.7761C105.537 28.9394 105.409 29.0661 105.246 29.156C105.083 29.2451 104.896 29.2897 104.685 29.2897C104.45 29.2897 104.243 29.2338 104.065 29.122C103.888 29.0102 103.749 28.8512 103.65 28.645C103.551 28.4389 103.502 28.1943 103.502 27.9113C103.502 27.699 103.53 27.5081 103.586 27.3387C103.644 27.1683 103.724 27.0233 103.828 26.9036C103.932 26.784 104.054 26.6923 104.196 26.6285C104.338 26.5647 104.494 26.5328 104.665 26.5328C104.805 26.5328 104.935 26.5542 105.057 26.597C105.178 26.639 105.287 26.6988 105.382 26.7766C105.478 26.8534 105.558 26.9456 105.622 27.053C105.686 27.1596 105.73 27.278 105.755 27.4081H105.422Z" fill="#1B1C19"/>
<path d="M106.614 29.253V26.5695H108.217V26.8578H106.935V27.7645H108.134V28.0528H106.935V28.9647H108.238V29.253H106.614Z" fill="#1B1C19"/>
<path d="M109.09 26.5695H109.474L110.377 28.797H110.408L111.311 26.5695H111.695V29.253H111.394V27.2142H111.368L110.538 29.253H110.247L109.417 27.2142H109.391V29.253H109.09V26.5695Z" fill="#1B1C19"/>
<path d="M112.633 29.253V26.5695H114.236V26.8578H112.954V27.7645H114.153V28.0528H112.954V28.9647H114.257V29.253H112.633Z" fill="#1B1C19"/>
<path d="M117.216 26.5695V29.253H116.904L115.456 27.1461H115.43V29.253H115.109V26.5695H115.42L116.873 28.6817H116.899V26.5695H117.216Z" fill="#1B1C19"/>
<path d="M118.007 26.8578V26.5695H120V26.8578H119.164V29.253H118.842V26.8578H118.007Z" fill="#1B1C19"/>
<line x1="39.4102" y1="0.618401" x2="39.4102" y2="29.251" stroke="#1B1C19"/>
</svg>
