<svg width="120" height="30" viewBox="0 0 120 30" fill="none" xmlns="http://www.w3.org/2000/svg">
<path d="M2.11377 23.6839L10.3843 0.618164H17.0927L10.0168 18.3539C7.29666 18.795 3.61472 22.091 2.11377 23.6839Z" fill="white"/>
<path d="M18.5629 0.618164H10.3843L21.5036 29.3814H30.2336L18.5629 0.618164Z" fill="white"/>
<path d="M17.0006 19.365L19.3439 25.522C14.2804 22.7032 9.18952 24.7868 7.35161 29.2897H0C5.33571 20.7853 9.03651 18.5359 17.0006 19.365Z" fill="white"/>
<path d="M52.7588 21.9378H47.5864L55.4971 0.618164H60.5174L68.4281 21.9378H63.2557L57.9312 7.31864L52.7588 21.9378Z" fill="white"/>
<path d="M80.142 21.9378H75.7303L69.3409 0.618164H74.5133L78.3165 12.344L81.9676 0.618164H85.4666L89.2698 12.344L92.7687 0.618164H97.9411L91.2475 21.9378H87.14L83.641 11.278L80.142 21.9378Z" fill="white"/>
<path d="M104.331 21.9378H99.1582L107.069 0.618164H111.785L120 21.9378H114.523L109.351 7.6232L104.331 21.9378Z" fill="white"/>
<path d="M48.1074 29.2529H47.77L48.7458 26.5694H49.0779L50.0537 29.2529H49.7163L48.9222 26.9939H48.9015L48.1074 29.2529ZM48.2319 28.2046H49.5917V28.4929H48.2319V28.2046Z" fill="white"/>
<path d="M50.7599 29.2529V26.5694H51.0817V28.9646H52.3169V29.2529H50.7599Z" fill="white"/>
<path d="M52.6089 26.8577V26.5694H54.6019V26.8577H53.7663V29.2529H53.4445V26.8577H52.6089Z" fill="white"/>
<path d="M55.3908 29.2529V26.5694H56.9946V26.8577H55.7126V27.7644H56.9115V28.0527H55.7126V28.9646H57.0153V29.2529H55.3908Z" fill="white"/>
<path d="M57.8669 29.2529V26.5694H58.7647C58.9723 26.5694 59.1427 26.6052 59.276 26.6768C59.4092 26.7476 59.5078 26.845 59.5718 26.969C59.6358 27.0931 59.6678 27.2342 59.6678 27.3923C59.6678 27.5504 59.6358 27.6906 59.5718 27.8129C59.5078 27.9352 59.4096 28.0313 59.2773 28.1011C59.1449 28.1701 58.9758 28.2046 58.7699 28.2046H58.0433V27.9111H58.7595C58.9014 27.9111 59.0156 27.8902 59.1021 27.8482C59.1895 27.8063 59.2526 27.7469 59.2915 27.67C59.3313 27.5923 59.3512 27.4997 59.3512 27.3923C59.3512 27.2848 59.3313 27.1909 59.2915 27.1106C59.2517 27.0302 59.1882 26.9682 59.1008 26.9245C59.0134 26.8799 58.8979 26.8577 58.7544 26.8577H58.1886V29.2529H57.8669ZM59.1177 28.0474L59.7716 29.2529H59.3979L58.7544 28.0474H59.1177Z" fill="white"/>
<path d="M62.6035 26.5694V29.2529H62.2921L60.8441 27.1459H60.8181V29.2529H60.4963V26.5694H60.8077L62.261 28.6816H62.2869V26.5694H62.6035Z" fill="white"/>
<path d="M63.6487 29.2529H63.3113L64.2871 26.5694H64.6192L65.595 29.2529H65.2576L64.4635 26.9939H64.4428L63.6487 29.2529ZM63.7733 28.2046H65.1331V28.4929H63.7733V28.2046Z" fill="white"/>
<path d="M65.8454 26.8577V26.5694H67.8384V26.8577H67.0028V29.2529H66.681V26.8577H65.8454Z" fill="white"/>
<path d="M68.9492 26.5694V29.2529H68.6274V26.5694H68.9492Z" fill="white"/>
<path d="M69.9956 26.5694L70.7845 28.8283H70.8157L71.6046 26.5694H71.9419L70.9662 29.2529H70.634L69.6583 26.5694H69.9956Z" fill="white"/>
<path d="M72.6481 29.2529V26.5694H74.2519V26.8577H72.9699V27.7644H74.1688V28.0527H72.9699V28.9646H74.2726V29.2529H72.6481Z" fill="white"/>
<path d="M76.9268 29.2529L76.2002 26.5694H76.5272L77.0825 28.755H77.1085L77.6742 26.5694H78.0375L78.6032 28.755H78.6292L79.1845 26.5694H79.5115L78.7849 29.2529H78.4527L77.8662 27.1145H77.8454L77.259 29.2529H76.9268Z" fill="white"/>
<path d="M82.3219 27.9111C82.3219 28.1942 82.2713 28.4388 82.1701 28.6449C82.0689 28.8511 81.9301 29.01 81.7536 29.1219C81.5772 29.2337 81.3756 29.2896 81.149 29.2896C80.9223 29.2896 80.7208 29.2337 80.5443 29.1219C80.3679 29.01 80.229 28.8511 80.1278 28.6449C80.0266 28.4388 79.976 28.1942 79.976 27.9111C79.976 27.6281 80.0266 27.3835 80.1278 27.1774C80.229 26.9712 80.3679 26.8122 80.5443 26.7004C80.7208 26.5886 80.9223 26.5327 81.149 26.5327C81.3756 26.5327 81.5772 26.5886 81.7536 26.7004C81.9301 26.8122 82.0689 26.9712 82.1701 27.1774C82.2713 27.3835 82.3219 27.6281 82.3219 27.9111ZM82.0105 27.9111C82.0105 27.6788 81.972 27.4827 81.8951 27.3228C81.8189 27.163 81.7156 27.042 81.5849 26.9599C81.4552 26.8778 81.3099 26.8367 81.149 26.8367C80.9881 26.8367 80.8423 26.8778 80.7117 26.9599C80.582 27.042 80.4786 27.163 80.4016 27.3228C80.3255 27.4827 80.2874 27.6788 80.2874 27.9111C80.2874 28.1435 80.3255 28.3396 80.4016 28.4995C80.4786 28.6593 80.582 28.7803 80.7117 28.8624C80.8423 28.9445 80.9881 28.9856 81.149 28.9856C81.3099 28.9856 81.4552 28.9445 81.5849 28.8624C81.7156 28.7803 81.8189 28.6593 81.8951 28.4995C81.972 28.3396 82.0105 28.1435 82.0105 27.9111Z" fill="white"/>
<path d="M83.1553 29.2529V26.5694H84.0532C84.2608 26.5694 84.4312 26.6052 84.5644 26.6768C84.6976 26.7476 84.7963 26.845 84.8603 26.969C84.9243 27.0931 84.9563 27.2342 84.9563 27.3923C84.9563 27.5504 84.9243 27.6906 84.8603 27.8129C84.7963 27.9352 84.6981 28.0313 84.5657 28.1011C84.4334 28.1701 84.2643 28.2046 84.0584 28.2046H83.3318V27.9111H84.048C84.1899 27.9111 84.3041 27.8902 84.3906 27.8482C84.4779 27.8063 84.5411 27.7469 84.58 27.67C84.6198 27.5923 84.6397 27.4997 84.6397 27.3923C84.6397 27.2848 84.6198 27.1909 84.58 27.1106C84.5402 27.0302 84.4766 26.9682 84.3893 26.9245C84.3019 26.8799 84.1864 26.8577 84.0428 26.8577H83.4771V29.2529H83.1553ZM84.4061 28.0474L85.0601 29.2529H84.6864L84.0428 28.0474H84.4061Z" fill="white"/>
<path d="M85.7848 29.2529V26.5694H86.1066V27.9007H86.1377L87.3314 26.5694H87.7518L86.636 27.7801L87.7518 29.2529H87.3626L86.4387 28.0055L86.1066 28.3828V29.2529H85.7848Z" fill="white"/>
<path d="M89.8896 29.2529H89.5522L90.528 26.5694H90.8601L91.8359 29.2529H91.4985L90.7044 26.9939H90.6837L89.8896 29.2529ZM90.0141 28.2046H91.3739V28.4929H90.0141V28.2046Z" fill="white"/>
<path d="M92.5421 29.2529V26.5694H93.44C93.6476 26.5694 93.818 26.6052 93.9512 26.6768C94.0844 26.7476 94.183 26.845 94.247 26.969C94.311 27.0931 94.343 27.2342 94.343 27.3923C94.343 27.5504 94.311 27.6906 94.247 27.8129C94.183 27.9352 94.0848 28.0313 93.9525 28.1011C93.8201 28.1701 93.651 28.2046 93.4452 28.2046H92.7185V27.9111H93.4348C93.5766 27.9111 93.6908 27.8902 93.7773 27.8482C93.8647 27.8063 93.9278 27.7469 93.9668 27.67C94.0065 27.5923 94.0264 27.4997 94.0264 27.3923C94.0264 27.2848 94.0065 27.1909 93.9668 27.1106C93.927 27.0302 93.8634 26.9682 93.776 26.9245C93.6887 26.8799 93.5732 26.8577 93.4296 26.8577H92.8639V29.2529H92.5421ZM93.7929 28.0474L94.4468 29.2529H94.0732L93.4296 28.0474H93.7929Z" fill="white"/>
<path d="M95.1715 29.2529V26.5694H96.0694C96.277 26.5694 96.4474 26.6052 96.5807 26.6768C96.7139 26.7476 96.8125 26.845 96.8765 26.969C96.9405 27.0931 96.9725 27.2342 96.9725 27.3923C96.9725 27.5504 96.9405 27.6906 96.8765 27.8129C96.8125 27.9352 96.7143 28.0313 96.582 28.1011C96.4496 28.1701 96.2805 28.2046 96.0746 28.2046H95.348V27.9111H96.0642C96.2061 27.9111 96.3203 27.8902 96.4068 27.8482C96.4942 27.8063 96.5573 27.7469 96.5962 27.67C96.636 27.5923 96.6559 27.4997 96.6559 27.3923C96.6559 27.2848 96.636 27.1909 96.5962 27.1106C96.5564 27.0302 96.4929 26.9682 96.4055 26.9245C96.3181 26.8799 96.2026 26.8577 96.0591 26.8577H95.4933V29.2529H95.1715ZM96.4224 28.0474L97.0763 29.2529H96.7026L96.0591 28.0474H96.4224Z" fill="white"/>
<path d="M97.91 29.2529H97.5727L98.5484 26.5694H98.8806L99.8563 29.2529H99.5189L98.7248 26.9939H98.7041L97.91 29.2529ZM98.0346 28.2046H99.3944V28.4929H98.0346V28.2046Z" fill="white"/>
<path d="M102.67 26.5694V29.2529H102.358L100.91 27.1459H100.884V29.2529H100.563V26.5694H100.874L102.327 28.6816H102.353V26.5694H102.67Z" fill="white"/>
<path d="M105.422 27.408C105.394 27.3198 105.356 27.2407 105.31 27.1708C105.264 27.1001 105.209 27.0398 105.145 26.99C105.082 26.9402 105.01 26.9022 104.929 26.876C104.849 26.8498 104.761 26.8367 104.665 26.8367C104.507 26.8367 104.364 26.8778 104.235 26.9599C104.106 27.042 104.004 27.163 103.928 27.3228C103.852 27.4827 103.813 27.6788 103.813 27.9111C103.813 28.1435 103.852 28.3396 103.929 28.4995C104.006 28.6593 104.11 28.7803 104.242 28.8624C104.373 28.9445 104.521 28.9856 104.685 28.9856C104.838 28.9856 104.972 28.9528 105.088 28.8873C105.204 28.8209 105.295 28.7275 105.36 28.6069C105.426 28.4855 105.459 28.3427 105.459 28.1784L105.557 28.1994H104.758V27.9111H105.77V28.1994C105.77 28.4204 105.723 28.6126 105.63 28.7759C105.537 28.9393 105.409 29.0659 105.246 29.1559C105.083 29.245 104.896 29.2896 104.685 29.2896C104.45 29.2896 104.243 29.2337 104.065 29.1219C103.888 29.01 103.749 28.8511 103.65 28.6449C103.551 28.4388 103.502 28.1942 103.502 27.9111C103.502 27.6989 103.53 27.508 103.586 27.3385C103.644 27.1682 103.724 27.0232 103.828 26.9035C103.932 26.7839 104.054 26.6921 104.196 26.6284C104.338 26.5646 104.494 26.5327 104.665 26.5327C104.805 26.5327 104.935 26.5541 105.057 26.5969C105.178 26.6388 105.287 26.6987 105.382 26.7764C105.478 26.8533 105.558 26.9455 105.622 27.0529C105.686 27.1595 105.73 27.2778 105.755 27.408H105.422Z" fill="white"/>
<path d="M106.614 29.2529V26.5694H108.217V26.8577H106.935V27.7644H108.134V28.0527H106.935V28.9646H108.238V29.2529H106.614Z" fill="white"/>
<path d="M109.09 26.5694H109.474L110.377 28.7969H110.408L111.311 26.5694H111.695V29.2529H111.394V27.2141H111.368L110.538 29.2529H110.247L109.417 27.2141H109.391V29.2529H109.09V26.5694Z" fill="white"/>
<path d="M112.633 29.2529V26.5694H114.236V26.8577H112.954V27.7644H114.153V28.0527H112.954V28.9646H114.257V29.2529H112.633Z" fill="white"/>
<path d="M117.216 26.5694V29.2529H116.904L115.456 27.1459H115.43V29.2529H115.109V26.5694H115.42L116.873 28.6816H116.899V26.5694H117.216Z" fill="white"/>
<path d="M118.007 26.8577V26.5694H120V26.8577H119.164V29.2529H118.842V26.8577H118.007Z" fill="white"/>
<line x1="39.4102" y1="0.618164" x2="39.4102" y2="29.2507" stroke="white"/>
</svg>
