<svg width="334" height="50" viewBox="0 0 334 50" fill="none" xmlns="http://www.w3.org/2000/svg">
<path d="M315 12C315 5.37258 309.627 0 303 0H12C5.37258 0 0 5.37258 0 12V38C0 44.6274 5.37258 50 12 50H324.343C327.907 50 329.691 45.6914 327.172 43.1716L318.515 34.5147C316.264 32.2643 315 29.212 315 26.0294V12Z" fill="#1B1C19"/>
<path d="M16.232 31V21.13H20.18C21.2253 21.13 22.0327 21.354 22.602 21.802C23.1713 22.25 23.456 22.8847 23.456 23.706C23.456 24.322 23.2693 24.8353 22.896 25.246C22.532 25.6567 22.0233 25.9273 21.37 26.058V25.862C22.098 25.946 22.6673 26.198 23.078 26.618C23.498 27.0287 23.708 27.584 23.708 28.284C23.708 29.1613 23.414 29.8333 22.826 30.3C22.2473 30.7667 21.426 31 20.362 31H16.232ZM17.366 30.062H20.25C20.9593 30.062 21.5193 29.9267 21.93 29.656C22.35 29.376 22.56 28.914 22.56 28.27C22.56 27.6167 22.35 27.1547 21.93 26.884C21.5193 26.604 20.9593 26.464 20.25 26.464H17.366V30.062ZM17.366 25.54H20.012C20.7773 25.54 21.3513 25.3907 21.734 25.092C22.1167 24.7933 22.308 24.364 22.308 23.804C22.308 23.2253 22.1167 22.7913 21.734 22.502C21.3513 22.2033 20.7773 22.054 20.012 22.054H17.366V25.54ZM28.5756 31.126C27.9036 31.126 27.3156 30.9813 26.8116 30.692C26.317 30.3933 25.9343 29.9733 25.6636 29.432C25.393 28.8813 25.2576 28.2327 25.2576 27.486C25.2576 26.73 25.393 26.0813 25.6636 25.54C25.9343 24.9987 26.317 24.5833 26.8116 24.294C27.3156 23.9953 27.9036 23.846 28.5756 23.846C29.257 23.846 29.845 23.9953 30.3396 24.294C30.8436 24.5833 31.231 24.9987 31.5016 25.54C31.7816 26.0813 31.9216 26.73 31.9216 27.486C31.9216 28.2327 31.7816 28.8813 31.5016 29.432C31.231 29.9733 30.8436 30.3933 30.3396 30.692C29.845 30.9813 29.257 31.126 28.5756 31.126ZM28.5756 30.202C29.2476 30.202 29.7796 29.9733 30.1716 29.516C30.5636 29.0493 30.7596 28.3727 30.7596 27.486C30.7596 26.59 30.559 25.9133 30.1576 25.456C29.7656 24.9893 29.2383 24.756 28.5756 24.756C27.913 24.756 27.3856 24.9893 26.9936 25.456C26.6016 25.9133 26.4056 26.59 26.4056 27.486C26.4056 28.3727 26.6016 29.0493 26.9936 29.516C27.3856 29.9733 27.913 30.202 28.5756 30.202ZM36.0944 31.126C35.4971 31.126 34.9324 31.0467 34.4004 30.888C33.8777 30.72 33.4484 30.4913 33.1124 30.202L33.5044 29.404C33.8497 29.684 34.2371 29.8987 34.6664 30.048C35.1051 30.188 35.5811 30.258 36.0944 30.258C36.7851 30.258 37.2844 30.1507 37.5924 29.936C37.9004 29.7213 38.0544 29.418 38.0544 29.026C38.0544 28.6433 37.9237 28.354 37.6624 28.158C37.4011 27.9527 37.0184 27.85 36.5144 27.85H34.8624V27.01H36.3744C36.8224 27.01 37.1724 26.912 37.4244 26.716C37.6857 26.5107 37.8164 26.2307 37.8164 25.876C37.8164 25.512 37.6764 25.2273 37.3964 25.022C37.1164 24.8073 36.6777 24.7 36.0804 24.7C35.6044 24.7 35.1611 24.7653 34.7504 24.896C34.3491 25.0173 33.9664 25.2133 33.6024 25.484L33.2244 24.714C33.6071 24.4153 34.0504 24.196 34.5544 24.056C35.0584 23.916 35.6044 23.846 36.1924 23.846C37.0697 23.846 37.7371 24.0187 38.1944 24.364C38.6517 24.7 38.8804 25.1807 38.8804 25.806C38.8804 26.2447 38.7311 26.6227 38.4324 26.94C38.1337 27.248 37.7371 27.43 37.2424 27.486V27.318C37.8024 27.3367 38.2551 27.5047 38.6004 27.822C38.9457 28.1393 39.1184 28.5547 39.1184 29.068C39.1184 29.6933 38.8617 30.1927 38.3484 30.566C37.8444 30.9393 37.0931 31.126 36.0944 31.126ZM40.8798 31V23.972H41.8318L44.4638 28.69L47.1098 23.972H48.0618V31H47.0538V25.232H47.3478L44.7578 29.866H44.1838L41.5798 25.218H41.8878V31H40.8798ZM53.2397 31.126C52.5677 31.126 51.9797 30.9813 51.4757 30.692C50.981 30.3933 50.5984 29.9733 50.3277 29.432C50.057 28.8813 49.9217 28.2327 49.9217 27.486C49.9217 26.73 50.057 26.0813 50.3277 25.54C50.5984 24.9987 50.981 24.5833 51.4757 24.294C51.9797 23.9953 52.5677 23.846 53.2397 23.846C53.921 23.846 54.509 23.9953 55.0037 24.294C55.5077 24.5833 55.895 24.9987 56.1657 25.54C56.4457 26.0813 56.5857 26.73 56.5857 27.486C56.5857 28.2327 56.4457 28.8813 56.1657 29.432C55.895 29.9733 55.5077 30.3933 55.0037 30.692C54.509 30.9813 53.921 31.126 53.2397 31.126ZM53.2397 30.202C53.9117 30.202 54.4437 29.9733 54.8357 29.516C55.2277 29.0493 55.4237 28.3727 55.4237 27.486C55.4237 26.59 55.223 25.9133 54.8217 25.456C54.4297 24.9893 53.9024 24.756 53.2397 24.756C52.577 24.756 52.0497 24.9893 51.6577 25.456C51.2657 25.9133 51.0697 26.59 51.0697 27.486C51.0697 28.3727 51.2657 29.0493 51.6577 29.516C52.0497 29.9733 52.577 30.202 53.2397 30.202ZM57.3285 31L58.7845 28.536C59.0085 28.172 59.2091 27.8873 59.3865 27.682C59.5638 27.4767 59.7505 27.3227 59.9465 27.22C60.1518 27.1173 60.3851 27.052 60.6465 27.024L60.3665 27.374L57.6925 23.972H58.9385L61.2765 26.926H62.4105V23.972H63.5445V26.926H64.6645L66.9885 23.972H68.2485L65.5605 27.374L65.2665 27.024C65.5371 27.052 65.7705 27.1173 65.9665 27.22C66.1718 27.3227 66.3678 27.4767 66.5545 27.682C66.7411 27.8873 66.9418 28.172 67.1565 28.536L68.5985 31H67.3805L66.0925 28.816C65.9338 28.5453 65.7798 28.34 65.6305 28.2C65.4905 28.06 65.3318 27.962 65.1545 27.906C64.9771 27.85 64.7531 27.822 64.4825 27.822H63.5445V31H62.4105V27.822H61.4585C61.1878 27.822 60.9638 27.85 60.7865 27.906C60.6091 27.962 60.4458 28.06 60.2965 28.2C60.1565 28.34 60.0071 28.5453 59.8485 28.816L58.5605 31H57.3285ZM69.7411 31V23.972H70.8751V26.912H74.7391V23.972H75.8731V31H74.7391V27.822H70.8751V31H69.7411ZM81.0483 31.126C80.3763 31.126 79.7883 30.9813 79.2843 30.692C78.7896 30.3933 78.4069 29.9733 78.1363 29.432C77.8656 28.8813 77.7303 28.2327 77.7303 27.486C77.7303 26.73 77.8656 26.0813 78.1363 25.54C78.4069 24.9987 78.7896 24.5833 79.2843 24.294C79.7883 23.9953 80.3763 23.846 81.0483 23.846C81.7296 23.846 82.3176 23.9953 82.8123 24.294C83.3163 24.5833 83.7036 24.9987 83.9743 25.54C84.2543 26.0813 84.3943 26.73 84.3943 27.486C84.3943 28.2327 84.2543 28.8813 83.9743 29.432C83.7036 29.9733 83.3163 30.3933 82.8123 30.692C82.3176 30.9813 81.7296 31.126 81.0483 31.126ZM81.0483 30.202C81.7203 30.202 82.2523 29.9733 82.6443 29.516C83.0363 29.0493 83.2323 28.3727 83.2323 27.486C83.2323 26.59 83.0316 25.9133 82.6303 25.456C82.2383 24.9893 81.7109 24.756 81.0483 24.756C80.3856 24.756 79.8583 24.9893 79.4663 25.456C79.0743 25.9133 78.8783 26.59 78.8783 27.486C78.8783 28.3727 79.0743 29.0493 79.4663 29.516C79.8583 29.9733 80.3856 30.202 81.0483 30.202ZM89.253 31.126C88.5624 31.126 87.9604 30.9767 87.447 30.678C86.943 30.3793 86.551 29.9547 86.271 29.404C86.0004 28.8533 85.865 28.2 85.865 27.444C85.865 26.6787 86.005 26.03 86.285 25.498C86.565 24.9567 86.957 24.546 87.461 24.266C87.9744 23.986 88.5717 23.846 89.253 23.846C89.701 23.846 90.135 23.9253 90.555 24.084C90.9844 24.2427 91.339 24.4667 91.619 24.756L91.213 25.568C90.933 25.2973 90.625 25.0967 90.289 24.966C89.9624 24.8353 89.6404 24.77 89.323 24.77C88.595 24.77 88.0304 24.9987 87.629 25.456C87.2277 25.9133 87.027 26.5807 87.027 27.458C87.027 28.326 87.2277 28.998 87.629 29.474C88.0304 29.95 88.595 30.188 89.323 30.188C89.631 30.188 89.9484 30.1273 90.275 30.006C90.611 29.8847 90.9237 29.684 91.213 29.404L91.619 30.202C91.3297 30.5007 90.9704 30.7293 90.541 30.888C90.1117 31.0467 89.6824 31.126 89.253 31.126ZM94.8094 31V24.882H92.2614V23.972H98.5054V24.882H95.9434V31H94.8094ZM99.6825 31V23.972H100.719V29.95H100.341L104.821 23.972H105.773V31H104.751V25.008H105.129L100.649 31H99.6825ZM111.659 31V23.972H116.559V24.882H112.793V31H111.659ZM117.893 31V23.972H118.929V29.95H118.551L123.031 23.972H123.983V31H122.961V25.008H123.339L118.859 31H117.893ZM129.202 31.126C128.175 31.126 127.358 30.7947 126.752 30.132C126.145 29.4693 125.842 28.5033 125.842 27.234V26.002C125.842 24.7047 126.108 23.6547 126.64 22.852C127.172 22.0493 128.012 21.508 129.16 21.228L131.722 20.584L132.072 21.508L129.23 22.208C128.707 22.3387 128.278 22.5673 127.942 22.894C127.606 23.2113 127.349 23.594 127.172 24.042C127.004 24.4807 126.92 24.9473 126.92 25.442V26.002H126.752C126.864 25.582 127.046 25.2227 127.298 24.924C127.55 24.616 127.858 24.3827 128.222 24.224C128.595 24.056 129.006 23.972 129.454 23.972C130.06 23.972 130.592 24.1167 131.05 24.406C131.507 24.686 131.862 25.092 132.114 25.624C132.375 26.1467 132.506 26.7767 132.506 27.514C132.506 28.2513 132.37 28.8907 132.1 29.432C131.829 29.9733 131.446 30.3933 130.952 30.692C130.457 30.9813 129.874 31.126 129.202 31.126ZM129.174 30.216C129.855 30.216 130.392 29.992 130.784 29.544C131.176 29.0867 131.372 28.4193 131.372 27.542C131.372 26.674 131.171 26.016 130.77 25.568C130.378 25.1107 129.846 24.882 129.174 24.882C128.502 24.882 127.965 25.106 127.564 25.554C127.172 26.002 126.976 26.6367 126.976 27.458C126.976 28.3727 127.172 29.0633 127.564 29.53C127.956 29.9873 128.492 30.216 129.174 30.216ZM134.368 31V23.972H135.502V26.926H136.832L139.156 23.972H140.402L137.742 27.374L137.434 27.024C137.705 27.052 137.938 27.1173 138.134 27.22C138.33 27.3227 138.517 27.4767 138.694 27.682C138.881 27.8873 139.081 28.172 139.296 28.536L140.752 31H139.534L138.246 28.816C138.087 28.5453 137.933 28.34 137.784 28.2C137.644 28.06 137.481 27.962 137.294 27.906C137.117 27.85 136.893 27.822 136.622 27.822H135.502V31H134.368ZM144.841 31.126C144.169 31.126 143.581 30.9813 143.077 30.692C142.583 30.3933 142.2 29.9733 141.929 29.432C141.659 28.8813 141.523 28.2327 141.523 27.486C141.523 26.73 141.659 26.0813 141.929 25.54C142.2 24.9987 142.583 24.5833 143.077 24.294C143.581 23.9953 144.169 23.846 144.841 23.846C145.523 23.846 146.111 23.9953 146.605 24.294C147.109 24.5833 147.497 24.9987 147.767 25.54C148.047 26.0813 148.187 26.73 148.187 27.486C148.187 28.2327 148.047 28.8813 147.767 29.432C147.497 29.9733 147.109 30.3933 146.605 30.692C146.111 30.9813 145.523 31.126 144.841 31.126ZM144.841 30.202C145.513 30.202 146.045 29.9733 146.437 29.516C146.829 29.0493 147.025 28.3727 147.025 27.486C147.025 26.59 146.825 25.9133 146.423 25.456C146.031 24.9893 145.504 24.756 144.841 24.756C144.179 24.756 143.651 24.9893 143.259 25.456C142.867 25.9133 142.671 26.59 142.671 27.486C142.671 28.3727 142.867 29.0493 143.259 29.516C143.651 29.9733 144.179 30.202 144.841 30.202ZM150.036 31V23.972H151.072V29.95H150.694L155.174 23.972H156.126V31H155.104V25.008H155.482L151.002 31H150.036ZM153.074 23.314C152.691 23.314 152.337 23.2487 152.01 23.118C151.683 22.9873 151.399 22.7913 151.156 22.53C150.913 22.2593 150.731 21.928 150.61 21.536L151.282 21.284C151.45 21.732 151.679 22.0633 151.968 22.278C152.267 22.4927 152.64 22.6 153.088 22.6C153.536 22.6 153.905 22.502 154.194 22.306C154.483 22.11 154.735 21.774 154.95 21.298L155.594 21.536C155.351 22.1707 155.011 22.628 154.572 22.908C154.143 23.1787 153.643 23.314 153.074 23.314ZM162.013 31V23.972H163.049V29.95H162.671L167.151 23.972H168.103V31H167.081V25.008H167.459L162.979 31H162.013ZM173.765 34.178L173.499 33.24C173.938 33.1373 174.302 33.016 174.591 32.876C174.89 32.7453 175.137 32.568 175.333 32.344C175.529 32.12 175.697 31.84 175.837 31.504L176.201 30.678L176.173 31.154L173.107 23.972H174.339L176.873 30.146H176.509L179.015 23.972H180.205L176.957 31.588C176.77 32.036 176.565 32.4093 176.341 32.708C176.117 33.016 175.874 33.2633 175.613 33.45C175.361 33.646 175.081 33.8 174.773 33.912C174.465 34.024 174.129 34.1127 173.765 34.178ZM180.657 32.82V30.104H181.399C181.735 29.628 181.978 29.0587 182.127 28.396C182.277 27.7333 182.351 26.9493 182.351 26.044V23.972H187.293V30.104H188.399V32.82H187.419V31H181.623V32.82H180.657ZM182.491 30.118H186.215V24.854H183.345V26.226C183.345 26.9633 183.271 27.6773 183.121 28.368C182.981 29.0493 182.771 29.6327 182.491 30.118ZM192.647 31.126C192.022 31.126 191.476 30.9813 191.009 30.692C190.542 30.3933 190.178 29.9733 189.917 29.432C189.665 28.8907 189.539 28.242 189.539 27.486C189.539 26.7207 189.665 26.0673 189.917 25.526C190.178 24.9847 190.542 24.5693 191.009 24.28C191.476 23.9907 192.022 23.846 192.647 23.846C193.282 23.846 193.828 24.0093 194.285 24.336C194.752 24.6533 195.06 25.0873 195.209 25.638H195.041L195.195 23.972H196.287C196.259 24.2427 196.231 24.518 196.203 24.798C196.184 25.0687 196.175 25.3347 196.175 25.596V31H195.041V29.348H195.195C195.046 29.8987 194.738 30.3327 194.271 30.65C193.804 30.9673 193.263 31.126 192.647 31.126ZM192.871 30.202C193.543 30.202 194.075 29.9733 194.467 29.516C194.859 29.0493 195.055 28.3727 195.055 27.486C195.055 26.59 194.859 25.9133 194.467 25.456C194.075 24.9893 193.543 24.756 192.871 24.756C192.208 24.756 191.676 24.9893 191.275 25.456C190.883 25.9133 190.687 26.59 190.687 27.486C190.687 28.3727 190.883 29.0493 191.275 29.516C191.676 29.9733 192.208 30.202 192.871 30.202ZM198.084 31.154L197.664 30.272C197.99 30.1227 198.261 29.9407 198.476 29.726C198.7 29.502 198.877 29.222 199.008 28.886C199.138 28.5407 199.232 28.116 199.288 27.612C199.344 27.0987 199.372 26.4827 199.372 25.764V23.972H204.44V31H203.32V24.868H200.422V25.806C200.422 26.9073 200.342 27.8127 200.184 28.522C200.034 29.2313 199.787 29.796 199.442 30.216C199.106 30.6267 198.653 30.9393 198.084 31.154ZM209.857 31.126C208.755 31.126 207.887 30.8087 207.253 30.174C206.618 29.53 206.301 28.6387 206.301 27.5C206.301 26.7627 206.441 26.1233 206.721 25.582C207.001 25.0313 207.393 24.6067 207.897 24.308C208.401 24 208.979 23.846 209.633 23.846C210.277 23.846 210.818 23.9813 211.257 24.252C211.695 24.5227 212.031 24.91 212.265 25.414C212.498 25.9087 212.615 26.4967 212.615 27.178V27.598H207.169V26.884H211.873L211.635 27.066C211.635 26.3193 211.467 25.736 211.131 25.316C210.795 24.896 210.295 24.686 209.633 24.686C208.933 24.686 208.387 24.9333 207.995 25.428C207.603 25.9133 207.407 26.5713 207.407 27.402V27.528C207.407 28.4053 207.621 29.0727 208.051 29.53C208.489 29.978 209.101 30.202 209.885 30.202C210.305 30.202 210.697 30.1413 211.061 30.02C211.434 29.8893 211.789 29.6793 212.125 29.39L212.517 30.188C212.209 30.4867 211.817 30.72 211.341 30.888C210.874 31.0467 210.379 31.126 209.857 31.126ZM214.431 31V23.972H215.565V26.912H219.429V23.972H220.563V31H219.429V27.822H215.565V31H214.431ZM222.798 31V23.972H223.932V26.912H227.796V23.972H228.93V31H227.796V27.822H223.932V31H222.798ZM234.105 31.126C233.433 31.126 232.845 30.9813 232.341 30.692C231.846 30.3933 231.464 29.9733 231.193 29.432C230.922 28.8813 230.787 28.2327 230.787 27.486C230.787 26.73 230.922 26.0813 231.193 25.54C231.464 24.9987 231.846 24.5833 232.341 24.294C232.845 23.9953 233.433 23.846 234.105 23.846C234.786 23.846 235.374 23.9953 235.869 24.294C236.373 24.5833 236.76 24.9987 237.031 25.54C237.311 26.0813 237.451 26.73 237.451 27.486C237.451 28.2327 237.311 28.8813 237.031 29.432C236.76 29.9733 236.373 30.3933 235.869 30.692C235.374 30.9813 234.786 31.126 234.105 31.126ZM234.105 30.202C234.777 30.202 235.309 29.9733 235.701 29.516C236.093 29.0493 236.289 28.3727 236.289 27.486C236.289 26.59 236.088 25.9133 235.687 25.456C235.295 24.9893 234.768 24.756 234.105 24.756C233.442 24.756 232.915 24.9893 232.523 25.456C232.131 25.9133 231.935 26.59 231.935 27.486C231.935 28.3727 232.131 29.0493 232.523 29.516C232.915 29.9733 233.442 30.202 234.105 30.202ZM239.3 31V23.972H240.336V29.95H239.958L244.438 23.972H245.39V31H244.368V25.008H244.746L240.266 31H239.3ZM242.338 23.314C241.955 23.314 241.6 23.2487 241.274 23.118C240.947 22.9873 240.662 22.7913 240.42 22.53C240.177 22.2593 239.995 21.928 239.874 21.536L240.546 21.284C240.714 21.732 240.942 22.0633 241.232 22.278C241.53 22.4927 241.904 22.6 242.352 22.6C242.8 22.6 243.168 22.502 243.458 22.306C243.747 22.11 243.999 21.774 244.214 21.298L244.858 21.536C244.615 22.1707 244.274 22.628 243.836 22.908C243.406 23.1787 242.907 23.314 242.338 23.314ZM251.332 34.024V25.596C251.332 25.3347 251.318 25.0687 251.29 24.798C251.272 24.518 251.248 24.2427 251.22 23.972H252.312L252.466 25.638H252.298C252.448 25.0873 252.751 24.6533 253.208 24.336C253.666 24.0093 254.212 23.846 254.846 23.846C255.481 23.846 256.027 23.9907 256.484 24.28C256.951 24.5693 257.315 24.9847 257.576 25.526C257.838 26.0673 257.968 26.7207 257.968 27.486C257.968 28.242 257.838 28.8907 257.576 29.432C257.324 29.9733 256.965 30.3933 256.498 30.692C256.032 30.9813 255.481 31.126 254.846 31.126C254.221 31.126 253.68 30.9673 253.222 30.65C252.765 30.3327 252.462 29.8987 252.312 29.348H252.466V34.024H251.332ZM254.622 30.202C255.294 30.202 255.826 29.9733 256.218 29.516C256.62 29.0493 256.82 28.3727 256.82 27.486C256.82 26.59 256.62 25.9133 256.218 25.456C255.826 24.9893 255.294 24.756 254.622 24.756C253.96 24.756 253.428 24.9893 253.026 25.456C252.634 25.9133 252.438 26.59 252.438 27.486C252.438 28.3727 252.634 29.0493 253.026 29.516C253.428 29.9733 253.96 30.202 254.622 30.202ZM262.551 31.126C261.926 31.126 261.38 30.9813 260.913 30.692C260.447 30.3933 260.083 29.9733 259.821 29.432C259.569 28.8907 259.443 28.242 259.443 27.486C259.443 26.7207 259.569 26.0673 259.821 25.526C260.083 24.9847 260.447 24.5693 260.913 24.28C261.38 23.9907 261.926 23.846 262.551 23.846C263.186 23.846 263.732 24.0093 264.189 24.336C264.656 24.6533 264.964 25.0873 265.113 25.638H264.945L265.099 23.972H266.191C266.163 24.2427 266.135 24.518 266.107 24.798C266.089 25.0687 266.079 25.3347 266.079 25.596V31H264.945V29.348H265.099C264.95 29.8987 264.642 30.3327 264.175 30.65C263.709 30.9673 263.167 31.126 262.551 31.126ZM262.775 30.202C263.447 30.202 263.979 29.9733 264.371 29.516C264.763 29.0493 264.959 28.3727 264.959 27.486C264.959 26.59 264.763 25.9133 264.371 25.456C263.979 24.9893 263.447 24.756 262.775 24.756C262.113 24.756 261.581 24.9893 261.179 25.456C260.787 25.9133 260.591 26.59 260.591 27.486C260.591 28.3727 260.787 29.0493 261.179 29.516C261.581 29.9733 262.113 30.202 262.775 30.202ZM271.348 31.126C270.321 31.126 269.505 30.7947 268.898 30.132C268.291 29.4693 267.988 28.5033 267.988 27.234V26.002C267.988 24.7047 268.254 23.6547 268.786 22.852C269.318 22.0493 270.158 21.508 271.306 21.228L273.868 20.584L274.218 21.508L271.376 22.208C270.853 22.3387 270.424 22.5673 270.088 22.894C269.752 23.2113 269.495 23.594 269.318 24.042C269.15 24.4807 269.066 24.9473 269.066 25.442V26.002H268.898C269.01 25.582 269.192 25.2227 269.444 24.924C269.696 24.616 270.004 24.3827 270.368 24.224C270.741 24.056 271.152 23.972 271.6 23.972C272.207 23.972 272.739 24.1167 273.196 24.406C273.653 24.686 274.008 25.092 274.26 25.624C274.521 26.1467 274.652 26.7767 274.652 27.514C274.652 28.2513 274.517 28.8907 274.246 29.432C273.975 29.9733 273.593 30.3933 273.098 30.692C272.603 30.9813 272.02 31.126 271.348 31.126ZM271.32 30.216C272.001 30.216 272.538 29.992 272.93 29.544C273.322 29.0867 273.518 28.4193 273.518 27.542C273.518 26.674 273.317 26.016 272.916 25.568C272.524 25.1107 271.992 24.882 271.32 24.882C270.648 24.882 270.111 25.106 269.71 25.554C269.318 26.002 269.122 26.6367 269.122 27.458C269.122 28.3727 269.318 29.0633 269.71 29.53C270.102 29.9873 270.639 30.216 271.32 30.216ZM279.455 31.126C278.783 31.126 278.195 30.9813 277.691 30.692C277.196 30.3933 276.813 29.9733 276.543 29.432C276.272 28.8813 276.137 28.2327 276.137 27.486C276.137 26.73 276.272 26.0813 276.543 25.54C276.813 24.9987 277.196 24.5833 277.691 24.294C278.195 23.9953 278.783 23.846 279.455 23.846C280.136 23.846 280.724 23.9953 281.219 24.294C281.723 24.5833 282.11 24.9987 282.381 25.54C282.661 26.0813 282.801 26.73 282.801 27.486C282.801 28.2327 282.661 28.8813 282.381 29.432C282.11 29.9733 281.723 30.3933 281.219 30.692C280.724 30.9813 280.136 31.126 279.455 31.126ZM279.455 30.202C280.127 30.202 280.659 29.9733 281.051 29.516C281.443 29.0493 281.639 28.3727 281.639 27.486C281.639 26.59 281.438 25.9133 281.037 25.456C280.645 24.9893 280.117 24.756 279.455 24.756C278.792 24.756 278.265 24.9893 277.873 25.456C277.481 25.9133 277.285 26.59 277.285 27.486C277.285 28.3727 277.481 29.0493 277.873 29.516C278.265 29.9733 278.792 30.202 279.455 30.202ZM286.147 31V24.882H283.599V23.972H289.843V24.882H287.281V31H286.147ZM291.02 31V23.972H292.154V26.492H294.268C295.174 26.492 295.855 26.688 296.312 27.08C296.779 27.4627 297.012 28.0087 297.012 28.718C297.012 29.194 296.905 29.6047 296.69 29.95C296.485 30.286 296.177 30.5473 295.766 30.734C295.365 30.9113 294.866 31 294.268 31H291.02ZM292.154 30.188H294.17C294.74 30.188 295.174 30.0713 295.472 29.838C295.771 29.5953 295.92 29.2267 295.92 28.732C295.92 28.2373 295.771 27.878 295.472 27.654C295.183 27.4207 294.749 27.304 294.17 27.304H292.154V30.188ZM298.076 31V23.972H299.196V31H298.076Z" fill="white"/>
</svg>
