<svg width="386" height="50" viewBox="0 0 386 50" fill="none" xmlns="http://www.w3.org/2000/svg">
<path d="M367 12C367 5.37258 361.627 0 355 0L12.5 0C5.87258 0 0.5 5.37258 0.5 12V38C0.5 44.6274 5.87258 50 12.5 50H376.343C379.907 50 381.691 45.6914 379.172 43.1716L370.515 34.5147C368.264 32.2643 367 29.212 367 26.0294V12Z" fill="#1B1C19"/>
<path d="M17.232 31V21.13H18.31V29.572H17.988L24.316 21.13H25.226V31H24.148V22.558H24.456L18.114 31H17.232ZM27.579 31V23.972H28.615V29.95H28.237L32.717 23.972H33.669V31H32.647V25.008H33.025L28.545 31H27.579ZM30.617 23.314C30.2343 23.314 29.8797 23.2487 29.553 23.118C29.2263 22.9873 28.9417 22.7913 28.699 22.53C28.4563 22.2593 28.2743 21.928 28.153 21.536L28.825 21.284C28.993 21.732 29.2217 22.0633 29.511 22.278C29.8097 22.4927 30.183 22.6 30.631 22.6C31.079 22.6 31.4477 22.502 31.737 22.306C32.0263 22.11 32.2783 21.774 32.493 21.298L33.137 21.536C32.8943 22.1707 32.5537 22.628 32.115 22.908C31.6857 23.1787 31.1863 23.314 30.617 23.314ZM35.9052 31V23.972H37.0392V26.926H38.3692L40.6932 23.972H41.9392L39.2792 27.374L38.9712 27.024C39.2418 27.052 39.4752 27.1173 39.6712 27.22C39.8672 27.3227 40.0538 27.4767 40.2312 27.682C40.4178 27.8873 40.6185 28.172 40.8332 28.536L42.2892 31H41.0712L39.7832 28.816C39.6245 28.5453 39.4705 28.34 39.3212 28.2C39.1812 28.06 39.0178 27.962 38.8312 27.906C38.6538 27.85 38.4298 27.822 38.1592 27.822H37.0392V31H35.9052ZM46.6164 31.126C45.515 31.126 44.647 30.8087 44.0124 30.174C43.3777 29.53 43.0604 28.6387 43.0604 27.5C43.0604 26.7627 43.2004 26.1233 43.4804 25.582C43.7604 25.0313 44.1524 24.6067 44.6564 24.308C45.1604 24 45.739 23.846 46.3924 23.846C47.0364 23.846 47.5777 23.9813 48.0164 24.252C48.455 24.5227 48.791 24.91 49.0244 25.414C49.2577 25.9087 49.3744 26.4967 49.3744 27.178V27.598H43.9284V26.884H48.6324L48.3944 27.066C48.3944 26.3193 48.2264 25.736 47.8904 25.316C47.5544 24.896 47.055 24.686 46.3924 24.686C45.6924 24.686 45.1464 24.9333 44.7544 25.428C44.3624 25.9133 44.1664 26.5713 44.1664 27.402V27.528C44.1664 28.4053 44.381 29.0727 44.8104 29.53C45.249 29.978 45.8604 30.202 46.6444 30.202C47.0644 30.202 47.4564 30.1413 47.8204 30.02C48.1937 29.8893 48.5484 29.6793 48.8844 29.39L49.2764 30.188C48.9684 30.4867 48.5764 30.72 48.1004 30.888C47.6337 31.0467 47.139 31.126 46.6164 31.126ZM51.1903 31V23.972H52.1423L54.7743 28.69L57.4203 23.972H58.3723V31H57.3643V25.232H57.6583L55.0683 29.866H54.4943L51.8903 25.218H52.1983V31H51.1903ZM59.8682 32.82V30.104H60.6102C60.9462 29.628 61.1889 29.0587 61.3382 28.396C61.4876 27.7333 61.5622 26.9493 61.5622 26.044V23.972H66.5042V30.104H67.6102V32.82H66.6302V31H60.8342V32.82H59.8682ZM61.7022 30.118H65.4262V24.854H62.5562V26.226C62.5562 26.9633 62.4816 27.6773 62.3322 28.368C62.1922 29.0493 61.9822 29.6327 61.7022 30.118ZM71.1858 34.024V30.972L68.1898 23.972H69.4218L71.9558 30.16H71.5638L74.1258 23.972H75.2878L72.3198 30.916V34.024H71.1858ZM78.7053 34.024V30.972L75.7093 23.972H76.9413L79.4753 30.16H79.0833L81.6453 23.972H82.8073L79.8393 30.916V34.024H78.7053ZM86.7113 31L88.1673 28.536C88.3913 28.172 88.5919 27.8873 88.7693 27.682C88.9466 27.4767 89.1333 27.3227 89.3293 27.22C89.5346 27.1173 89.7679 27.052 90.0293 27.024L89.7493 27.374L87.0753 23.972H88.3213L90.6593 26.926H91.7933V23.972H92.9273V26.926H94.0473L96.3713 23.972H97.6313L94.9433 27.374L94.6493 27.024C94.9199 27.052 95.1533 27.1173 95.3493 27.22C95.5546 27.3227 95.7506 27.4767 95.9373 27.682C96.1239 27.8873 96.3246 28.172 96.5393 28.536L97.9813 31H96.7633L95.4753 28.816C95.3166 28.5453 95.1626 28.34 95.0133 28.2C94.8733 28.06 94.7146 27.962 94.5373 27.906C94.3599 27.85 94.1359 27.822 93.8653 27.822H92.9273V31H91.7933V27.822H90.8413C90.5706 27.822 90.3466 27.85 90.1693 27.906C89.9919 27.962 89.8286 28.06 89.6793 28.2C89.5393 28.34 89.3899 28.5453 89.2313 28.816L87.9433 31H86.7113ZM101.854 31.126C101.229 31.126 100.683 30.9813 100.216 30.692C99.7492 30.3933 99.3852 29.9733 99.1239 29.432C98.8719 28.8907 98.7459 28.242 98.7459 27.486C98.7459 26.7207 98.8719 26.0673 99.1239 25.526C99.3852 24.9847 99.7492 24.5693 100.216 24.28C100.683 23.9907 101.229 23.846 101.854 23.846C102.489 23.846 103.035 24.0093 103.492 24.336C103.959 24.6533 104.267 25.0873 104.416 25.638H104.248L104.402 23.972H105.494C105.466 24.2427 105.438 24.518 105.41 24.798C105.391 25.0687 105.382 25.3347 105.382 25.596V31H104.248V29.348H104.402C104.253 29.8987 103.945 30.3327 103.478 30.65C103.011 30.9673 102.47 31.126 101.854 31.126ZM102.078 30.202C102.75 30.202 103.282 29.9733 103.674 29.516C104.066 29.0493 104.262 28.3727 104.262 27.486C104.262 26.59 104.066 25.9133 103.674 25.456C103.282 24.9893 102.75 24.756 102.078 24.756C101.415 24.756 100.883 24.9893 100.482 25.456C100.09 25.9133 99.8939 26.59 99.8939 27.486C99.8939 28.3727 100.09 29.0493 100.482 29.516C100.883 29.9733 101.415 30.202 102.078 30.202ZM107.669 31V23.972H108.803V26.912H112.667V23.972H113.801V31H112.667V27.822H108.803V31H107.669ZM118.766 31.126C118.141 31.126 117.595 30.9813 117.128 30.692C116.661 30.3933 116.297 29.9733 116.036 29.432C115.784 28.8907 115.658 28.242 115.658 27.486C115.658 26.7207 115.784 26.0673 116.036 25.526C116.297 24.9847 116.661 24.5693 117.128 24.28C117.595 23.9907 118.141 23.846 118.766 23.846C119.401 23.846 119.947 24.0093 120.404 24.336C120.871 24.6533 121.179 25.0873 121.328 25.638H121.16L121.314 23.972H122.406C122.378 24.2427 122.35 24.518 122.322 24.798C122.303 25.0687 122.294 25.3347 122.294 25.596V31H121.16V29.348H121.314C121.165 29.8987 120.857 30.3327 120.39 30.65C119.923 30.9673 119.382 31.126 118.766 31.126ZM118.99 30.202C119.662 30.202 120.194 29.9733 120.586 29.516C120.978 29.0493 121.174 28.3727 121.174 27.486C121.174 26.59 120.978 25.9133 120.586 25.456C120.194 24.9893 119.662 24.756 118.99 24.756C118.327 24.756 117.795 24.9893 117.394 25.456C117.002 25.9133 116.806 26.59 116.806 27.486C116.806 28.3727 117.002 29.0493 117.394 29.516C117.795 29.9733 118.327 30.202 118.99 30.202ZM130.961 31.126C130.336 31.126 129.79 30.9813 129.323 30.692C128.857 30.3933 128.493 29.9733 128.231 29.432C127.979 28.8907 127.853 28.242 127.853 27.486C127.853 26.7207 127.979 26.0673 128.231 25.526C128.493 24.9847 128.857 24.5693 129.323 24.28C129.79 23.9907 130.336 23.846 130.961 23.846C131.596 23.846 132.142 24.0093 132.599 24.336C133.066 24.6533 133.374 25.0873 133.523 25.638H133.355L133.509 23.972H134.601C134.573 24.2427 134.545 24.518 134.517 24.798C134.499 25.0687 134.489 25.3347 134.489 25.596V31H133.355V29.348H133.509C133.36 29.8987 133.052 30.3327 132.585 30.65C132.119 30.9673 131.577 31.126 130.961 31.126ZM131.185 30.202C131.857 30.202 132.389 29.9733 132.781 29.516C133.173 29.0493 133.369 28.3727 133.369 27.486C133.369 26.59 133.173 25.9133 132.781 25.456C132.389 24.9893 131.857 24.756 131.185 24.756C130.523 24.756 129.991 24.9893 129.589 25.456C129.197 25.9133 129.001 26.59 129.001 27.486C129.001 28.3727 129.197 29.0493 129.589 29.516C129.991 29.9733 130.523 30.202 131.185 30.202ZM136.398 31.154L135.978 30.272C136.305 30.1227 136.576 29.9407 136.79 29.726C137.014 29.502 137.192 29.222 137.322 28.886C137.453 28.5407 137.546 28.116 137.602 27.612C137.658 27.0987 137.686 26.4827 137.686 25.764V23.972H142.754V31H141.634V24.868H138.736V25.806C138.736 26.9073 138.657 27.8127 138.498 28.522C138.349 29.2313 138.102 29.796 137.756 30.216C137.42 30.6267 136.968 30.9393 136.398 31.154ZM144.993 31V23.972H146.127V26.492H148.241C149.146 26.492 149.828 26.688 150.285 27.08C150.752 27.4627 150.985 28.0087 150.985 28.718C150.985 29.194 150.878 29.6047 150.663 29.95C150.458 30.286 150.15 30.5473 149.739 30.734C149.338 30.9113 148.838 31 148.241 31H144.993ZM146.127 30.188H148.143C148.712 30.188 149.146 30.0713 149.445 29.838C149.744 29.5953 149.893 29.2267 149.893 28.732C149.893 28.2373 149.744 27.878 149.445 27.654C149.156 27.4207 148.722 27.304 148.143 27.304H146.127V30.188ZM152.049 31V23.972H153.169V31H152.049ZM158.421 31.126C157.73 31.126 157.128 30.9767 156.615 30.678C156.111 30.3793 155.719 29.9547 155.439 29.404C155.168 28.8533 155.033 28.2 155.033 27.444C155.033 26.6787 155.173 26.03 155.453 25.498C155.733 24.9567 156.125 24.546 156.629 24.266C157.142 23.986 157.74 23.846 158.421 23.846C158.869 23.846 159.303 23.9253 159.723 24.084C160.152 24.2427 160.507 24.4667 160.787 24.756L160.381 25.568C160.101 25.2973 159.793 25.0967 159.457 24.966C159.13 24.8353 158.808 24.77 158.491 24.77C157.763 24.77 157.198 24.9987 156.797 25.456C156.396 25.9133 156.195 26.5807 156.195 27.458C156.195 28.326 156.396 28.998 156.797 29.474C157.198 29.95 157.763 30.188 158.491 30.188C158.799 30.188 159.116 30.1273 159.443 30.006C159.779 29.8847 160.092 29.684 160.381 29.404L160.787 30.202C160.498 30.5007 160.138 30.7293 159.709 30.888C159.28 31.0467 158.85 31.126 158.421 31.126ZM163.977 31V24.882H161.429V23.972H167.673V24.882H165.111V31H163.977ZM171.58 31.126C170.955 31.126 170.409 30.9813 169.942 30.692C169.476 30.3933 169.112 29.9733 168.85 29.432C168.598 28.8907 168.472 28.242 168.472 27.486C168.472 26.7207 168.598 26.0673 168.85 25.526C169.112 24.9847 169.476 24.5693 169.942 24.28C170.409 23.9907 170.955 23.846 171.58 23.846C172.215 23.846 172.761 24.0093 173.218 24.336C173.685 24.6533 173.993 25.0873 174.142 25.638H173.974L174.128 23.972H175.22C175.192 24.2427 175.164 24.518 175.136 24.798C175.118 25.0687 175.108 25.3347 175.108 25.596V31H173.974V29.348H174.128C173.979 29.8987 173.671 30.3327 173.204 30.65C172.738 30.9673 172.196 31.126 171.58 31.126ZM171.804 30.202C172.476 30.202 173.008 29.9733 173.4 29.516C173.792 29.0493 173.988 28.3727 173.988 27.486C173.988 26.59 173.792 25.9133 173.4 25.456C173.008 24.9893 172.476 24.756 171.804 24.756C171.142 24.756 170.61 24.9893 170.208 25.456C169.816 25.9133 169.62 26.59 169.62 27.486C169.62 28.3727 169.816 29.0493 170.208 29.516C170.61 29.9733 171.142 30.202 171.804 30.202ZM177.395 31V23.972H178.529V26.912H182.393V23.972H183.527V31H182.393V27.822H178.529V31H177.395ZM189.413 31V23.972H190.449V29.95H190.071L194.551 23.972H195.503V31H194.481V25.008H194.859L190.379 31H189.413ZM197.739 31V23.972H198.817V30.104H201.799V23.972H202.863V30.104H205.845V23.972H206.937V31H197.739ZM210.681 31V24.882H208.133V23.972H214.377V24.882H211.815V31H210.681ZM218.466 31.126C217.794 31.126 217.206 30.9813 216.702 30.692C216.208 30.3933 215.825 29.9733 215.554 29.432C215.284 28.8813 215.148 28.2327 215.148 27.486C215.148 26.73 215.284 26.0813 215.554 25.54C215.825 24.9987 216.208 24.5833 216.702 24.294C217.206 23.9953 217.794 23.846 218.466 23.846C219.148 23.846 219.736 23.9953 220.23 24.294C220.734 24.5833 221.122 24.9987 221.392 25.54C221.672 26.0813 221.812 26.73 221.812 27.486C221.812 28.2327 221.672 28.8813 221.392 29.432C221.122 29.9733 220.734 30.3933 220.23 30.692C219.736 30.9813 219.148 31.126 218.466 31.126ZM218.466 30.202C219.166 30.202 219.717 29.9687 220.118 29.502C220.52 29.026 220.72 28.3493 220.72 27.472C220.72 26.604 220.52 25.9367 220.118 25.47C219.717 24.994 219.166 24.756 218.466 24.756C217.766 24.756 217.216 24.994 216.814 25.47C216.422 25.9367 216.226 26.604 216.226 27.472C216.226 28.3493 216.422 29.026 216.814 29.502C217.216 29.9687 217.766 30.202 218.466 30.202ZM215.806 27.878V27.08H221.154V27.878H215.806ZM226.601 31.126C225.929 31.126 225.341 30.9813 224.837 30.692C224.342 30.3933 223.96 29.9733 223.689 29.432C223.418 28.8813 223.283 28.2327 223.283 27.486C223.283 26.73 223.418 26.0813 223.689 25.54C223.96 24.9987 224.342 24.5833 224.837 24.294C225.341 23.9953 225.929 23.846 226.601 23.846C227.282 23.846 227.87 23.9953 228.365 24.294C228.869 24.5833 229.256 24.9987 229.527 25.54C229.807 26.0813 229.947 26.73 229.947 27.486C229.947 28.2327 229.807 28.8813 229.527 29.432C229.256 29.9733 228.869 30.3933 228.365 30.692C227.87 30.9813 227.282 31.126 226.601 31.126ZM226.601 30.202C227.301 30.202 227.852 29.9687 228.253 29.502C228.654 29.026 228.855 28.3493 228.855 27.472C228.855 26.604 228.654 25.9367 228.253 25.47C227.852 24.994 227.301 24.756 226.601 24.756C225.901 24.756 225.35 24.994 224.949 25.47C224.557 25.9367 224.361 26.604 224.361 27.472C224.361 28.3493 224.557 29.026 224.949 29.502C225.35 29.9687 225.901 30.202 226.601 30.202ZM223.941 27.878V27.08H229.289V27.878H223.941ZM235.446 31V23.972H236.398L239.03 28.69L241.676 23.972H242.628V31H241.62V25.232H241.914L239.324 29.866H238.75L236.146 25.218H236.454V31H235.446ZM246.924 34.024V30.972L243.928 23.972H245.16L247.694 30.16H247.302L249.864 23.972H251.026L248.058 30.916V34.024H246.924ZM252.386 31V23.972H253.338L255.97 28.69L258.616 23.972H259.568V31H258.56V25.232H258.854L256.264 29.866H255.69L253.086 25.218H253.394V31H252.386ZM261.806 31V23.972H262.94V26.926H264.27L266.594 23.972H267.84L265.18 27.374L264.872 27.024C265.142 27.052 265.376 27.1173 265.572 27.22C265.768 27.3227 265.954 27.4767 266.132 27.682C266.318 27.8873 266.519 28.172 266.734 28.536L268.19 31H266.972L265.684 28.816C265.525 28.5453 265.371 28.34 265.222 28.2C265.082 28.06 264.918 27.962 264.732 27.906C264.554 27.85 264.33 27.822 264.06 27.822H262.94V31H261.806ZM271.397 34.024V30.972L268.401 23.972H269.633L272.167 30.16H271.775L274.337 23.972H275.499L272.531 30.916V34.024H271.397ZM276.858 31V23.972H277.992V26.912H281.856V23.972H282.99V31H281.856V27.822H277.992V31H276.858ZM289.761 31V28.144C289.491 28.3027 289.197 28.424 288.879 28.508C288.562 28.592 288.221 28.634 287.857 28.634C286.868 28.634 286.131 28.4053 285.645 27.948C285.169 27.4813 284.931 26.7767 284.931 25.834V23.972H286.065V25.75C286.065 26.4313 286.219 26.926 286.527 27.234C286.845 27.5327 287.339 27.682 288.011 27.682C288.357 27.682 288.665 27.6447 288.935 27.57C289.206 27.4953 289.472 27.3693 289.733 27.192V23.972H290.867V31H289.761ZM295.172 34.024V30.972L292.176 23.972H293.408L295.942 30.16H295.55L298.112 23.972H299.274L296.306 30.916V34.024H295.172ZM299.832 31.154L299.412 30.272C299.739 30.1227 300.009 29.9407 300.224 29.726C300.448 29.502 300.625 29.222 300.756 28.886C300.887 28.5407 300.98 28.116 301.036 27.612C301.092 27.0987 301.12 26.4827 301.12 25.764V23.972H306.188V31H305.068V24.868H302.17V25.806C302.17 26.9073 302.091 27.8127 301.932 28.522C301.783 29.2313 301.535 29.796 301.19 30.216C300.854 30.6267 300.401 30.9393 299.832 31.154ZM310.485 34.024V30.972L307.489 23.972H308.721L311.255 30.16H310.863L313.425 23.972H314.587L311.619 30.916V34.024H310.485ZM315.946 31V23.972H317.08V26.926H318.41L320.734 23.972H321.98L319.32 27.374L319.012 27.024C319.283 27.052 319.516 27.1173 319.712 27.22C319.908 27.3227 320.095 27.4767 320.272 27.682C320.459 27.8873 320.66 28.172 320.874 28.536L322.33 31H321.112L319.824 28.816C319.666 28.5453 319.512 28.34 319.362 28.2C319.222 28.06 319.059 27.962 318.872 27.906C318.695 27.85 318.471 27.822 318.2 27.822H317.08V31H315.946ZM324.977 31V24.882H322.429V23.972H328.673V24.882H326.111V31H324.977ZM332.763 31.126C332.091 31.126 331.503 30.9813 330.999 30.692C330.504 30.3933 330.122 29.9733 329.851 29.432C329.58 28.8813 329.445 28.2327 329.445 27.486C329.445 26.73 329.58 26.0813 329.851 25.54C330.122 24.9987 330.504 24.5833 330.999 24.294C331.503 23.9953 332.091 23.846 332.763 23.846C333.444 23.846 334.032 23.9953 334.527 24.294C335.031 24.5833 335.418 24.9987 335.689 25.54C335.969 26.0813 336.109 26.73 336.109 27.486C336.109 28.2327 335.969 28.8813 335.689 29.432C335.418 29.9733 335.031 30.3933 334.527 30.692C334.032 30.9813 333.444 31.126 332.763 31.126ZM332.763 30.202C333.463 30.202 334.014 29.9687 334.415 29.502C334.816 29.026 335.017 28.3493 335.017 27.472C335.017 26.604 334.816 25.9367 334.415 25.47C334.014 24.994 333.463 24.756 332.763 24.756C332.063 24.756 331.512 24.994 331.111 25.47C330.719 25.9367 330.523 26.604 330.523 27.472C330.523 28.3493 330.719 29.026 331.111 29.502C331.512 29.9687 332.063 30.202 332.763 30.202ZM330.103 27.878V27.08H335.451V27.878H330.103ZM338.014 34.024V25.596C338.014 25.3347 338 25.0687 337.972 24.798C337.953 24.518 337.93 24.2427 337.902 23.972H338.994L339.148 25.638H338.98C339.129 25.0873 339.433 24.6533 339.89 24.336C340.347 24.0093 340.893 23.846 341.528 23.846C342.163 23.846 342.709 23.9907 343.166 24.28C343.633 24.5693 343.997 24.9847 344.258 25.526C344.519 26.0673 344.65 26.7207 344.65 27.486C344.65 28.242 344.519 28.8907 344.258 29.432C344.006 29.9733 343.647 30.3933 343.18 30.692C342.713 30.9813 342.163 31.126 341.528 31.126C340.903 31.126 340.361 30.9673 339.904 30.65C339.447 30.3327 339.143 29.8987 338.994 29.348H339.148V34.024H338.014ZM341.304 30.202C341.976 30.202 342.508 29.9733 342.9 29.516C343.301 29.0493 343.502 28.3727 343.502 27.486C343.502 26.59 343.301 25.9133 342.9 25.456C342.508 24.9893 341.976 24.756 341.304 24.756C340.641 24.756 340.109 24.9893 339.708 25.456C339.316 25.9133 339.12 26.59 339.12 27.486C339.12 28.3727 339.316 29.0493 339.708 29.516C340.109 29.9733 340.641 30.202 341.304 30.202ZM348.479 34.024V30.972L345.483 23.972H346.715L349.249 30.16H348.857L351.419 23.972H352.581L349.613 30.916V34.024H348.479Z" fill="white"/>
</svg>
